<svg width="70" height="70" viewBox="0 0 70 70" fill="none" xmlns="http://www.w3.org/2000/svg">
<g id="undraw_blooming_re_2kc4 1" clip-path="url(#clip0_884_1357)">
<path id="uuid-207e1ec5-f316-41d7-bdda-8b0dd0a2bd60-161" d="M37.5111 52.729C36.4871 52.8905 35.7381 53.565 35.8381 54.2354C35.938 54.9058 36.8491 55.3182 37.8734 55.1566C38.2835 55.0978 38.6739 54.9388 39.0119 54.6929L43.3422 53.9524L43.0532 52.1914L38.7327 52.8204C38.3384 52.69 37.9195 52.6587 37.5111 52.729H37.5111Z" fill="#FFB6B6"/>
<path id="Vector" d="M56.1713 47.2399L54.4922 50.9055L46.0513 53.8289L39.047 54.2133L38.8716 52.4825L46.4626 50.8496L54.2519 47.0626L56.1713 47.2399Z" fill="#E6E6E6"/>
<g id="Group">
<path id="Vector_2" d="M37.0202 39.5712L36.79 39.5764L37.2301 60.1489L37.4603 60.1437L37.0202 39.5712Z" fill="#3F3D56"/>
<path id="Vector_3" d="M37.0252 48.6801C37.0043 48.6071 36.5272 46.8721 37.5605 45.1666L37.7558 45.292C36.7787 46.9046 37.2413 48.5966 37.2461 48.6136L37.0252 48.6801V48.6801Z" fill="#3F3D56"/>
<path id="Vector_4" d="M37.6413 45.2983C37.6413 45.2983 37.3272 43.0893 40.2212 42.483C40.8241 42.3567 41.3909 42.2704 41.9104 42.2129C42.5237 42.145 42.763 43.0087 42.2089 43.2877C41.4066 43.6917 40.6518 44.2008 40.2584 44.8036C39.1734 46.4661 37.6413 45.2983 37.6413 45.2983V45.2983Z" fill="#B5838D"/>
<path id="Vector_5" d="M37.3229 55.0681L37.102 55.0016C37.1068 54.9846 37.5694 53.2926 36.5923 51.68L36.7876 51.5547C37.821 53.2601 37.3438 54.9952 37.3229 55.0681V55.0681Z" fill="#3F3D56"/>
<path id="Vector_6" d="M36.7068 51.6864C36.7068 51.6864 37.021 49.4774 34.127 48.8711C33.5241 48.7448 32.9573 48.6585 32.4377 48.601C31.8244 48.5331 31.5852 49.3968 32.1392 49.6758C32.9416 50.0798 33.6964 50.5888 34.0898 51.1917C35.1748 52.8542 36.7068 51.6864 36.7068 51.6864H36.7068Z" fill="#B5838D"/>
<path id="Vector_7" d="M40.7346 36.7148C41.3171 36.5568 41.8619 36.2815 41.8438 36.0091C41.8223 35.6855 41.0136 35.4687 40.3159 35.4357C40.8422 35.0122 41.3257 34.4266 41.1778 34.1618C41.0419 33.9184 40.4095 34.0127 39.826 34.2271C40.1713 33.7192 40.4141 33.1469 40.2292 32.9511C39.9989 32.7071 39.1815 33.1282 38.6237 33.5937C38.7323 32.8685 38.6774 31.9532 38.3613 31.8704C38.0969 31.8011 37.722 32.3336 37.465 32.9136C37.3515 32.3049 37.1215 31.7271 36.8562 31.7271C36.4782 31.7271 36.1717 32.8996 36.1717 33.6636C36.1717 33.7068 36.1728 33.7474 36.1747 33.7863C36.1368 33.741 36.0933 33.6937 36.0437 33.6442C35.511 33.1119 34.4799 32.5212 34.2166 32.8002C34.0317 32.996 34.2744 33.5683 34.6197 34.0762C34.0362 33.8618 33.4039 33.7675 33.2679 34.0109C33.0853 34.338 33.866 35.1546 34.5007 35.5506C34.4625 35.5459 34.4225 35.5419 34.3798 35.5389C33.639 35.4869 32.481 35.7217 32.4553 36.1097C32.4372 36.3821 32.9819 36.6574 33.5644 36.8154C32.9845 37.0397 32.4427 37.3882 32.4918 37.6643C32.5515 37.9995 33.4619 38.1169 34.1778 38.0482C33.643 38.5761 33.0631 39.5217 33.3051 39.7988C33.4825 40.0019 34.0539 39.7917 34.57 39.4719C34.3223 40.0562 34.1878 40.6989 34.4146 40.855C34.7144 41.0613 35.5365 40.3432 35.97 39.7254C35.9258 40.4813 36.1016 41.5196 36.4504 41.5606C36.7141 41.5916 37.0062 41.0443 37.1862 40.4528C37.3776 41.0591 37.6912 41.6318 37.9616 41.5939C38.3133 41.5445 38.4665 40.4801 38.401 39.7237C38.8481 40.3162 39.6006 40.9497 39.8844 40.7544C40.1113 40.5983 39.9768 39.9556 39.7291 39.3713C40.2451 39.6911 40.8166 39.9013 40.9939 39.6982C41.2359 39.4211 40.6561 38.4755 40.1213 37.9476C40.8371 38.0163 41.7475 37.8989 41.8072 37.5637C41.8564 37.2876 41.3146 36.9391 40.7346 36.7148V36.7148ZM37.5981 38.8528C37.4483 38.8738 37.3114 38.9038 37.2073 38.9805C37.0967 38.8675 36.9351 38.8331 36.7555 38.812C36.5544 38.7884 36.3716 38.7861 36.2322 38.9055C36.1812 38.7597 36.0558 38.6561 35.9097 38.5555C35.7841 38.4691 35.6623 38.3981 35.535 38.3844C35.525 38.2244 35.4263 38.0884 35.3055 37.95C35.2284 37.8618 35.1513 37.7829 35.0658 37.7302C35.1892 37.5756 35.175 37.3802 35.1368 37.1658C35.1096 37.0129 35.0742 36.8735 34.995 36.77C35.0997 36.6512 35.1257 36.4836 35.138 36.298C35.1515 36.0954 35.1459 35.9117 35.0322 35.7749C35.326 35.8133 35.4678 35.625 35.5995 35.389C35.6748 35.2542 35.7353 35.1243 35.7399 34.9927C35.8945 34.9716 36.0196 34.861 36.1456 34.7275C36.2532 34.6136 36.3447 34.5007 36.3791 34.3708C36.5024 34.4774 36.6706 34.4935 36.8562 34.4935C37.037 34.4935 37.2013 34.4782 37.3236 34.3789C37.4186 34.4672 37.5514 34.513 37.6978 34.5513C37.8376 34.588 37.9696 34.6125 38.0896 34.5878C38.1333 34.6908 38.2112 34.7842 38.3002 34.8784C38.4261 35.0119 38.5513 35.1225 38.7058 35.1436C38.7104 35.2752 38.7709 35.4051 38.8462 35.5399C38.9348 35.6986 39.0279 35.8358 39.1686 35.897C39.1522 35.9892 39.154 36.0907 39.161 36.1974C39.1733 36.383 39.1994 36.5506 39.304 36.6694C39.2249 36.7729 39.1895 36.9123 39.1622 37.0652C39.1241 37.2796 39.1098 37.475 39.2332 37.6296C39.1477 37.6823 39.0706 37.7612 38.9936 37.8494C38.8728 37.9878 38.774 38.1238 38.7641 38.2838C38.6368 38.2975 38.5149 38.3685 38.3893 38.4549C38.2178 38.573 38.0749 38.6954 38.0474 38.8854C37.9187 38.8211 37.7646 38.8294 37.5981 38.8528V38.8528Z" fill="#B5838D"/>
<path id="Vector_8" d="M37.1984 39.2217C38.5485 39.2217 39.643 38.0957 39.643 36.7068C39.643 35.3178 38.5485 34.1918 37.1984 34.1918C35.8484 34.1918 34.7539 35.3178 34.7539 36.7068C34.7539 38.0957 35.8484 39.2217 37.1984 39.2217Z" fill="#3F3D56"/>
</g>
<path id="Vector_9" d="M7.71631 67.2034C7.71631 67.2816 7.77731 67.3443 7.85328 67.3443H67.9673C68.0433 67.3443 68.1043 67.2816 68.1043 67.2034C68.1043 67.1253 68.0433 67.0625 67.9673 67.0625H7.85328C7.77731 67.0625 7.71631 67.1253 7.71631 67.2034V67.2034Z" fill="#3F3D56"/>
<path id="Vector_10" d="M40.6031 61.1583L39.0956 65.0812L37.1448 63.7127L38.2975 59.6074L40.6031 61.1583Z" fill="#FFB6B6"/>
<path id="Vector_11" d="M34.3072 59.6986L30.3169 63.6215L31.913 65.3548L35.992 62.0706L34.3072 59.6986Z" fill="#FFB6B6"/>
<path id="Vector_12" d="M56.9191 46.9265L56.8747 46.6072L55.855 44.5546L52.4854 45.4669L53.1061 48.295L56.9191 46.9265Z" fill="#FFB6B6"/>
<path id="Vector_13" d="M55.5003 60.6109L55.604 61.9811C55.604 61.9811 56.0324 67.7268 52.5741 68.1829C49.1158 68.639 47.6083 69.0952 45.5688 65.5373L42.3765 59.6986L40.5119 61.9811L38.0315 59.9723C38.0315 59.9723 39.805 52.8564 41.2238 52.5827C41.4011 52.5485 41.5785 52.5314 41.753 52.5276C42.9276 52.5025 44.0348 53.0935 44.7376 54.0621L48.7611 59.6073L50.2242 58.9231L55.5003 60.6109H55.5003Z" fill="#2F2E41"/>
<path id="Vector_14" d="M36.3468 64.8987L37.1448 63.3478L39.4504 64.9899C39.4504 64.9899 39.9824 66.997 39.1843 67.2706C38.3863 67.5443 36.1694 67.1794 36.1694 67.1794C36.1694 67.1794 32.0904 68.0917 32.0017 67.2706C31.913 66.4496 33.8639 66.2671 33.8639 66.2671L36.3468 64.8987V64.8987Z" fill="#2F2E41"/>
<path id="Vector_15" d="M45.0369 63.8039L38.874 59.8089L35.7261 62.7092L33.5979 60.1547C33.5979 60.1547 37.4996 54.2248 38.6523 53.9511C39.8051 53.6775 41.6673 53.495 41.6673 53.495L47.3424 58.8775L45.0369 63.8039V63.8039Z" fill="#2F2E41"/>
<path id="Vector_16" d="M30.2281 63.2566L32.2677 65.5373L31.9987 65.774C31.9987 65.774 31.4696 68.1449 30.2281 67.3429C28.9867 66.5409 28.898 66.3584 28.898 66.3584C28.898 66.3584 25.3511 67.1795 24.9964 65.7198C24.6417 64.2601 25.6171 64.5338 25.6171 64.5338L26.5028 65.0812L30.2281 63.2566L30.2281 63.2566Z" fill="#2F2E41"/>
<path id="Vector_17" d="M53.5495 46.4704C55.1166 46.4704 56.3871 45.1634 56.3871 43.5511C56.3871 41.9387 55.1166 40.6317 53.5495 40.6317C51.9823 40.6317 50.7119 41.9387 50.7119 43.5511C50.7119 45.1634 51.9823 46.4704 53.5495 46.4704Z" fill="#FFB6B6"/>
<path id="Vector_18" d="M52.8845 47.702L56.9635 46.4248C56.9635 46.4248 58.5596 50.2564 58.2936 51.9898C58.0276 53.7232 55.604 61.9812 55.604 61.9812L50.2242 58.9232C50.2242 58.9232 50.1356 57.0986 49.8695 56.2776C49.6035 55.4565 48.7611 52.9477 50.6233 50.8494C52.4854 48.7512 52.8845 47.702 52.8845 47.702V47.702Z" fill="#E6E6E6"/>
<g id="Group_2">
<path id="Vector_19" d="M13.0494 18.9358L12.8193 18.941L13.8552 67.3721L14.0853 67.3669L13.0494 18.9358Z" fill="#3F3D56"/>
<path id="Vector_20" d="M13.3666 40.331C13.3548 40.2896 12.2136 36.1441 14.6095 32.1899L14.8049 32.3152C12.4629 36.1804 13.5759 40.224 13.5874 40.2644L13.3666 40.331V40.331Z" fill="#3F3D56"/>
<path id="Vector_21" d="M14.6673 32.4149C14.6673 32.4149 13.9278 27.2146 20.7406 25.7873C22.16 25.49 23.4943 25.2868 24.7175 25.1514C26.1613 24.9915 26.7245 27.0249 25.4202 27.6817C23.5313 28.6328 21.7544 29.8312 20.8283 31.2503C18.274 35.1642 14.6673 32.4149 14.6673 32.4149V32.4149Z" fill="#B5838D"/>
<path id="Vector_22" d="M13.7684 55.3696L13.5475 55.3029C13.559 55.2626 14.6699 51.2153 12.3301 47.3537L12.5254 47.2284C14.9214 51.1826 13.7802 55.3282 13.7684 55.3696Z" fill="#3F3D56"/>
<path id="Vector_23" d="M12.4675 47.4535C12.4675 47.4535 13.207 42.2531 6.39414 40.8259C4.97479 40.5286 3.64045 40.3253 2.41731 40.1899C0.973506 40.0301 0.410319 42.0635 1.71461 42.7202C3.60352 43.6714 5.38038 44.8698 6.30651 46.2889C8.86078 50.2028 12.4675 47.4535 12.4675 47.4535V47.4535Z" fill="#B5838D"/>
<path id="Vector_24" d="M21.9497 12.2079C23.3211 11.836 24.6035 11.1878 24.5609 10.5466C24.5104 9.78482 22.6065 9.27443 20.9641 9.19677C22.2029 8.19963 23.3412 6.82122 22.9931 6.19781C22.6731 5.62469 21.1843 5.84669 19.8108 6.35147C20.6236 5.15585 21.1951 3.80859 20.7599 3.34753C20.2177 2.7732 18.2936 3.7645 16.9804 4.86025C17.2361 3.15318 17.1068 0.998406 16.3626 0.803455C15.74 0.640362 14.8576 1.89381 14.2526 3.25924C13.9853 1.82633 13.444 0.465942 12.8193 0.465942C11.9294 0.465942 11.2079 3.22641 11.2079 5.02486C11.2079 5.12652 11.2105 5.22222 11.2151 5.31365C11.1257 5.20711 11.0234 5.09581 10.9066 4.97917C9.65258 3.72621 7.22514 2.33548 6.60514 2.99229C6.16992 3.45335 6.7414 4.80061 7.55426 5.99623C6.18068 5.49145 4.69192 5.26945 4.3719 5.84257C3.94188 6.61267 5.77997 8.53506 7.27404 9.46733C7.18422 9.4562 7.08986 9.44683 6.98944 9.43978C5.24542 9.31735 2.51938 9.86993 2.45879 10.7834C2.41626 11.4246 3.69864 12.0728 5.06997 12.4448C3.70468 12.9728 2.42911 13.7932 2.54488 14.4433C2.6854 15.2324 4.82866 15.5086 6.51384 15.3469C5.25489 16.5896 3.88976 18.8158 4.45947 19.4683C4.87696 19.9464 6.22234 19.4515 7.43711 18.6986C6.85411 20.0741 6.53747 21.5871 7.07147 21.9546C7.77718 22.4402 9.71261 20.7499 10.7331 19.2954C10.6291 21.0748 11.0429 23.5194 11.8641 23.6158C12.4847 23.6887 13.1725 22.4003 13.5962 21.0079C14.0467 22.4351 14.7852 23.7835 15.4217 23.6941C16.2495 23.5779 16.6103 21.0722 16.4559 19.2915C17.5085 20.6861 19.28 22.1777 19.9483 21.7177C20.4823 21.3502 20.1656 19.8373 19.5826 18.4617C20.7974 19.2147 22.1428 19.7096 22.5603 19.2315C23.13 18.579 21.7648 16.3528 20.5059 15.1101C22.1911 15.2718 24.3343 14.9956 24.4748 14.2065C24.5906 13.5564 23.315 12.736 21.9498 12.2079L21.9497 12.2079ZM14.5658 17.2411C14.2133 17.2906 13.891 17.3613 13.6459 17.5418C13.3855 17.2758 13.0052 17.1948 12.5823 17.1451C12.1088 17.0895 11.6785 17.0841 11.3504 17.3652C11.2303 17.0219 10.9351 16.778 10.5912 16.5413C10.2955 16.3378 10.0087 16.1708 9.7089 16.1385C9.68548 15.7618 9.45307 15.4417 9.16863 15.1159C8.98727 14.9082 8.80581 14.7225 8.60446 14.5983C8.89497 14.2344 8.86147 13.7745 8.77159 13.2697C8.70748 12.9097 8.62417 12.5816 8.43778 12.3379C8.68415 12.0582 8.74547 11.6636 8.77445 11.2267C8.80608 10.7497 8.79294 10.3172 8.52531 9.99516C9.21694 10.0857 9.55071 9.64237 9.86094 9.08679C10.0382 8.76942 10.1806 8.46369 10.1915 8.15379C10.5552 8.1041 10.8498 7.84376 11.1464 7.52963C11.3997 7.26128 11.6152 6.99558 11.6961 6.68976C11.9863 6.94071 12.3824 6.97869 12.8193 6.97869C13.2449 6.97869 13.6317 6.94261 13.9198 6.70876C14.1434 6.91667 14.4558 7.02451 14.8006 7.11482C15.1297 7.20104 15.4404 7.2587 15.7228 7.20067C15.8259 7.443 16.0093 7.66306 16.2186 7.88487C16.5152 8.199 16.8098 8.45935 17.1735 8.50903C17.1844 8.81893 17.3269 9.12466 17.5041 9.44203C17.7127 9.81562 17.9318 10.1386 18.2632 10.2828C18.2245 10.4998 18.2286 10.7386 18.2453 10.9899C18.2743 11.4268 18.3356 11.8214 18.5819 12.1011C18.3955 12.3448 18.3122 12.6728 18.2481 13.0329C18.1582 13.5376 18.1248 13.9976 18.4153 14.3615C18.2139 14.4857 18.0325 14.6714 17.8511 14.8791C17.5666 15.2048 17.3342 15.525 17.3108 15.9017C17.011 15.9339 16.7243 16.101 16.4286 16.3045C16.0247 16.5824 15.6882 16.8706 15.6236 17.3178C15.3206 17.1666 14.9577 17.1861 14.5658 17.2411V17.2411Z" fill="#B5838D"/>
<path id="Vector_25" d="M13.625 18.1095C16.8033 18.1095 19.3798 15.4588 19.3798 12.1889C19.3798 8.91896 16.8033 6.26819 13.625 6.26819C10.4467 6.26819 7.87012 8.91896 7.87012 12.1889C7.87012 15.4588 10.4467 18.1095 13.625 18.1095Z" fill="#3F3D56"/>
</g>
<g id="Group_3">
<path id="Vector_26" d="M66.7961 55.6766L66.5659 55.6818L66.8135 67.2538L67.0436 67.2486L66.7961 55.6766Z" fill="#3F3D56"/>
<path id="Vector_27" d="M66.7002 60.8161C66.6882 60.7741 66.4138 59.7765 67.0069 58.7977L67.2022 58.9231C66.6653 59.8091 66.9185 60.7403 66.9211 60.7496L66.7002 60.8161V60.8161Z" fill="#3F3D56"/>
<path id="Vector_28" d="M67.095 58.8992C67.095 58.8992 66.9183 57.6566 68.5461 57.3156C68.8853 57.2445 69.2041 57.196 69.4963 57.1636C69.8413 57.1254 69.9759 57.6113 69.6642 57.7682C69.2129 57.9955 68.7883 58.2818 68.5671 58.6209C67.9567 59.5561 67.095 58.8992 67.095 58.8992V58.8992Z" fill="#B5838D"/>
<path id="Vector_29" d="M66.9642 64.4092L66.7433 64.3427C66.7459 64.3335 66.9991 63.4024 66.4622 62.5163L66.6575 62.391C67.2506 63.3698 66.9762 64.3672 66.9642 64.4092V64.4092Z" fill="#3F3D56"/>
<path id="Vector_30" d="M66.5695 62.4924C66.5695 62.4924 66.7462 61.2499 65.1183 60.9088C64.7792 60.8378 64.4604 60.7892 64.1681 60.7569C63.8231 60.7187 63.6886 61.2046 64.0002 61.3615C64.4515 61.5887 64.8761 61.8751 65.0974 62.2142C65.7077 63.1493 66.5695 62.4924 66.5695 62.4924V62.4924Z" fill="#B5838D"/>
<path id="Vector_31" d="M68.8351 54.071C69.1628 53.9821 69.4692 53.8272 69.459 53.674C69.4469 53.492 68.992 53.3701 68.5996 53.3515C68.8956 53.1133 69.1676 52.7839 69.0844 52.6349C69.0079 52.498 68.6522 52.551 68.324 52.6717C68.5182 52.386 68.6548 52.0641 68.5508 51.9539C68.4213 51.8167 67.9615 52.0535 67.6477 52.3153C67.7088 51.9075 67.678 51.3926 67.5001 51.346C67.3514 51.3071 67.1405 51.6066 66.996 51.9328C66.9321 51.5904 66.8028 51.2654 66.6535 51.2654C66.4408 51.2654 66.2685 51.925 66.2685 52.3547C66.2685 52.379 66.2691 52.4018 66.2702 52.4237C66.2488 52.3982 66.2244 52.3716 66.1965 52.3438C65.8968 52.0444 65.3168 51.7121 65.1687 51.869C65.0647 51.9792 65.2013 52.3011 65.3955 52.5868C65.0673 52.4662 64.7116 52.4131 64.6351 52.5501C64.5323 52.7341 64.9715 53.1934 65.3285 53.4162C65.3071 53.4135 65.2845 53.4113 65.2605 53.4096C64.8438 53.3803 64.1925 53.5124 64.178 53.7306C64.1678 53.8838 64.4742 54.0387 64.8019 54.1276C64.4757 54.2537 64.1709 54.4498 64.1985 54.6051C64.2321 54.7937 64.7442 54.8597 65.1469 54.821C64.8461 55.1179 64.5199 55.6499 64.656 55.8058C64.7558 55.92 65.0772 55.8018 65.3675 55.6218C65.2282 55.9505 65.1525 56.312 65.2801 56.3998C65.4487 56.5159 65.9112 56.112 66.155 55.7645C66.1302 56.1896 66.2291 56.7737 66.4253 56.7968C66.5736 56.8142 66.7379 56.5063 66.8391 56.1736C66.9468 56.5146 67.1232 56.8368 67.2753 56.8155C67.4731 56.7877 67.5593 56.189 67.5224 55.7635C67.7739 56.0967 68.1972 56.4531 68.3569 56.3432C68.4845 56.2554 68.4088 55.8939 68.2695 55.5653C68.5598 55.7452 68.8812 55.8634 68.981 55.7492C69.1171 55.5933 68.7909 55.0614 68.4901 54.7644C68.8928 54.8031 69.4049 54.7371 69.4384 54.5485C69.4661 54.3932 69.1613 54.1972 68.8351 54.071V54.071ZM67.0708 55.2736C66.9866 55.2854 66.9096 55.3023 66.851 55.3454C66.7888 55.2819 66.6979 55.2625 66.5969 55.2507C66.4837 55.2374 66.3809 55.2361 66.3025 55.3033C66.2738 55.2212 66.2033 55.163 66.1211 55.1064C66.0505 55.0578 65.9819 55.0179 65.9103 55.0102C65.9047 54.9201 65.8492 54.8437 65.7812 54.7658C65.7379 54.7162 65.6945 54.6718 65.6464 54.6421C65.7158 54.5552 65.7078 54.4453 65.6863 54.3247C65.671 54.2387 65.6511 54.1603 65.6066 54.102C65.6655 54.0352 65.6801 53.9409 65.687 53.8365C65.6946 53.7226 65.6914 53.6192 65.6275 53.5423C65.7928 53.5639 65.8725 53.458 65.9466 53.3252C65.989 53.2494 66.023 53.1763 66.0256 53.1023C66.1125 53.0904 66.1829 53.0282 66.2538 52.9532C66.3143 52.889 66.3658 52.8256 66.3851 52.7525C66.4545 52.8124 66.5491 52.8215 66.6535 52.8215C66.7552 52.8215 66.8476 52.8129 66.9164 52.757C66.9699 52.8067 67.0445 52.8325 67.1269 52.8541C67.2055 52.8747 67.2798 52.8884 67.3473 52.8746C67.3719 52.9325 67.4157 52.985 67.4657 53.038C67.5366 53.1131 67.607 53.1753 67.6939 53.1872C67.6965 53.2612 67.7305 53.3343 67.7729 53.4101C67.8227 53.4994 67.8751 53.5766 67.9542 53.611C67.945 53.6628 67.946 53.7199 67.95 53.78C67.9569 53.8843 67.9715 53.9786 68.0304 54.0455C67.9859 54.1037 67.966 54.1821 67.9507 54.2681C67.9292 54.3887 67.9212 54.4986 67.9906 54.5856C67.9425 54.6152 67.8991 54.6596 67.8558 54.7092C67.7878 54.7871 67.7323 54.8636 67.7267 54.9536C67.6551 54.9613 67.5865 55.0012 67.5159 55.0498C67.4194 55.1162 67.339 55.1851 67.3236 55.2919C67.2511 55.2558 67.1645 55.2605 67.0708 55.2736V55.2736Z" fill="#B5838D"/>
<path id="Vector_32" d="M66.846 55.4811C67.6054 55.4811 68.2211 54.8477 68.2211 54.0664C68.2211 53.2851 67.6054 52.6517 66.846 52.6517C66.0866 52.6517 65.4709 53.2851 65.4709 54.0664C65.4709 54.8477 66.0866 55.4811 66.846 55.4811Z" fill="#3F3D56"/>
</g>
<g id="Group_4">
<path id="uuid-fcc96ddd-8a9b-4008-9e3e-ba4d42e134c9-162" d="M43.9068 66.8584C43.243 67.6766 43.1153 68.6922 43.6215 69.1268C44.1277 69.5614 45.076 69.2503 45.7399 68.4317C46.0095 68.1084 46.1999 67.7235 46.2953 67.309L49.0654 63.8056L47.716 62.6821L44.8815 66.0952C44.502 66.2659 44.1678 66.5276 43.9068 66.8584V66.8584Z" fill="#FFB6B6"/>
<path id="Vector_33" d="M56.0133 49.5425L56.9775 53.4715L52.2587 61.2427L47.4415 66.2236L45.8801 64.8909L50.7383 58.6719L54.4209 50.6589L56.0133 49.5425Z" fill="#E6E6E6"/>
</g>
<path id="Vector_34" d="M50.9337 43.0493C51.6615 43.0475 51.7028 43.0525 51.8205 43.0493C52.7231 43.0248 52.9591 42.6595 53.4166 42.6844C54.2332 42.7289 53.1554 46.9408 52.7072 48.888C52.2676 50.7977 53.7532 52.5089 53.86 52.6284C55.3679 54.3156 58.0166 54.6241 58.471 53.9056C58.8389 53.324 57.5352 52.4398 57.8503 51.1687C58.1584 49.9262 59.5809 50.0585 59.9785 48.888C60.3949 47.6621 58.9955 47.0439 58.1163 44.0528C57.6114 42.3351 57.7008 42.015 57.2296 40.951C55.9702 38.1072 49.7974 39.318 50.4904 41.9546C50.6244 42.4646 50.2677 43.0509 50.9337 43.0493V43.0493Z" fill="#2F2E41"/>
</g>
<defs>
<clipPath id="clip0_884_1357">
<rect width="68.8572" height="68.8572" fill="white" transform="translate(0.982178 0.465942)"/>
</clipPath>
</defs>
</svg>
