<svg width="33" height="33" viewBox="0 0 33 33" fill="none" xmlns="http://www.w3.org/2000/svg">
<g id="fa6-solid:face-angry" clip-path="url(#clip0_5_162)">
<path id="Vector" d="M32.3551 16.4788C32.3551 25.4074 25.1189 32.6437 16.1903 32.6437C7.26179 32.6437 0.0255127 25.4074 0.0255127 16.4788C0.0255127 7.55031 7.26179 0.314026 16.1903 0.314026C25.1189 0.314026 32.3551 7.55031 32.3551 16.4788ZM21.4881 23.8856C20.4715 22.7553 18.6971 21.5303 16.1903 21.5303C13.6835 21.5303 11.9092 22.7553 10.8926 23.8856C10.52 24.3024 10.5516 24.8833 10.9683 25.3127C11.3851 25.6852 11.966 25.6536 12.3954 25.2369C13.1342 24.416 14.3907 23.5509 16.1335 23.5509C17.9899 23.5509 19.2465 24.416 19.9853 25.2369C20.3578 25.6536 20.9956 25.6852 21.4123 25.3127C21.8291 24.8833 21.8606 24.3024 21.4881 23.8856ZM11.1641 17.4891C12.2754 17.4891 13.1847 16.5862 13.1847 15.4685C13.1847 15.3738 13.1784 15.2791 13.1657 15.1907L13.8477 15.418C14.3781 15.538 14.9527 15.3044 15.1295 14.7803C15.2495 14.2499 15.0159 13.6753 14.4918 13.4985L8.42995 11.4778C7.89954 11.301 7.32494 11.5915 7.14813 12.1156C6.97133 12.646 7.26179 13.2206 7.78589 13.3974L9.73071 14.0415C9.36448 14.4077 9.14348 14.9129 9.14348 15.4685C9.14348 16.5862 10.0464 17.4891 11.1641 17.4891ZM22.6878 14.0289L24.5948 13.3974C25.1189 13.2206 25.3525 12.646 25.2325 12.1156C25.0557 11.5915 24.4811 11.301 23.9507 11.4778L17.8889 13.4985C17.3648 13.6753 17.0743 14.2499 17.2511 14.7803C17.4279 15.3044 18.0026 15.538 18.533 15.418L19.2654 15.1718C19.2528 15.2665 19.2465 15.3675 19.2465 15.4685C19.2465 16.5862 20.1494 17.4891 21.2671 17.4891C22.3784 17.4891 23.2877 16.5862 23.2877 15.4685C23.2877 14.9066 23.0541 14.3951 22.6878 14.0289Z" fill="#E4C6B5"/>
</g>
<defs>
<clipPath id="clip0_5_162">
<rect width="32.3296" height="32.3296" fill="white" transform="translate(0.0255127 0.314026)"/>
</clipPath>
</defs>
</svg>
