<?xml version="1.0" encoding="utf-8"?>
<!-- Generator: Adobe Illustrator 27.5.0, SVG Export Plug-In . SVG Version: 6.00 Build 0)  -->
<svg version="1.1" xmlns="http://www.w3.org/2000/svg" xmlns:xlink="http://www.w3.org/1999/xlink" x="0px" y="0px"
	 viewBox="0 0 500 500" style="enable-background:new 0 0 500 500;" xml:space="preserve">
<g id="Background_Simple">
	<g>
		<g>
			<path style="fill:#92E3A9;" d="M390.182,186.2c-9.492-3.907-19.146-7.547-27.8-12.399c-8.07-4.526-17.936-9.07-12.297-18.139
				c4.39-7.06,14.06-8.718,10.77-19.134c-5.14-16.271-88.238-39.865-160.2-28.475C132.285,118.874,68.08,174.144,47.312,236.596
				c-5.751,17.296-6.042,38.633,6.919,53.73c8.43,9.818,31.015,19.721,22.923,35.43c-2.631,5.107-7.24,8.99-11.503,12.982
				c-8.233,7.707-12.872,17.101-13.194,28.13c-0.801,27.387,18.992,50.708,41.959,65.079
				c50.556,31.635,102.813,43.026,173.917,32.449c96.411-14.34,182.301-80.578,185.109-178.371
				C454.687,242.673,432.988,203.821,390.182,186.2z"/>
			<path style="opacity:0.5;fill:#FFFFFF;" d="M390.182,186.2c-9.492-3.907-19.146-7.547-27.8-12.399
				c-8.07-4.526-17.936-9.07-12.297-18.139c4.39-7.06,14.06-8.718,10.77-19.134c-5.14-16.271-88.238-39.865-160.2-28.475
				C132.285,118.874,68.08,174.144,47.312,236.596c-5.751,17.296-6.042,38.633,6.919,53.73c8.43,9.818,31.015,19.721,22.923,35.43
				c-2.631,5.107-7.24,8.99-11.503,12.982c-8.233,7.707-12.872,17.101-13.194,28.13c-0.801,27.387,18.992,50.708,41.959,65.079
				c50.556,31.635,102.813,43.026,173.917,32.449c96.411-14.34,182.301-80.578,185.109-178.371
				C454.687,242.673,432.988,203.821,390.182,186.2z"/>
		</g>
		<path style="fill:#263238;" d="M65.651,338.738c-8.233,7.707-12.872,17.101-13.194,28.13
			c-0.801,27.387,18.992,50.708,41.959,65.079c43.807,27.412,88.901,39.611,146.418,35.502V147.495l-0.197-1.769v-40.668
			c-13.337,0.005-26.844,0.914-39.981,2.993C132.285,118.874,68.08,174.144,47.312,236.596c-5.751,17.296-6.042,38.633,6.919,53.73
			c8.43,9.818,31.015,19.721,22.923,35.43C74.524,330.863,69.915,334.746,65.651,338.738z"/>
	</g>
</g>
<g id="Plants">
	<g>
		<path style="fill:#263238;" d="M403.939,398.903c1.41-1.424,2.804-2.86,4.165-4.323c-0.348-2.09-1.243-4.707-2.599-6.628
			c-0.01-0.322-0.048-0.642-0.119-0.958c-0.555-2.482-3.024-4.201-5.54-3.364c-3.492,1.161-5.364,7.528-5.333,10.814
			c0.001,0.194,0.257,2.295,0.439,3.618c-0.226-0.761-0.436-1.503-0.678-2.284c-0.468-1.547-0.98-3.078-1.525-4.726
			c-0.291-0.787-0.586-1.581-0.883-2.384c-0.277-0.802-0.673-1.614-1.008-2.431c-0.819-1.876-1.74-3.739-2.71-5.594
			c1.354-0.413,6.141-1.948,8.002-3.565c1.852-1.609,3.766-4.175,3.589-6.767c-0.173-2.538-2.352-4.611-4.966-4.165
			c-3.627,0.619-6.443,6.629-6.91,9.882c-0.029,0.203-0.102,2.574-0.117,3.878c-0.592-1.111-1.176-2.222-1.811-3.327
			c-1.832-3.188-3.786-6.357-5.721-9.528c-0.594-0.971-1.172-1.945-1.757-2.919c0.483-0.141,6.213-1.844,8.297-3.654
			c1.853-1.609,3.766-4.175,3.59-6.767c-0.173-2.538-2.352-4.611-4.965-4.165c-3.628,0.619-6.443,6.629-6.91,9.882
			c-0.035,0.245-0.135,3.658-0.118,4.527c-1.285-2.144-2.545-4.293-3.702-6.461c-1.6-2.99-3.005-6.012-4.149-9.041
			c0.225-0.065,6.212-1.815,8.348-3.67c1.853-1.609,3.766-4.175,3.59-6.766c-0.173-2.538-2.352-4.611-4.966-4.165
			c-3.628,0.619-6.443,6.629-6.91,9.881c-0.031,0.214-0.109,2.815-0.118,4.052c-0.114,0.019-0.093,0.016-0.207,0.035
			c-1.187-3.259-1.926-6.566-2.466-9.696c-0.316-1.812-0.517-3.561-0.673-5.268c1.149-0.211,6.387-1.236,8.493-2.693
			c2.018-1.396,4.202-3.736,4.311-6.331c0.107-2.542-1.832-4.841-4.479-4.685c-3.673,0.217-7.131,5.882-7.953,9.063
			c-0.045,0.173-0.304,1.982-0.475,3.303c-0.059-0.771-0.134-1.566-0.176-2.306c-0.164-2.778-0.143-5.332-0.106-7.594
			c0.031-1.286,0.085-2.448,0.147-3.535c1.019-0.796,5.084-4.053,6.261-6.276c1.148-2.169,2.007-5.252,0.908-7.606
			c-1.077-2.305-3.857-3.452-6.134-2.094c-3.16,1.885-3.619,8.506-2.882,11.709c0.064,0.277,1.557,4.491,1.611,4.449
			c0,0,0.05-0.039,0.062-0.048c-0.081,1.044-0.155,2.166-0.211,3.392c-0.086,2.266-0.163,4.826-0.059,7.618
			c0.097,2.791,0.281,5.82,0.763,8.993c0.479,3.182,1.144,6.504,2.273,9.838c0.013,0.038,0.031,0.075,0.044,0.113
			c-0.633-0.872-2.485-3.253-2.647-3.42c-2.297-2.35-8.117-5.54-11.41-3.899c-2.373,1.183-2.909,4.142-1.55,6.293
			c1.387,2.196,4.446,3.138,6.892,3.344c2.758,0.232,8.411-1.787,8.86-1.949c1.104,3.166,2.494,6.324,4.077,9.443
			c0.903,1.784,1.868,3.553,2.858,5.315c-0.571-0.737-1.088-1.392-1.17-1.475c-2.297-2.35-8.117-5.54-11.411-3.898
			c-2.373,1.182-2.909,4.142-1.55,6.292c1.387,2.197,4.446,3.138,6.891,3.344c2.482,0.209,7.335-1.415,8.614-1.863
			c0.387,0.672,0.766,1.347,1.155,2.017c1.868,3.216,3.747,6.418,5.492,9.614c0.616,1.126,1.181,2.258,1.751,3.388
			c-0.509-0.654-0.942-1.201-1.017-1.277c-2.297-2.35-8.117-5.54-11.41-3.899c-2.373,1.183-2.909,4.142-1.55,6.293
			c1.388,2.196,4.446,3.138,6.892,3.343c2.368,0.199,6.861-1.259,8.384-1.784c0.548,1.175,1.099,2.351,1.578,3.514
			c0.309,0.802,0.661,1.552,0.927,2.375c0.279,0.809,0.556,1.609,0.831,2.402c0.472,1.547,0.969,3.139,1.391,4.66
			c0.302,1.055,0.57,2.066,0.843,3.084c-0.6-1.128-1.821-3.312-1.944-3.483c-1.914-2.671-7.184-6.706-10.688-5.582
			c-2.524,0.81-3.503,3.654-2.486,5.985c1.039,2.381,3.919,3.776,6.306,4.35c2.627,0.632,8.295-0.437,9.001-0.575
			c0.446,1.685,0.864,3.329,1.233,4.887c0.184,0.768,0.354,1.505,0.519,2.231c0.628-0.56,1.25-1.125,1.87-1.692
			c-0.092-0.357-0.178-0.703-0.274-1.069c-0.446-1.714-0.957-3.536-1.499-5.401c0.418-0.197,2.794-1.33,4.879-2.667
			C401.029,397.268,402.513,398.155,403.939,398.903z"/>
		<path style="fill:#263238;" d="M440.541,304.861c-3.676-0.171-7.711,5.098-8.863,8.176c-0.099,0.266-1.179,4.605-1.111,4.6
			c0,0,0.063-0.005,0.078-0.006c-0.643,0.827-1.324,1.721-2.047,2.713c-1.322,1.842-2.799,3.935-4.252,6.322
			c-1.459,2.381-2.977,5.009-4.325,7.922c-1.356,2.917-2.633,6.056-3.531,9.459c-0.01,0.038-0.016,0.08-0.026,0.118
			c-0.047-1.077-0.277-4.085-0.322-4.313c-0.619-3.227-3.713-9.099-7.366-9.547c-2.632-0.322-4.711,1.85-4.765,4.393
			c-0.054,2.597,1.977,5.07,3.903,6.591c2.172,1.715,8,3.149,8.465,3.262c-0.825,3.249-1.408,6.651-1.809,10.126
			c-0.231,1.986-0.402,3.994-0.548,6.01c-0.07-0.93-0.14-1.761-0.162-1.876c-0.62-3.227-3.714-9.098-7.366-9.546
			c-2.632-0.323-4.712,1.85-4.765,4.393c-0.055,2.597,1.977,5.07,3.903,6.591c1.955,1.543,6.899,2.866,8.212,3.198
			c-0.047,0.774-0.104,1.546-0.149,2.32c-0.216,3.713-0.416,7.419-0.723,11.048c-0.107,1.279-0.261,2.535-0.409,3.792
			c-0.064-0.826-0.123-1.521-0.143-1.626c-0.62-3.227-3.713-9.099-7.366-9.546c-2.631-0.323-4.711,1.85-4.765,4.393
			c-0.054,2.597,1.977,5.07,3.904,6.59c1.865,1.473,6.418,2.734,7.977,3.137c-0.191,1.282-0.38,2.567-0.623,3.801
			c-0.185,0.839-0.305,1.66-0.537,2.492c-0.185,0.721-0.368,1.432-0.55,2.14c0.871-0.972,1.729-1.954,2.577-2.943
			c0.08-0.447,0.155-0.9,0.242-1.346c0.352-2.017,0.611-4.078,0.826-6.161c0.719,0.213,2.417,0.694,4.217,1.053
			c2.499-3.199,4.883-6.479,7.15-9.836c-3.261,0.159-7.295,2.794-9.059,4.778c-0.136,0.153-1.505,2.091-2.237,3.17
			c0.119-1.253,0.245-2.502,0.324-3.774c0.231-3.669,0.35-7.391,0.485-11.103c0.041-1.137,0.095-2.269,0.145-3.404
			c0.481,0.148,6.198,1.889,8.936,1.529c2.433-0.32,5.444-1.405,6.727-3.664c1.256-2.212,0.582-5.143-1.844-6.213
			c-3.367-1.485-9.031,1.975-11.214,4.43c-0.165,0.185-2.131,2.976-2.596,3.711c0.112-2.497,0.245-4.984,0.477-7.431
			c0.315-3.376,0.811-6.672,1.527-9.829c0.224,0.07,6.183,1.914,8.987,1.544c2.433-0.32,5.444-1.404,6.727-3.664
			c1.256-2.212,0.582-5.143-1.844-6.213c-3.367-1.485-9.031,1.975-11.214,4.43c-0.144,0.161-1.643,2.286-2.333,3.313
			c-0.106-0.047-0.086-0.038-0.192-0.085c0.808-3.373,2.016-6.538,3.292-9.445c0.736-1.685,1.534-3.255,2.345-4.765
			c1.075,0.457,6.009,2.492,8.569,2.439c2.454-0.051,5.565-0.798,7.089-2.902c1.492-2.061,1.143-5.048-1.151-6.378
			c-3.184-1.846-9.193,0.971-11.633,3.171c-0.133,0.12-1.347,1.486-2.218,2.493c0.376-0.676,0.752-1.38,1.125-2.021
			c1.396-2.407,2.822-4.526,4.1-6.392c0.736-1.055,1.422-1.995,2.073-2.867c1.289-0.101,6.476-0.576,8.684-1.78
			c2.154-1.176,4.571-3.273,4.953-5.843C444.875,307.475,443.189,304.984,440.541,304.861z"/>
		<path style="fill:#263238;" d="M413.314,316.583c-0.738,2.491,0.568,5.412,2.024,7.388c1.71,2.319,7.377,5.423,7.381,5.425
			c0.059,0.032,0.912-4.356,0.934-4.639c0.254-3.276-1.179-9.756-4.584-11.152C416.617,312.598,414.037,314.145,413.314,316.583z"/>
		<path style="fill:#263238;" d="M351.656,326.901c0.758,2.485,3.459,4.201,5.764,5.045c2.706,0.991,9.145,0.453,9.149,0.453
			c0.067-0.005-1.642-4.136-1.78-4.385c-1.595-2.873-6.366-7.487-9.976-6.774C352.212,321.756,350.914,324.469,351.656,326.901z"/>
	</g>
</g>
<g id="Character_2">
	<g>
		<path style="fill:#FFFFFF;stroke:#263238;stroke-miterlimit:10;" d="M240.637,366.369v101.094
			c8.922-0.632,18.134-1.644,27.696-3.066c42.769-6.362,83.46-22.943,115.754-47.955l-85.973-49.389L240.637,366.369z"/>
		<path style="fill:#92E3A9;stroke:#263238;stroke-miterlimit:10;" d="M240.637,417.206c2.37-3.161,5.951-9.22,5.951-9.22
			s1.926,2.889,9.631,13.002c7.705,10.113,11.076,20.225,13.965,19.262c2.889-0.963,20.707-22.152,30.338-37.08
			c9.631-14.928,7.853-27.7,7.853-30.59c0-2.889-15.076-31.531-17.484-34.421c-2.408-2.889-17.818-3.853-19.262-3.853
			c-0.608,0-14.781,0.427-30.992,0.921V417.206z"/>
		<path style="fill:#FFFFFF;stroke:#263238;stroke-miterlimit:10;" d="M282.705,319.379c0,0-23.098,8.993-42.068,9.707v78.963
			c0.714-1.881,1.646-3.945,2.58-4.879c1.926-1.926,23.115-19.262,30.338-26.486c7.223-7.223,9.15-11.557,9.15-11.557V319.379z"/>
		<g>
			<path style="fill:#263238;stroke:#263238;stroke-linecap:round;stroke-linejoin:round;stroke-miterlimit:10;" d="
				M240.637,329.086v78.963c0,0,0,0,0,0c0.714-1.881,1.646-3.945,2.58-4.879c0.802-0.802,4.942-4.275,10.021-8.574
				c9.526-23.204,24.655-60.331,29.466-73.7v-1.516C282.705,319.379,259.607,328.372,240.637,329.086z"/>
		</g>
		<g>
			<g>
				<path style="fill:#FFFFFF;stroke:#263238;stroke-miterlimit:10;" d="M240.637,357.823c16.196-1.662,20.598-10.652,32.918-19.181
					c12.521-8.668,15.891-16.373,19.262-25.522c3.371-9.15,5.779-24.078,5.779-24.078s10.594,1.445,14.928-10.594
					c4.334-12.039,10.594-27.449,6.742-35.154c-3.852-7.705-15.891-3.371-15.891-3.371s8.187-16.854,13.002-32.264
					c4.815-15.41-9.631-37.561-14.928-41.414c-5.297-3.852-9.15-6.742-9.15-6.742s-16.282-29.682-52.662-13.14V357.823z"/>
				<g>
					<path style="fill:#263238;stroke:#263238;stroke-linecap:round;stroke-linejoin:round;stroke-miterlimit:10;" d="
						M269.232,256.536c0,3.856-1.833,6.983-4.093,6.983s-4.093-3.126-4.093-6.983c0-3.856,1.833-6.983,4.093-6.983
						S269.232,252.68,269.232,256.536z"/>
					<path style="fill:#FFFFFF;" d="M266.642,252.776c0,1.018-0.6,1.844-1.341,1.844c-0.741,0-1.341-0.826-1.341-1.844
						c0-1.018,0.6-1.844,1.341-1.844C266.041,250.932,266.642,251.758,266.642,252.776z"/>
				</g>
				<path style="fill:#263238;stroke:#263238;stroke-linecap:round;stroke-linejoin:round;stroke-miterlimit:10;" d="
					M255.102,237.457c4.623,0.043,13.922,0.915,23.462,6.366c0,0,4.816,0.482,2.889-3.852c-1.926-4.334-14.447-7.705-22.152-7.705
					c-5.137,0-6.849-0.214-7.277,1.355C251.496,235.557,253.095,237.438,255.102,237.457z"/>
				<path style="fill:none;stroke:#263238;stroke-linecap:round;stroke-linejoin:round;stroke-miterlimit:10;" d="M262.961,267.853
					c0,0,5.297-2.408,12.039-3.853"/>
				<path style="fill:none;stroke:#263238;stroke-linecap:round;stroke-linejoin:round;stroke-miterlimit:10;" d="M315.932,258.703
					c0,0,1.445-11.076-6.742-8.668c-8.186,2.408-7.705,11.557-7.705,11.557s4.816,2.408,1.445,5.779
					c-3.371,3.371-4.334,3.371-2.889,6.26"/>
				<path style="fill:none;stroke:#263238;stroke-linecap:round;stroke-linejoin:round;stroke-miterlimit:10;" d="M301.486,261.592
					c0,0,8.186-6.26,9.631,3.853"/>
				<path style="fill:none;stroke:#263238;stroke-linecap:round;stroke-linejoin:round;stroke-miterlimit:10;" d="M239.846,297.709
					c0,0,5.779,1.926,10.113,0c4.334-1.926,6.742-4.815,7.223-8.186"/>
				<path style="fill:#FFFFFF;stroke:#263238;stroke-linecap:round;stroke-linejoin:round;stroke-miterlimit:10;" d="
					M239.846,309.095c1.926,0.482,16.373,0.482,22.633-1.926c6.26-2.408,10.594-8.668,10.594-8.668s-1.926,8.186-13.002,13.484
					c-11.076,5.297-19.744,3.852-19.744,3.852L239.846,309.095z"/>
			</g>
			<g>
				<path style="fill:#263238;stroke:#263238;stroke-linecap:round;stroke-linejoin:round;stroke-miterlimit:10;" d="
					M302.449,166.244c-5.297-3.852-9.15-6.742-9.15-6.742s-16.373-29.856-52.971-13.002v85.809
					c3.785-1.287,11.249-4.273,22.152-10.686c16.373-9.631,17.336-13.002,17.336-13.002s-3.852,13.002-2.408,19.262
					c1.445,6.26,9.149,11.557,11.076,12.039c1.926,0.482,2.408,15.891,7.223,13.002c4.816-2.889,8.668-13.002,8.668-13.002
					s8.187-16.854,13.002-32.264C322.193,192.248,307.746,170.096,302.449,166.244z"/>
				<path style="fill:none;stroke:#737373;stroke-linecap:round;stroke-linejoin:round;stroke-miterlimit:10;" d="M256.807,212.654
					c5.529-2.376,11.679-5.545,15.788-9.222c9.15-8.186,15.888-22.742,15.888-22.742"/>
				<path style="fill:none;stroke:#737373;stroke-linecap:round;stroke-linejoin:round;stroke-miterlimit:10;" d="M244.18,217.289
					c0,0,1.928-0.568,4.854-1.603"/>
				<path style="fill:none;stroke:#737373;stroke-linecap:round;stroke-linejoin:round;stroke-miterlimit:10;" d="M278.217,181.521
					c1.817-1.666,3.646-3.539,5.451-5.646"/>
				<path style="fill:none;stroke:#737373;stroke-linecap:round;stroke-linejoin:round;stroke-miterlimit:10;" d="M253.33,194.656
					c0,0,9.951-1.206,21.263-10.062"/>
				<path style="fill:none;stroke:#737373;stroke-linecap:round;stroke-linejoin:round;stroke-miterlimit:10;" d="M279.822,157.76
					c-5.833-2.477-13.785-4.636-21.195-2.592"/>
				<path style="fill:none;stroke:#737373;stroke-linecap:round;stroke-linejoin:round;stroke-miterlimit:10;" d="M288.484,162.392
					c0,0-1.36-0.948-3.634-2.192"/>
				<path style="fill:none;stroke:#737373;stroke-linecap:round;stroke-linejoin:round;stroke-miterlimit:10;" d="M292.764,228.788
					c2.726,2.282,5.126,2.282,5.126,2.282"/>
				<path style="fill:none;stroke:#737373;stroke-linecap:round;stroke-linejoin:round;stroke-miterlimit:10;" d="M294.611,182.822
					c0,0-10.774,27.637-7.026,37.943c0.594,1.634,1.259,3.009,1.957,4.165"/>
			</g>
		</g>
	</g>
</g>
<g id="Character_1">
	<g>
		<g>
			<path style="fill:#B0B0B0;stroke:#263238;stroke-linecap:round;stroke-linejoin:round;stroke-miterlimit:10;" d="
				M240.637,366.369l-63.875-0.76L74.739,416.388c5.932,5.929,12.654,11.165,19.678,15.56
				c43.757,27.381,88.799,39.582,146.221,35.515V366.369z"/>
		</g>
		<g>
			<path style="fill:#B0B0B0;stroke:#263238;stroke-linecap:round;stroke-linejoin:round;stroke-miterlimit:10;" d="
				M192.172,336.715c0,0-10.594,1.445-12.039,3.852c-1.445,2.408-12.52,26.967-12.52,26.967s13.965,39.969,17.336,49.6
				c3.371,9.631,11.557,20.225,11.557,20.225s28.893-30.338,30.338-31.301c1.445-0.963,2.889-0.963,5.297,1.926
				c2.408,2.889,5.297,11.557,6.742,11.076c0.352-0.117,0.991-0.84,1.754-1.857v-81.976
				C218.333,335.908,192.172,336.715,192.172,336.715z"/>
		</g>
		<g>
			<path style="fill:#B0B0B0;stroke:#263238;stroke-linecap:round;stroke-linejoin:round;stroke-miterlimit:10;" d="
				M240.637,329.086c-5.063,0.191-9.836-0.202-13.793-1.521c-18.781-6.26-36.598-13.002-36.598-13.002s0,38.525,0,43.822
				c0,5.297,20.225,26.004,27.93,32.264c7.705,6.26,14.928,11.076,16.373,13.965c1.445,2.889,4.815,7.223,4.815,7.223
				s0.513-1.791,1.272-3.789V329.086z"/>
		</g>
		<path style="fill:#263238;stroke:#263238;stroke-linecap:round;stroke-linejoin:round;stroke-miterlimit:10;" d="M239.379,411.789
			c0.072-0.247,0.558-1.897,1.258-3.74c0,0,0,0,0,0v-78.963c-1.755,0.066-3.472,0.058-5.134-0.032
			c-0.165-0.009-0.333-0.014-0.497-0.025c-0.383-0.025-0.76-0.059-1.136-0.093c-0.282-0.025-0.563-0.051-0.842-0.082
			c-0.323-0.036-0.643-0.077-0.96-0.121c-0.331-0.045-0.657-0.096-0.981-0.149c-0.274-0.046-0.547-0.091-0.815-0.143
			c-0.381-0.073-0.752-0.156-1.122-0.242c-0.208-0.048-0.42-0.092-0.625-0.145c-0.574-0.147-1.136-0.307-1.68-0.489
			c-0.559-0.186-1.116-0.373-1.673-0.56c-0.185-0.062-0.368-0.124-0.552-0.186c-0.373-0.126-0.747-0.251-1.118-0.377
			c-0.211-0.071-0.421-0.143-0.632-0.214c-0.346-0.117-0.692-0.235-1.036-0.352c-0.217-0.074-0.434-0.148-0.651-0.222
			c-0.335-0.114-0.669-0.228-1.002-0.342c-0.216-0.074-0.431-0.148-0.646-0.222c-0.336-0.115-0.67-0.23-1.004-0.345
			c-0.209-0.072-0.418-0.144-0.626-0.216c-0.338-0.117-0.674-0.233-1.009-0.349c-0.202-0.07-0.404-0.14-0.605-0.21
			c-0.367-0.128-0.731-0.254-1.094-0.381c-0.153-0.054-0.308-0.107-0.46-0.16c-0.433-0.151-0.861-0.301-1.288-0.451
			c-0.094-0.033-0.189-0.066-0.282-0.099c-0.525-0.184-1.044-0.367-1.559-0.548c-0.018-0.007-0.036-0.013-0.055-0.019
			c-0.493-0.174-0.98-0.346-1.462-0.517c-0.101-0.036-0.2-0.071-0.301-0.107c-0.392-0.139-0.782-0.277-1.167-0.414
			c-0.14-0.05-0.277-0.099-0.416-0.148c-0.335-0.119-0.668-0.238-0.996-0.355c-0.166-0.059-0.331-0.118-0.495-0.177
			c-0.309-0.111-0.615-0.22-0.919-0.329c-0.16-0.057-0.318-0.114-0.476-0.171c-0.287-0.103-0.57-0.205-0.85-0.306
			c-0.171-0.062-0.342-0.123-0.511-0.184c-0.296-0.107-0.587-0.212-0.876-0.316c-0.124-0.045-0.251-0.091-0.374-0.135
			c-0.825-0.298-1.621-0.587-2.383-0.864c-0.027-0.01-0.055-0.02-0.082-0.03c-0.401-0.146-0.791-0.288-1.172-0.428
			c-0.014-0.005-0.027-0.01-0.041-0.015c-0.361-0.132-0.713-0.261-1.056-0.386c-0.062-0.023-0.121-0.044-0.183-0.067
			c-0.267-0.098-0.53-0.194-0.785-0.288c-0.142-0.052-0.278-0.102-0.416-0.153c-0.181-0.067-0.359-0.132-0.533-0.196
			c-0.128-0.047-0.253-0.093-0.377-0.139c-0.178-0.066-0.351-0.13-0.521-0.192c-0.142-0.052-0.28-0.103-0.416-0.154
			c-0.125-0.046-0.246-0.091-0.367-0.136c-0.137-0.051-0.274-0.102-0.405-0.15c-0.124-0.046-0.242-0.09-0.36-0.134
			c-0.13-0.048-0.261-0.097-0.384-0.142c-0.065-0.024-0.124-0.046-0.188-0.07c-1.001-0.372-1.755-0.655-2.225-0.831
			c3.053,12.317,12.115,46.697,18.489,67.697c0.858,0.85,1.701,1.671,2.516,2.452c0.04,0.039,0.079,0.075,0.119,0.114
			c0.349,0.334,0.693,0.661,1.031,0.979c0.087,0.082,0.173,0.162,0.26,0.243c0.285,0.268,0.567,0.53,0.842,0.784
			c0.107,0.099,0.213,0.196,0.319,0.293c0.248,0.228,0.491,0.449,0.73,0.665c0.115,0.104,0.229,0.207,0.341,0.308
			c0.224,0.201,0.441,0.394,0.656,0.583c0.111,0.098,0.223,0.198,0.331,0.292c0.218,0.191,0.427,0.37,0.633,0.546
			c0.089,0.076,0.183,0.158,0.27,0.232c0.287,0.243,0.563,0.473,0.823,0.684c6.26,5.086,12.203,9.219,14.986,12.14
			c0.214,0.225,0.41,0.442,0.585,0.652c0.351,0.42,0.622,0.812,0.802,1.173c0.271,0.542,0.609,1.134,0.981,1.74
			c0.495,0.807,1.049,1.637,1.578,2.398c1.19,1.714,2.257,3.085,2.257,3.085C239.365,411.838,239.373,411.809,239.379,411.789z"/>
		<g>
			<path style="fill:#B0B0B0;stroke:#263238;stroke-linecap:round;stroke-linejoin:round;stroke-miterlimit:10;" d="
				M240.753,146.311c-0.142,0.064-0.282,0.124-0.425,0.189c0,0-10.113-7.223-17.818-8.668c-7.705-1.445-12.52,1.445-10.113,3.852
				c2.408,2.408,4.816,6.26,4.816,6.26s-19.744-1.445-30.82,4.816c-11.076,6.26-12.52,7.705-7.705,6.742
				c4.816-0.963,11.076-1.445,11.076-1.445s-19.262,11.076-23.115,26.004c-3.852,14.928,7.705,34.672,9.15,40.451
				c1.445,5.779,1.926,14.928,1.926,17.336c0,2.408,0.963,4.334,0.963,4.334s-14.928-9.15-19.744-3.371
				c-4.816,5.779-3.662,31.143,3.079,40.292c6.742,9.15,16.183,5.937,16.183,5.937s1.445,17.336,7.223,26.486
				c5.779,9.15,26.967,30.338,33.227,35.154c6.26,4.816,16.296,7.643,21.188,7.223c0.274-0.023,0.523-0.063,0.791-0.091v-211.45
				c0.039-0.018,0.077-0.034,0.116-0.051V146.311z"/>
		</g>
		<g>
			<path style="fill:#263238;stroke:#263238;stroke-linecap:round;stroke-linejoin:round;stroke-miterlimit:10;" d="
				M240.328,191.285h-40.932c0,0-5.779,6.26-6.26,22.151c-0.482,15.891,0,28.412,0,28.412s-3.852,18.299,0,28.893
				c3.853,10.594,8.668,15.891,8.668,25.041c0,9.15-4.334,16.854-2.408,25.522c1.425,6.413,4.956,14.138,6.699,17.727
				c5.271,5.271,10.087,9.743,12.563,11.648c6.26,4.816,16.296,7.643,21.188,7.223c0.164-0.014,0.32-0.034,0.482-0.049V191.285z"/>
			<path style="fill:#B0B0B0;stroke:#263238;stroke-linecap:round;stroke-linejoin:round;stroke-miterlimit:10;" d="
				M240.637,145.727c-3.658-2.185-12.346-6.81-18.127-7.894c-7.705-1.445-12.52,1.445-10.113,3.852
				c2.408,2.408,4.816,6.26,4.816,6.26s-19.744-1.445-30.82,4.816c-11.076,6.26-12.521,7.705-7.705,6.742
				c4.816-0.963,11.076-1.445,11.076-1.445s-19.262,11.076-23.115,26.004c-3.852,14.928,7.705,34.672,9.15,40.451
				s1.926,14.928,1.926,17.336c0,2.408,0.963,4.334,0.963,4.334l4.816,8.186c0,0,8.668-6.26,11.557-7.705
				c2.889-1.445,6.26-5.779,6.26-10.594c0-4.816-1.445-12.039-1.445-12.039l2.408-1.926l3.371-4.334l-2.408,9.631l8.668-4.334
				c0,0-1.445,6.742-1.926,10.113c-0.482,3.371-3.853,8.186-3.853,8.186s8.668-2.889,13.002-6.26
				c4.334-3.371,10.113-11.076,10.113-11.076s-0.482,4.816-0.963,6.742c-0.482,1.926-12.916,16.178-12.916,16.178
				s7.619-0.286,14.842-6.065c4.485-3.588,8.227-6.342,10.422-7.915V145.727z"/>
			<path style="fill:#263238;stroke:#263238;stroke-linecap:round;stroke-linejoin:round;stroke-miterlimit:10;" d="
				M184.467,270.742c0,0-1.926-11.076-8.186-16.373c-6.26-5.297-11.557-4.816-14.447,0.963c-2.889,5.779-1.336,13.935,1.072,21.158
				c2.408,7.223,5.188,7.254,9.041,7.254c3.852,0,6.26,0,6.26,0s5.297,4.334,5.779,13.002c0.482,8.668-0.481,15.891,4.334,13.484
				c4.816-2.408,7.223-19.262,3.371-26.967C187.838,275.557,185.43,272.668,184.467,270.742z"/>
		</g>
		<path style="fill:#263238;stroke:#263238;stroke-linecap:round;stroke-linejoin:round;stroke-miterlimit:10;" d="M185.912,400.28
			c0.963,8.668,1.926,22.152,1.926,22.152l-14.928-38.525c0,0-73.197,36.117-78.494,40.451c-1.097,0.898-2.048,2.984-2.873,5.728
			c0.952,0.635,1.909,1.257,2.873,1.861c43.188,27.025,87.627,39.261,146.217,35.665v-55.775c0,0-7.047-13.002-16.197-19.262
			c-9.15-6.26-15.133-10.101-15.133-10.101s-10.576-10.486-16.41-18.357l-13.046,1.527
			C180.941,377.669,185.231,394.15,185.912,400.28z"/>
		<path style="fill:#263238;stroke:#263238;stroke-linecap:round;stroke-linejoin:round;stroke-miterlimit:10;" d="M190.268,344.099
			c0,0-5.579,2.297-4.595,5.907c0.985,3.61,4.572,8.379,4.572,8.379L190.268,344.099z"/>
		<path style="fill:#263238;stroke:#263238;stroke-linecap:round;stroke-linejoin:round;stroke-miterlimit:10;" d="M240.753,163.175
			c-1.062-1.6-3.673-4.893-8.534-7.451c-6.664-3.508-8.067,1.052-5.612,4.56c2.455,3.507,4.209,5.963,4.209,5.963
			s-17.538-5.612-27.008-2.806c-9.47,2.806-1.754,4.209,1.052,5.612c2.806,1.403,5.612,2.104,5.612,2.104
			s-19.993,3.858-28.762,14.381c-8.769,10.523-4.56,23.5-2.104,28.411c2.455,4.911,5.612,16.486,4.911,21.396
			c-0.702,4.911-2.806,7.717-2.105,9.47c0.702,1.754,0,5.963,2.455,4.56c2.455-1.403,9.12-4.56,10.873-8.418
			c1.754-3.858-1.052-9.47-1.052-13.679c0-4.209,0-5.612,0-5.612s1.403,0,5.963-3.858c4.56-3.858,6.664-8.769,8.067-7.015
			c1.403,1.754-4.209,11.926-0.701,11.224c3.507-0.701,8.067-4.209,8.067-4.209s0.351,5.261-0.702,10.172
			c-1.052,4.91-2.806,9.119-2.806,9.119s10.873-7.716,13.679-12.627c2.806-4.911,5.261-7.015,5.261-7.015s1.754,5.963,1.754,9.47
			c0,3.508-1.052,6.314-3.157,8.769c-2.104,2.455-3.858,3.858-3.858,3.858s5.612-1.052,10.172-8.067
			c2.866-4.409,3.929-6.876,4.325-8.102V163.175z"/>
	</g>
</g>
<g id="Rain">
	<g>
		
			<line style="fill:none;stroke:#F0F0F0;stroke-linecap:round;stroke-linejoin:round;stroke-miterlimit:10;" x1="87.347" y1="152.476" x2="91.698" y2="198.883"/>
		
			<line style="fill:none;stroke:#F0F0F0;stroke-linecap:round;stroke-linejoin:round;stroke-miterlimit:10;" x1="83.722" y1="216.286" x2="88.797" y2="261.243"/>
		
			<line style="fill:none;stroke:#F0F0F0;stroke-linecap:round;stroke-linejoin:round;stroke-miterlimit:10;" x1="106.2" y1="164.078" x2="112.726" y2="215.561"/>
		
			<line style="fill:none;stroke:#F0F0F0;stroke-linecap:round;stroke-linejoin:round;stroke-miterlimit:10;" x1="126.503" y1="140.149" x2="132.304" y2="253.992"/>
		
			<line style="fill:none;stroke:#F0F0F0;stroke-linecap:round;stroke-linejoin:round;stroke-miterlimit:10;" x1="109.1" y1="248.191" x2="114.901" y2="315.626"/>
		
			<line style="fill:none;stroke:#F0F0F0;stroke-linecap:round;stroke-linejoin:round;stroke-miterlimit:10;" x1="155.508" y1="129.998" x2="155.508" y2="177.855"/>
		
			<line style="fill:none;stroke:#F0F0F0;stroke-linecap:round;stroke-linejoin:round;stroke-miterlimit:10;" x1="183.787" y1="108.969" x2="183.787" y2="136.524"/>
		
			<line style="fill:none;stroke:#F0F0F0;stroke-linecap:round;stroke-linejoin:round;stroke-miterlimit:10;" x1="59.068" y1="251.816" x2="62.693" y2="282.271"/>
		
			<line style="fill:none;stroke:#F0F0F0;stroke-linecap:round;stroke-linejoin:round;stroke-miterlimit:10;" x1="96.049" y1="306.199" x2="99.674" y2="370.734"/>
		
			<line style="fill:none;stroke:#F0F0F0;stroke-linecap:round;stroke-linejoin:round;stroke-miterlimit:10;" x1="70.67" y1="354.782" x2="71.395" y2="391.038"/>
		
			<line style="fill:none;stroke:#F0F0F0;stroke-linecap:round;stroke-linejoin:round;stroke-miterlimit:10;" x1="129.404" y1="352.607" x2="133.029" y2="414.241"/>
		
			<line style="fill:none;stroke:#F0F0F0;stroke-linecap:round;stroke-linejoin:round;stroke-miterlimit:10;" x1="156.958" y1="412.066" x2="159.858" y2="447.596"/>
		
			<line style="fill:none;stroke:#F0F0F0;stroke-linecap:round;stroke-linejoin:round;stroke-miterlimit:10;" x1="147.531" y1="275.02" x2="149.707" y2="331.578"/>
		
			<line style="fill:none;stroke:#F0F0F0;stroke-linecap:round;stroke-linejoin:round;stroke-miterlimit:10;" x1="148.982" y1="205.409" x2="151.157" y2="231.513"/>
		
			<line style="fill:none;stroke:#F0F0F0;stroke-linecap:round;stroke-linejoin:round;stroke-miterlimit:10;" x1="212.066" y1="120.571" x2="214.242" y2="177.855"/>
		
			<line style="fill:none;stroke:#F0F0F0;stroke-linecap:round;stroke-linejoin:round;stroke-miterlimit:10;" x1="205.54" y1="182.931" x2="209.166" y2="259.792"/>
		
			<line style="fill:none;stroke:#F0F0F0;stroke-linecap:round;stroke-linejoin:round;stroke-miterlimit:10;" x1="220.042" y1="255.442" x2="222.218" y2="288.797"/>
		
			<line style="fill:none;stroke:#F0F0F0;stroke-linecap:round;stroke-linejoin:round;stroke-miterlimit:10;" x1="212.066" y1="322.152" x2="215.692" y2="360.583"/>
		
			<line style="fill:none;stroke:#F0F0F0;stroke-linecap:round;stroke-linejoin:round;stroke-miterlimit:10;" x1="200.464" y1="381.611" x2="204.09" y2="420.042"/>
		
			<line style="fill:none;stroke:#F0F0F0;stroke-linecap:round;stroke-linejoin:round;stroke-miterlimit:10;" x1="193.213" y1="433.819" x2="196.114" y2="460.648"/>
		<g>
			
				<line style="fill:none;stroke:#F0F0F0;stroke-linecap:round;stroke-linejoin:round;stroke-miterlimit:10;" x1="86.622" y1="408.44" x2="82.271" y2="406.265"/>
			
				<line style="fill:none;stroke:#F0F0F0;stroke-linecap:round;stroke-linejoin:round;stroke-miterlimit:10;" x1="93.873" y1="406.99" x2="98.224" y2="400.464"/>
			
				<line style="fill:none;stroke:#F0F0F0;stroke-linecap:round;stroke-linejoin:round;stroke-miterlimit:10;" x1="89.522" y1="404.089" x2="84.447" y2="399.014"/>
			
				<line style="fill:none;stroke:#F0F0F0;stroke-linecap:round;stroke-linejoin:round;stroke-miterlimit:10;" x1="91.698" y1="400.464" x2="93.873" y2="396.838"/>
		</g>
		<g>
			
				<line style="fill:none;stroke:#F0F0F0;stroke-linecap:round;stroke-linejoin:round;stroke-miterlimit:10;" x1="141.382" y1="382.615" x2="137.031" y2="380.439"/>
			
				<line style="fill:none;stroke:#F0F0F0;stroke-linecap:round;stroke-linejoin:round;stroke-miterlimit:10;" x1="148.633" y1="381.164" x2="152.984" y2="374.638"/>
			
				<line style="fill:none;stroke:#F0F0F0;stroke-linecap:round;stroke-linejoin:round;stroke-miterlimit:10;" x1="144.282" y1="378.264" x2="139.207" y2="373.188"/>
			
				<line style="fill:none;stroke:#F0F0F0;stroke-linecap:round;stroke-linejoin:round;stroke-miterlimit:10;" x1="146.458" y1="374.638" x2="148.633" y2="371.013"/>
		</g>
		<g>
			
				<line style="fill:none;stroke:#F0F0F0;stroke-linecap:round;stroke-linejoin:round;stroke-miterlimit:10;" x1="194.572" y1="147.48" x2="190.221" y2="145.305"/>
			
				<line style="fill:none;stroke:#F0F0F0;stroke-linecap:round;stroke-linejoin:round;stroke-miterlimit:10;" x1="201.823" y1="146.03" x2="206.174" y2="139.504"/>
			
				<line style="fill:none;stroke:#F0F0F0;stroke-linecap:round;stroke-linejoin:round;stroke-miterlimit:10;" x1="197.473" y1="143.13" x2="192.397" y2="138.054"/>
			
				<line style="fill:none;stroke:#F0F0F0;stroke-linecap:round;stroke-linejoin:round;stroke-miterlimit:10;" x1="199.648" y1="139.504" x2="201.823" y2="135.878"/>
		</g>
		<g>
			
				<line style="fill:none;stroke:#F0F0F0;stroke-linecap:round;stroke-linejoin:round;stroke-miterlimit:10;" x1="177.49" y1="338.854" x2="173.139" y2="336.679"/>
			
				<line style="fill:none;stroke:#F0F0F0;stroke-linecap:round;stroke-linejoin:round;stroke-miterlimit:10;" x1="184.741" y1="337.404" x2="189.092" y2="330.878"/>
			
				<line style="fill:none;stroke:#F0F0F0;stroke-linecap:round;stroke-linejoin:round;stroke-miterlimit:10;" x1="180.39" y1="334.504" x2="175.315" y2="329.428"/>
			
				<line style="fill:none;stroke:#F0F0F0;stroke-linecap:round;stroke-linejoin:round;stroke-miterlimit:10;" x1="182.566" y1="330.878" x2="184.741" y2="327.253"/>
		</g>
	</g>
</g>
<g id="Sun">
	<g>
		<g>
			<g>
				
					<ellipse transform="matrix(0.9301 -0.3674 0.3674 0.9301 -2.2274 135.4613)" style="fill:#92E3A9;" cx="354.694" cy="73.581" rx="28.224" ry="28.224"/>
			</g>
			<g>
				<rect x="354.194" y="105.814" style="fill:#92E3A9;" width="1" height="19.635"/>
			</g>
			<g>
				<rect x="354.194" y="21.75" style="fill:#92E3A9;" width="1" height="19.635"/>
			</g>
			<g>
				<rect x="386.908" y="73.1" style="fill:#92E3A9;" width="19.636" height="1"/>
			</g>
			<g>
				<rect x="302.844" y="73.1" style="fill:#92E3A9;" width="19.636" height="1"/>
			</g>
			<g>
				
					<rect x="374.597" y="43.378" transform="matrix(0.7071 -0.7072 0.7072 0.7071 81.583 284.6955)" style="fill:#92E3A9;" width="19.636" height="1"/>
			</g>
			<g>
				
					<rect x="315.155" y="102.821" transform="matrix(0.7071 -0.7071 0.7071 0.7071 22.1236 260.0522)" style="fill:#92E3A9;" width="19.636" height="1"/>
			</g>
			<g>
				
					<rect x="324.473" y="34.06" transform="matrix(0.7071 -0.7071 0.7071 0.7071 64.1593 242.6467)" style="fill:#92E3A9;" width="1" height="19.636"/>
			</g>
			<g>
				
					<rect x="383.915" y="93.503" transform="matrix(0.7071 -0.7071 0.7071 0.7071 39.5375 302.0905)" style="fill:#92E3A9;" width="1" height="19.636"/>
			</g>
		</g>
		<g style="opacity:0.5;">
			<g>
				
					<ellipse transform="matrix(0.9301 -0.3674 0.3674 0.9301 -2.2274 135.4613)" style="fill:#FFFFFF;" cx="354.694" cy="73.581" rx="28.224" ry="28.224"/>
			</g>
			<g>
				<rect x="354.194" y="105.814" style="fill:#FFFFFF;" width="1" height="19.635"/>
			</g>
			<g>
				<rect x="354.194" y="21.75" style="fill:#FFFFFF;" width="1" height="19.635"/>
			</g>
			<g>
				<rect x="386.908" y="73.1" style="fill:#FFFFFF;" width="19.636" height="1"/>
			</g>
			<g>
				<rect x="302.844" y="73.1" style="fill:#FFFFFF;" width="19.636" height="1"/>
			</g>
			<g>
				
					<rect x="374.597" y="43.378" transform="matrix(0.7071 -0.7072 0.7072 0.7071 81.583 284.6955)" style="fill:#FFFFFF;" width="19.636" height="1"/>
			</g>
			<g>
				
					<rect x="315.155" y="102.821" transform="matrix(0.7071 -0.7071 0.7071 0.7071 22.1236 260.0522)" style="fill:#FFFFFF;" width="19.636" height="1"/>
			</g>
			<g>
				
					<rect x="324.473" y="34.06" transform="matrix(0.7071 -0.7071 0.7071 0.7071 64.1593 242.6467)" style="fill:#FFFFFF;" width="1" height="19.636"/>
			</g>
			<g>
				
					<rect x="383.915" y="93.503" transform="matrix(0.7071 -0.7071 0.7071 0.7071 39.5375 302.0905)" style="fill:#FFFFFF;" width="1" height="19.636"/>
			</g>
		</g>
	</g>
</g>
<g id="Cloud">
	<g>
		<polyline style="fill:#A3A3A3;" points="129.813,91.208 122.995,107.57 136.63,109.616 126.404,130.75 136.63,126.66 
			122.313,155.975 151.629,117.115 140.721,117.115 152.992,100.753 137.312,99.389 140.721,89.163 		"/>
		<path style="fill:#263238;" d="M188.447,53.176c-1.123-5.906-6.306-10.373-12.539-10.373c-2.041,0-3.962,0.491-5.673,1.342
			c-5.745-6.477-14.125-10.563-23.463-10.563c-10.913,0-20.519,5.577-26.136,14.033c-4.138-3.288-9.371-5.257-15.067-5.257
			c-11.343,0-20.864,7.791-23.51,18.313c-7.479,1.96-13.005,8.745-13.005,16.838c0,9.624,7.802,17.426,17.426,17.426
			c3.775,0,7.259-1.213,10.113-3.252c3.573,5.841,9.991,9.751,17.339,9.751c7.189,0,13.493-3.74,17.109-9.371
			c4.625,2.689,9.996,4.236,15.732,4.236c6.128,0,11.842-1.764,16.672-4.804c4.448,6.028,11.598,9.939,19.664,9.939
			c13.49,0,24.425-10.936,24.425-24.425C207.533,65.354,199.368,55.613,188.447,53.176z"/>
	</g>
</g>
</svg>
