<svg width="35" height="34" viewBox="0 0 35 34" fill="none" xmlns="http://www.w3.org/2000/svg">
<g id="Calm - Icon">
<path id="Vector" d="M34.3465 16.3383C34.3274 16.166 34.3082 15.9841 34.2795 15.8118C34.2317 15.4289 34.1934 15.0364 34.1359 14.6439C33.7435 11.8678 32.7192 9.32148 31.111 7.09104C29.7325 5.16692 27.9807 3.60658 25.9225 2.45785C24.0559 1.41443 21.9977 0.763478 19.796 0.514587C19.1642 0.438005 18.5133 0.399719 17.8815 0.399719C16.7615 0.399719 15.651 0.514589 14.5406 0.744335V0.734764L14.3779 0.782628C14.1194 0.840064 13.8705 0.897491 13.612 0.9645C13.2866 1.05065 12.9515 1.15596 12.626 1.26126C12.3293 1.34742 12.0804 1.424 11.8411 1.51015C9.24688 2.43871 6.98771 3.99906 5.12103 6.15292C3.25435 8.29721 1.99075 10.7765 1.34938 13.5048C0.899465 15.4289 0.784591 17.353 0.995191 19.2292C1.21536 21.1438 1.70357 22.9339 2.45024 24.5421C3.26392 26.2843 4.37436 27.8351 5.74326 29.1466C7.27489 30.6112 9.07456 31.7504 11.2476 32.6311C12.1953 33.014 13.1238 33.1958 13.9854 33.3299C14.4353 33.4256 14.9043 33.5022 15.3638 33.5596C15.5266 33.5787 15.6797 33.5979 15.8425 33.617C16.3403 33.7032 16.9721 33.7415 17.7283 33.7415C18.0346 33.7415 18.3314 33.7319 18.609 33.7223L18.3792 33.8181L19.3748 33.6841C19.796 33.6553 20.1311 33.6075 20.3034 33.5788L20.3512 33.5692C20.3799 33.5596 20.3991 33.55 20.4182 33.5405C21.6818 33.3586 22.8976 33.0618 24.0271 32.6406C25.5301 32.0758 26.9277 31.3196 28.1626 30.3719C29.6368 29.2423 30.8908 27.8734 31.8672 26.2843C32.8436 24.7144 33.5137 23.0488 33.8679 21.3161C33.9828 20.7417 34.0689 20.1578 34.1455 19.5834C34.1838 19.3154 34.2221 19.0569 34.2604 18.7889C34.27 18.741 34.2795 18.6836 34.2891 18.6357L34.3082 18.5496L34.3178 16.3957L34.3465 16.3383ZM21.2128 5.51154C22.4572 5.51154 23.4911 6.55497 23.4815 7.78028C23.4719 9.00559 22.4381 10.049 21.2128 10.049C19.9875 10.049 18.9536 9.00559 18.9536 7.78028C18.9632 6.55497 19.997 5.51154 21.2128 5.51154ZM23.7304 30.1613C22.8689 31.4727 21.7201 32.43 20.3321 33.014C20.0258 33.0522 19.7099 33.0905 19.394 33.1193C18.2835 33.215 17.1348 33.2054 15.9574 33.081C15.5457 33.0044 15.1437 32.9469 14.7512 32.8895C14.5406 32.8608 14.33 32.8321 14.1194 32.7938C12.9132 32.5449 11.7454 32.162 10.6445 31.6642C9.43833 31.1186 8.31832 30.4293 7.31319 29.6252C6.3942 28.8881 5.57095 28.0649 4.86257 27.165C4.0106 26.0833 3.30222 24.8963 2.76614 23.6231C2.26836 22.4265 1.93332 21.2874 1.74187 20.1195C1.67486 19.6792 1.61742 19.2197 1.55998 18.7698C1.53127 18.5687 1.51212 18.3677 1.4834 18.1667V16.2713C1.4834 16.2617 1.4834 16.2617 1.49297 16.2521C1.50254 16.2043 1.52169 16.1468 1.52169 16.0798C1.62699 14.7779 1.87588 13.5048 2.25879 12.3178C2.75657 10.7765 3.47452 9.32148 4.41265 7.99088C5.54223 6.38266 6.94943 4.98505 8.58636 3.8459C9.9074 2.92692 11.3242 2.21853 12.8079 1.72075C13.0568 1.64417 13.3153 1.57716 13.5737 1.51015C13.6982 1.47186 13.8322 1.44315 13.9567 1.40485C13.9184 1.68246 13.8896 1.9505 13.8514 2.21854C13.7365 3.08008 13.6312 3.90333 13.545 4.72658C13.3823 6.15292 13.2483 7.85686 13.4493 9.5991C13.6216 11.1116 14.0332 12.3656 14.6937 13.4473C15.3255 14.4812 16.1105 15.3619 17.0391 16.0511C17.9676 16.7499 18.9345 17.4296 19.9205 18.0518C20.2363 18.2528 20.5714 18.3964 20.9064 18.54C21.1362 18.6357 21.3564 18.7315 21.567 18.8463C22.9454 19.5739 23.941 20.445 24.6111 21.5171C25.2142 22.484 25.5013 23.5848 25.4631 24.7814C25.3769 26.7343 24.8025 28.5339 23.7304 30.1613Z" fill="#BEADD6"/>
<path id="Vector_2" d="M14.2935 21.449H14.2552C12.7236 21.449 11.527 22.6169 11.4791 24.1773C11.4409 25.6897 12.6662 26.9534 14.2169 26.9916C14.2361 26.9916 14.2648 26.9916 14.2935 26.9916C15.7773 26.9916 17.0026 25.7568 17.0313 24.2347C17.0409 23.5072 16.7633 22.8084 16.2464 22.2819C15.7294 21.7554 15.0402 21.4586 14.2935 21.449Z" fill="#BEADD6"/>
</g>
</svg>
