<svg width="80" height="63" viewBox="0 0 80 63" fill="none" xmlns="http://www.w3.org/2000/svg">
<g id="Meditation Icon" clip-path="url(#clip0_220_369)">
<g id="Meditation">
<path id="Vector" d="M80 52.2641C78.6918 54.3534 76.7849 55.7746 74.8447 57.1109C69.3813 60.8833 63.3706 62.5323 56.8126 62.0579C53.8994 61.8585 51.0356 61.1745 48.3296 60.0316C59.2494 59.555 68.3854 55.1413 75.7459 46.6142C77.2815 47.9701 79.0465 49.0213 80 50.967V52.2641Z" fill="#C2E1A3"/>
<path id="Vector_2" d="M27.8772 27.6862C28.065 16.9196 31.4406 8.22491 38.1544 0.962298C39.3436 -0.323947 40.6997 -0.317418 41.8952 0.962298C47.3029 6.79284 50.6974 13.6898 51.728 21.7403C53.2719 33.7605 49.9087 44.1723 41.9661 52.9954C40.7039 54.397 39.3436 54.3687 38.0605 52.9823C32.9163 47.498 29.5315 40.4826 28.3737 32.9052C28.0545 30.9595 27.9919 28.9702 27.8772 27.6862Z" fill="#C2E1A3"/>
<path id="Vector_3" d="M51.0081 48.9691C51.997 46.7753 53.0944 44.6011 53.9748 42.3311C56.2698 36.3482 57.1043 30.1172 56.6265 23.686C56.3384 19.7944 55.5229 15.965 54.2043 12.3122C53.9957 11.755 54.0729 11.4699 54.5924 11.2501C57.0187 10.2316 59.4159 9.12596 61.8715 8.20317C63.4446 7.60684 64.7423 8.42081 65.1137 10.138C68.0943 23.813 64.8042 35.5836 55.2433 45.4499C54.1167 46.6056 52.8023 47.5588 51.5672 48.5991C51.3877 48.7335 51.201 48.857 51.0081 48.9691Z" fill="#C2E1A3"/>
<path id="Vector_4" d="M28.9553 49.1433C27.2403 47.5872 25.4273 46.1312 23.825 44.4554C18.4172 38.7968 15.2502 31.9433 14.1424 24.0583C13.511 19.4264 13.7706 14.7098 14.906 10.1838C15.3232 8.42961 16.575 7.59605 18.1919 8.20109C20.5787 9.09558 22.9028 10.1598 25.2646 11.137C25.9384 11.4134 26.0511 11.7747 25.7882 12.4864C23.7916 17.9056 23.0322 23.5425 23.3305 29.3164C23.6502 35.9214 25.4885 42.3493 28.6903 48.0573L29.1597 48.8996L28.9553 49.1433Z" fill="#C2E1A3"/>
<path id="Vector_5" d="M9.6969 26.0192C12.044 38.6422 18.497 48.2009 29.0392 54.889C28.6073 54.8367 28.1734 54.7889 27.7415 54.7279C27.3096 54.667 26.8652 54.6191 26.4334 54.5255C15.2729 52.0967 7.32823 45.4725 2.59924 34.6529C1.97334 33.2078 1.55608 31.6582 1.10126 30.1347C1.00742 29.8436 0.970084 29.5359 0.991435 29.2296C1.01279 28.9232 1.09239 28.6244 1.22562 28.3505C1.35884 28.0766 1.54301 27.8332 1.76738 27.6343C1.99176 27.4354 2.25184 27.2851 2.53247 27.1922C4.85588 26.4518 7.26777 26.0569 9.6969 26.0192Z" fill="#C2E1A3"/>
<path id="Vector_6" d="M51.0066 54.9193C61.5175 48.2356 67.9767 38.6725 70.3656 25.9058C72.0013 26.1235 73.6369 26.3411 75.2684 26.6023C75.9335 26.7165 76.5906 26.8757 77.2359 27.0789C78.6399 27.5142 79.343 28.7808 78.9195 30.2325C75.0619 43.4366 66.6227 51.4849 53.7439 54.5058C52.8467 54.7169 51.9204 54.7865 51.0066 54.9193Z" fill="#C2E1A3"/>
<path id="Vector_7" d="M4.26211 46.5748C11.6539 55.1388 20.7858 59.546 31.7473 60.1532C30.4538 60.5559 29.179 61.0586 27.8626 61.3459C17.6813 63.5702 8.72893 61.0673 1.08256 53.6567C-0.352832 52.266 -0.36535 50.8884 1.07213 49.4824C2.08608 48.4813 3.17722 47.5563 4.26211 46.5748Z" fill="#C2E1A3"/>
</g>
</g>
<defs>
<clipPath id="clip0_220_369">
<rect width="80" height="62.1359" fill="white"/>
</clipPath>
</defs>
</svg>
