<?xml version="1.0" encoding="utf-8"?>
<!-- Generator: Adobe Illustrator 27.5.0, SVG Export Plug-In . SVG Version: 6.00 Build 0)  -->
<svg version="1.1" xmlns="http://www.w3.org/2000/svg" xmlns:xlink="http://www.w3.org/1999/xlink" x="0px" y="0px"
	 viewBox="0 0 500 500" style="enable-background:new 0 0 500 500;" xml:space="preserve">
<g id="BACKGROUND">
	<polygon style="fill-rule:evenodd;clip-rule:evenodd;fill:#FAF5F2;" points="0,500 0,0 500,0 500,500 0,500 0,500 	"/>
</g>
<g id="OBJECTS">
	<path style="fill-rule:evenodd;clip-rule:evenodd;fill:#AB1BDB;" d="M256.044,393.433c-72.862-27.288-141.777,52.166-188.475-26.52
		C13.255,275.394,52.342-9.977,176.543,49.197c54.693,26.058,135.4,9.339,179.247,18.537
		c116.237,24.387,115.3,148.123,95.657,243.303C427.192,428.559,332.473,422.056,256.044,393.433L256.044,393.433z"/>
	<g>
		<g>
			<g>
				<path style="fill:#7B02A3;" d="M366.98,47.035c79.035-15.295,65.93,79.025,47.87,187.775
					c-11.92,71.785-74.875,85.18-79.29,80.205c-13.31-14.98,27.14-78.32,19.905-90.445c-13.595-22.775-14.265-45.07,5.405-40.77
					C414.99,195.63,275.145,64.81,366.98,47.035L366.98,47.035z"/>
				<g>
					<path style="fill:#FAF5F2;" d="M367.195,103.715c-1.34,0.205-2.86,0.655-4.365,1.095c-2.5,0.735-4.96,1.46-6.83,1.165
						c-2.315-0.36-3.635-2.05-2.935-6.505c0.77-4.915,2.555-7.32,5.135-8.37c2.51-1.02,5.655-0.675,9.325-0.125
						c1.55,0.23,3.13,0.215,4.645,0.2c5.09-0.055,9.52-0.1,10.5,7.825c0.675,5.435-0.55,7.32-2.775,7.595
						c-1.56,0.195-3.515-0.545-5.635-1.34C371.89,104.36,369.3,103.385,367.195,103.715L367.195,103.715z M362.41,103.375
						c1.545-0.455,3.105-0.91,4.555-1.135c2.495-0.39,5.275,0.655,7.82,1.615c1.94,0.73,3.73,1.4,4.93,1.255
						c1.32-0.165,2-1.625,1.465-5.93c-0.815-6.595-4.62-6.555-9-6.515c-1.585,0.02-3.235,0.035-4.87-0.21
						c-3.45-0.515-6.385-0.845-8.545,0.035c-2.09,0.85-3.55,2.91-4.225,7.205c-0.525,3.345,0.26,4.58,1.69,4.805
						C357.765,104.74,360.07,104.065,362.41,103.375L362.41,103.375z"/>
					<g>
						<path style="fill:#FAF5F2;" d="M387.695,69.205c-2.32-0.28-6.335,0.515-9.895,1.775c-3.65,1.29-6.89,3.115-7.535,4.86
							c-0.49,1.315,0.13,2.5,2.415,3.35c1.465,0.545,2.86,0.88,4.17,1.04c3.345,0.405,6.18-0.32,8.365-1.64
							c2.2-1.335,3.745-3.27,4.485-5.265c0.23-0.615,0.38-1.235,0.455-1.84C390.32,70.115,389.35,69.405,387.695,69.205z"/>
						<path style="fill:#FAF5F2;" d="M358.485,68.6c-3.11-2.135-6.78-3.94-9.105-4.27c-1.645-0.235-2.76,0.195-2.955,1.57
							c-0.085,0.6-0.1,1.24-0.04,1.89c0.2,2.115,1.19,4.385,2.97,6.24c1.77,1.845,4.32,3.28,7.66,3.755
							c1.31,0.185,2.74,0.22,4.295,0.075c2.425-0.23,3.33-1.21,3.2-2.61C364.335,73.395,361.68,70.79,358.485,68.6z"/>
					</g>
				</g>
			</g>
			<g>
				<path style="fill:#7B02A3;" d="M75.07,298.77c14.72,18.885,26.505-39.02,34.015-31.985c6.825,3.46,5.845,15.89,20.205,17.07
					c22.465-16.965,43.05,29.645,58.495,25.41c6.16-12.15-55.68-122.87-32.11-154.68c27.35-32.75,20.33-74.01-3.55-82.135
					c-55.87-19.005-70.74,80.47-81.33,99.72C48.09,213.42-0.84,201.385,75.07,298.77L75.07,298.77z"/>
				<g>
					<path style="fill:#FAF5F2;" d="M137.71,124.47c0.375-0.18,0.82-0.03,1.005,0.34c0.18,0.37,0.03,0.82-0.34,1.005
						c-9.245,4.58-12.96,0.865-15.73-1.9c-1.815-1.82-3.12-3.125-5.985,0.22c-0.27,0.315-0.74,0.35-1.055,0.085
						c-0.315-0.27-0.35-0.745-0.08-1.055c3.915-4.575,5.7-2.795,8.18-0.31C126.15,125.295,129.43,128.575,137.71,124.47
						L137.71,124.47z"/>
					<path style="fill:#FAF5F2;" d="M133.57,106.395c-1.09-1.92-4.865-4.365-8.855-6.1c-4.015-1.75-8.33-2.81-10.465-1.93
						c-1.535,0.63-2.12,2.01-1.13,4.415c0.325,0.79,0.675,1.515,1.055,2.18c2.085,3.675,4.94,5.565,7.95,6.265
						c2.985,0.695,6.105,0.195,8.775-0.9c0.68-0.28,1.325-0.595,1.935-0.94C134.12,108.65,134.255,107.6,133.57,106.395z"/>
					<path style="fill:#FAF5F2;" d="M157.82,93.975c-2.205-0.13-6.31,1.7-9.94,4.1c-3.655,2.415-6.895,5.455-7.32,7.72
						c-0.31,1.635,0.535,2.875,3.09,3.36c0.835,0.155,1.635,0.255,2.4,0.3c4.215,0.255,7.36-1.105,9.585-3.25
						c2.205-2.125,3.495-5.015,4.03-7.85c0.135-0.72,0.22-1.435,0.26-2.135C160.015,94.74,159.205,94.06,157.82,93.975z"/>
				</g>
			</g>
		</g>
		<g>
			<path style="fill-rule:evenodd;clip-rule:evenodd;fill:#7B02A3;" d="M383.137,357.787c-13.028-8.36-11.505-37.345,6.588-54.366
				c15.05-14.161,39.085-8.598,33.397,14.072C417.916,338.241,394.119,365.913,383.137,357.787L383.137,357.787z"/>
			<path style="fill:#7B02A3;" d="M304.05,27.375c-19.57-4.49-0.63,35.915,15.415,21.855C323.7,45.52,324.07,31.965,304.05,27.375
				L304.05,27.375z"/>
			<path style="fill:#7B02A3;" d="M113.025,348.482c11.439,24.912-13.969,39.931-24.991,17.462
				C70.84,330.911,104.806,330.589,113.025,348.482L113.025,348.482z"/>
		</g>
	</g>
	<g>
		<g>
			<path style="fill-rule:evenodd;clip-rule:evenodd;fill:#FAF5F2;" d="M138.959,401.72c-6.772-73.689,6.46-109.931,3.683-168.404
				c-0.133-2.803-6.472-10.447-6.735-13.198c-3.655-49.205,22.136-73.32,82.674-63.56l34.139,5.504
				c23.719-8.454,78.737-31.851,81.613,17.423c0.523,8.961,11.254,21.955-8.855,57.171c-0.066,1.266-4.734,2.711-5.193,3.728
				c-3.609,8.001-6.694,21.133-7.654,47.434C311.526,318.053,142.729,402.17,138.959,401.72L138.959,401.72z"/>
			<g>
				<g>
					<path style="fill:#181F39;" d="M210.057,141.126c0.158,0.382-0.022,0.82-0.405,0.978c-0.382,0.158-0.82-0.022-0.978-0.404
						c-10.657-25.546-15.197-45.82-15.825-61.195c-0.801-19.604,4.776-31.342,12.189-35.962c2.837-1.767,5.109-2.344,7.294-1.966
						c2.155,0.372,4.141,1.667,6.455,3.655c2.111,1.813,4.245,1.829,6.311,1.844c3.283,0.023,6.416,0.047,9.295,5.676
						c0.749-0.564,1.498-1.151,2.223-1.722c5.761-4.522,10.098-7.927,21.169-3.658c3.579,1.381,7.088,1.173,10.405,0.976
						c7.763-0.46,14.549-0.862,19.745,16.94c0.115,0.396-0.113,0.811-0.51,0.926c-0.397,0.115-0.811-0.114-0.926-0.51
						c-4.861-16.653-11.092-16.284-18.221-15.862c-3.473,0.206-7.145,0.423-11.032-1.076c-10.274-3.962-14.324-0.782-19.704,3.442
						c-0.903,0.709-1.844,1.448-2.943,2.25c-0.051,0.044-0.108,0.081-0.172,0.11c-0.375,0.173-0.82,0.009-0.993-0.367
						c-2.589-5.59-5.395-5.611-8.342-5.632c-2.339-0.017-4.756-0.035-7.277-2.201c-2.118-1.819-3.898-2.997-5.734-3.315
						c-1.807-0.313-3.752,0.205-6.251,1.762c-7.002,4.364-12.262,15.644-11.487,34.632
						C194.965,95.657,199.472,115.752,210.057,141.126L210.057,141.126z"/>
					<path style="fill:#181F39;" d="M234.114,54.887c-5.834-7.007-33.495-15.165-36.77-4.986
						c-1.832,5.696-10.751,7.341-12.504,11.786c-2.279,5.782-1.355,18.972-3.596,28.582c-2.596,11.132,19.559,40.892,23.565,49.625
						c3.23,7.04,19.611,4.184,21.369,1.932c2.761,4.525,14.008,3.463,18.02-0.683c0.22,8.024,22.379,7.326,20.607-5.575
						c-3.308-24.088,1.932-37.328,4.707-50.794c12.373-5.686,19.183-8.219,19.536-12.9C291.086,44.854,245.268,45.63,234.114,54.887
						L234.114,54.887z"/>
				</g>
				<g>
					<g>
						<path style="fill-rule:evenodd;clip-rule:evenodd;fill:#F78656;" d="M255.878,128.072c-3.303-5.188-31.635-4.337-34.917-1.283
							l-8.949,49.035c9.959,4.384,34.259,5.264,44.991,3.205C248.793,170.823,254.614,135.682,255.878,128.072L255.878,128.072z"/>
						<path style="fill-rule:evenodd;clip-rule:evenodd;fill:#F78C5E;" d="M220.961,126.789c-7.75,6.914-17.897-19.527-4.719-14.868
							c9.459-0.822,6.782-14.433,13.938-23.197c4.187-5.128,26.299-3.641,25.613-10.826c2.257,3.172,3.755,8.103,13.719,6.875
							c4.165,13.508,5.422,47.198-8.509,55.274c-2.436,1.412-8.084,2.396-14.408,2.312c-8.701-0.116-17.163,0.801-21.021-3.697
							C224.268,137.138,222.322,130.426,220.961,126.789L220.961,126.789z"/>
					</g>
					<g>
						<g>
							<path style="fill:#181F39;" d="M219.724,125.139c-0.114-0.396,0.114-0.811,0.51-0.926s0.811,0.113,0.926,0.51l0.348,1.195
								c1.432,4.927,2.995,10.309,4.639,12.265c3.971,4.723,15.102,3.921,23.891,3.288c1.325-0.095,2.596-0.187,3.859-0.259
								c0.412-0.023,0.765,0.294,0.787,0.706c0.023,0.413-0.293,0.766-0.705,0.788c-1.151,0.065-2.466,0.16-3.836,0.259
								c-9.122,0.657-20.673,1.489-25.139-3.821c-1.849-2.199-3.459-7.738-4.932-12.809L219.724,125.139L219.724,125.139z"/>
							<path style="fill:#181F39;" d="M214.855,117.892c-0.355-0.212-0.47-0.671-0.258-1.025c0.212-0.354,0.671-0.47,1.026-0.258
								c0.355,0.212,0.722,0.397,1.1,0.557c0.391,0.165,0.793,0.304,1.203,0.417c0.398,0.108,0.633,0.519,0.524,0.917
								c-0.108,0.398-0.519,0.633-0.917,0.525c-0.477-0.131-0.941-0.291-1.39-0.481
								C215.696,118.354,215.265,118.137,214.855,117.892L214.855,117.892z"/>
						</g>
						<g>
							<g>
								<path style="fill:#AB1BDB;" d="M234.021,115.692c-0.385,0.149-0.818-0.043-0.967-0.428
									c-0.149-0.385,0.043-0.818,0.428-0.967c0.382-0.149,0.755-0.325,1.116-0.526c0.369-0.205,0.726-0.437,1.07-0.694
									c0.332-0.245,0.8-0.176,1.046,0.155c0.246,0.332,0.176,0.8-0.156,1.046c-0.393,0.293-0.805,0.56-1.234,0.799
									C234.905,115.312,234.469,115.518,234.021,115.692L234.021,115.692z"/>
								<path style="fill:#AB1BDB;" d="M265.729,110.561c-0.408-0.068-0.683-0.454-0.615-0.861c0.068-0.408,0.454-0.684,0.861-0.616
									c0.481,0.082,0.949,0.195,1.402,0.339c0.454,0.144,0.912,0.324,1.369,0.537c0.374,0.175,0.535,0.619,0.361,0.993
									c-0.175,0.374-0.619,0.535-0.993,0.36c-0.376-0.175-0.772-0.33-1.188-0.461
									C266.528,110.727,266.128,110.629,265.729,110.561L265.729,110.561z"/>
							</g>
							<g>
								<path style="fill:#181F39;" d="M270.858,96.449c-2.726-3.487-9.241-5.686-13.142-7.003
									c-0.191-0.064-0.354-0.119-0.855-0.291l-0.001,0.001c-0.35-0.119-0.743,0.038-0.911,0.379
									c-1.65,3.371-0.752,5.188,1.346,6.215c1.871,0.916,4.711,1.058,7.4,1.192c2.111,0.106,4.123,0.206,5.304,0.664
									c0.237,0.091,0.515,0.059,0.729-0.109C271.054,97.244,271.111,96.775,270.858,96.449z"/>
								<path style="fill:#181F39;" d="M250.049,89.898c-0.118-0.396-0.535-0.622-0.932-0.504c-0.129,0.039-0.24,0.108-0.327,0.199
									c-0.853,0.793-3.113,1.205-5.634,1.663c-5.138,0.935-11.255,2.049-11.222,7.405c0.001,0.413,0.338,0.746,0.75,0.744
									c0.197-0.001,0.376-0.078,0.509-0.203l0.001,0.001c2.108-1.974,5.727-2.146,8.999-2.301
									c1.917-0.091,3.722-0.176,5.155-0.605C249.887,95.539,251.239,93.882,250.049,89.898z"/>
								<path style="fill:#181F39;" d="M230.987,105.587c-0.299-0.283-0.312-0.756-0.029-1.055c0.283-0.299,0.755-0.312,1.054-0.029
									c1.947,1.843,4.755,2.778,7.607,2.773c2.82-0.006,5.666-0.934,7.752-2.819c0.306-0.277,0.778-0.253,1.054,0.053
									c0.277,0.306,0.253,0.778-0.053,1.054c-2.372,2.143-5.585,3.199-8.754,3.205
									C236.406,108.777,233.222,107.703,230.987,105.587L230.987,105.587z"/>
								<path style="fill:#181F39;" d="M254.075,105.842c-0.344-0.228-0.439-0.692-0.211-1.037c0.228-0.345,0.692-0.439,1.037-0.211
									c2.394,1.595,5.08,2.231,7.589,1.922c2.452-0.302,4.739-1.511,6.417-3.613c0.257-0.324,0.728-0.378,1.052-0.12
									c0.324,0.257,0.377,0.728,0.12,1.052c-1.937,2.426-4.576,3.821-7.407,4.17C259.818,108.355,256.775,107.64,254.075,105.842
									L254.075,105.842z"/>
								<path style="fill:#181F39;" d="M256.864,126.402c-0.948-0.801-2.232-1.536-3.529-2.059c-1.068-0.43-2.156-0.722-3.088-0.795
									c-2.025-0.16-4.625,0.272-6.853,0.932c-2.533,0.751-4.654,1.864-5.074,2.83c-0.357,0.822-0.12,1.343,0.593,1.652
									c0.77,0.335,2.293,0.149,4.227-0.088c1.786-0.219,3.947-0.484,5.986-0.431c1.601,0.041,3.445,0.778,4.97,1.388
									c2.101,0.839,3.725,1.488,4.29,0.086c0.079-0.195,0.125-0.393,0.14-0.592C258.604,128.324,257.928,127.301,256.864,126.402z
									"/>
								<path style="fill:#181F39;" d="M250.525,104.404c-0.008-0.412,0.32-0.753,0.732-0.761c0.412-0.008,0.753,0.32,0.762,0.732
									c0.021,0.993,0.129,2.496,0.254,3.727c0.089,0.878-0.421,1.385-0.185,1.457c1.52,0.459,2.537,1.047,3.145,1.701
									c0.571,0.613,0.801,1.284,0.757,1.972c-0.042,0.649-0.335,1.282-0.819,1.871c-0.775,0.943-2.075,1.8-3.593,2.407
									c-0.384,0.154-0.819-0.032-0.973-0.416c-0.154-0.383,0.033-0.819,0.416-0.972c1.296-0.518,2.38-1.219,2.996-1.967
									c0.286-0.349,0.458-0.695,0.478-1.016c0.018-0.281-0.091-0.572-0.359-0.858c-0.434-0.466-1.231-0.907-2.483-1.286
									c-0.419-0.126-0.723-1.304-0.87-2.746C250.657,106.994,250.547,105.446,250.525,104.404L250.525,104.404z"/>
							</g>
						</g>
						<path style="fill:#181F39;" d="M211.652,176.48c-0.362-0.198-0.495-0.654-0.296-1.016c0.199-0.362,0.654-0.495,1.017-0.296
							c3.859,2.115,11.527,3.413,19.618,3.989c9.598,0.684,19.737,0.343,24.842-0.858c0.403-0.094,0.805,0.157,0.899,0.56
							c0.094,0.403-0.157,0.806-0.559,0.899c-5.235,1.231-15.555,1.587-25.287,0.893
							C223.607,180.062,215.715,178.708,211.652,176.48L211.652,176.48z"/>
					</g>
				</g>
			</g>
			<g>
				<path style="fill-rule:evenodd;clip-rule:evenodd;fill:#172038;" d="M252.625,399.587c-42.986-14.034-78.731,2.15-113.666,2.134
					c-0.223-38.181,22.344-105.336,47.078-129.949c13.756-13.688,67.025-22.266,74.518,3.155
					c7.568-30.523,66.482-27.029,75.332-3.807c8.325,21.844,32.041,97.408,28.119,137.938
					C330.658,415.894,297.705,414.304,252.625,399.587L252.625,399.587z"/>
				<g>
					<path style="fill:#AB1BDB;" d="M253.658,266.038c-0.257-0.324-0.204-0.795,0.12-1.052c0.324-0.257,0.794-0.204,1.052,0.121
						c12.683,15.972,14.331,29.048,15.591,39.048c0.682,5.412,1.248,9.9,3.421,13.352c3.728,5.921,6.081,19.071,9.023,35.519
						c2.764,15.45,6.052,33.83,11.471,51.778c0.12,0.397-0.104,0.815-0.501,0.935c-0.396,0.12-0.815-0.104-0.934-0.501
						c-5.432-17.987-8.733-36.438-11.507-51.948c-2.913-16.288-5.243-29.308-8.818-34.986c-2.349-3.73-2.933-8.368-3.638-13.961
						C267.701,294.524,266.083,281.686,253.658,266.038L253.658,266.038z"/>
					<path style="fill:#AB1BDB;" d="M274.83,286.797c-0.008-0.413,0.32-0.753,0.732-0.762c0.413-0.008,0.754,0.32,0.762,0.733
						c0.298,14.096-0.62,17.432-1.228,19.64c-0.637,2.315-0.909,3.307,1.272,16.324c0.068,0.408-0.208,0.793-0.615,0.861
						c-0.408,0.068-0.793-0.207-0.861-0.615c-2.234-13.335-1.935-14.422-1.236-16.963C274.24,303.89,275.123,300.679,274.83,286.797
						L274.83,286.797z"/>
					<path style="fill:#AB1BDB;" d="M335.207,271.436c-0.175-0.375-0.012-0.821,0.363-0.996c0.376-0.175,0.822-0.012,0.996,0.363
						c7.254,15.588,10.419,26.912,12.975,36.056c1.238,4.429,2.332,8.343,3.674,11.959c1.727,4.651,6.326,26.802,9.235,49.588
						c1.893,14.819,3.076,29.925,2.302,40.703c-0.029,0.412-0.387,0.723-0.8,0.694c-0.412-0.029-0.724-0.387-0.694-0.8
						c0.767-10.682-0.41-25.684-2.29-40.41c-2.896-22.682-7.45-44.666-9.153-49.255c-1.369-3.688-2.469-7.626-3.715-12.082
						C345.562,298.179,342.42,286.936,335.207,271.436L335.207,271.436z"/>
					<path style="fill:#AB1BDB;" d="M196.361,313.845c-0.061-0.409,0.22-0.791,0.63-0.853c0.409-0.061,0.791,0.22,0.853,0.63
						c0.557,3.637,0.945,9.016,0.9,14.759c-0.038,4.7-0.366,9.638-1.131,14.058c-0.464,2.684,4.999,20.803,9.215,34.789
						c2.485,8.241,4.541,15.061,4.729,16.618c0.049,0.411-0.245,0.783-0.656,0.832c-0.411,0.049-0.783-0.246-0.832-0.657
						c-0.172-1.429-2.211-8.192-4.676-16.366c-4.261-14.131-9.78-32.439-9.256-35.469c0.753-4.352,1.076-9.204,1.114-13.817
						C197.294,322.728,196.911,317.434,196.361,313.845L196.361,313.845z"/>
				</g>
			</g>
			<g>
				<g>
					<path style="fill:#181F39;" d="M135.192,220.341c-0.123-0.395,0.097-0.815,0.492-0.938c0.395-0.123,0.814,0.097,0.937,0.493
						c5.676,18.216,18.881,23.451,26.871,26.619c3.492,1.384,6.048,2.398,6.824,4.047c1.029,2.184,3.062,4.077,5.5,5.372
						c2.468,1.31,5.331,1.998,7.975,1.753c0.411-0.037,0.775,0.266,0.812,0.677c0.037,0.411-0.266,0.775-0.677,0.812
						c-2.944,0.273-6.106-0.48-8.813-1.917c-2.707-1.437-4.979-3.569-6.151-6.057c-0.527-1.118-2.849-2.039-6.022-3.297
						C154.7,244.637,141.079,239.236,135.192,220.341L135.192,220.341z"/>
					<g>
						<path style="fill-rule:evenodd;clip-rule:evenodd;fill:#F78C5E;" d="M243.116,211.604
							c-10.347-31.594-37.107-72.419-36.578-91.709c8.139-9.336,10.847-20.908,8.945-32.48
							c-1.441-15.982,10.116-13.658,8.906-19.568c7.513-2.304,8.969-4.292,7.46-9.662l-7.263,1.181
							c12.654-3.224,8.101-9.499,6.934-11.167c-16.432,6.644-23.183,9.879-26.881,14.539c-4.924,6.204-15.002,38.163-22.916,49.476
							c-7.408,4.934-1.472,87.179,4.545,112.641c-7.703,11.513-6.41,25.697-2.41,33.577c10.482,7.395,25.373,10.814,37.475,9.579
							c6.096-0.621,18.567-5.341,19.716-8.665C245.585,246.233,250.189,233.198,243.116,211.604z"/>
						<g>
							<g>
								<g>
									<path style="fill:#181F39;" d="M202.322,80.408c-0.125,0.393-0.544,0.611-0.938,0.486
										c-0.394-0.124-0.611-0.544-0.486-0.937l0.18-0.563c5.128-16.069,5.811-18.207,30.661-21.949
										c0.41-0.062,0.791,0.22,0.853,0.63c0.061,0.409-0.221,0.791-0.63,0.853c-23.934,3.604-24.583,5.638-29.46,20.918
										L202.322,80.408L202.322,80.408z"/>
									<path style="fill:#181F39;" d="M208.746,83.583c-0.034,0.413-0.396,0.72-0.808,0.686c-0.413-0.034-0.72-0.396-0.686-0.809
										c0.299-3.489,0.847-6.258,1.61-8.511c0.774-2.284,1.77-4.039,2.953-5.475c1.253-1.521,2.983-2.653,4.91-3.542
										c1.885-0.869,3.954-1.504,5.939-2.043c0.4-0.106,0.81,0.131,0.917,0.531c0.107,0.4-0.131,0.81-0.53,0.917
										c-1.92,0.52-3.913,1.132-5.698,1.955c-1.744,0.804-3.294,1.81-4.384,3.132c-1.069,1.298-1.976,2.901-2.689,5.006
										C209.556,77.566,209.034,80.217,208.746,83.583L208.746,83.583z"/>
								</g>
								<path style="fill:#181F39;" d="M202.524,121.627c-0.412,0.011-0.757-0.314-0.767-0.727
									c-0.011-0.413,0.314-0.756,0.726-0.768c1.622-0.046,3.275-1.078,4.805-2.659c1.864-1.926,3.516-4.64,4.723-7.421
									c0.164-0.379,0.603-0.553,0.982-0.39c0.379,0.163,0.553,0.603,0.389,0.981c-1.275,2.937-3.03,5.815-5.022,7.873
									C206.574,120.362,204.578,121.568,202.524,121.627L202.524,121.627z"/>
							</g>
							<path style="fill:#181F39;" d="M181.223,111.66c0.306-0.277,0.778-0.253,1.055,0.053c0.277,0.306,0.253,0.778-0.053,1.055
								c-4.063,3.681-4.032,29.952-1.902,58.213c2.315,30.712,7.163,63.651,11.99,72.617c0.196,0.364,0.059,0.818-0.305,1.014
								c-0.364,0.196-0.818,0.059-1.014-0.305c-4.923-9.146-9.838-42.337-12.165-73.215
								C176.669,142.444,176.783,115.682,181.223,111.66L181.223,111.66z"/>
						</g>
					</g>
				</g>
				<g>
					<g>
						<path style="fill-rule:evenodd;clip-rule:evenodd;fill:#F78C5E;" d="M320.543,203.757c5.171,8.343,7.719,21.796,4.935,32.899
							c-4.719,10.253-15.318,19.115-31.597,23.357c-5.024,1.258-19.746,1.268-21.822-2.988c-15.847-32.499-6.854-57.463,2.57-87.26
							c8.372-26.471,12.731-48.788,13.027-60.563c-12.528,3.618-21.095-19.663-20.711-27.636c0.146-3.013-0.866-8.883-2.291-11.008
							c-2.235-3.334-14.263-4.891-8.919-10.786c-3.971-0.03-11.705-2.854-8.541-9.314c1.145,0.479,12.792,2.182,14.978,2.438
							c11.718,0.285,10.247-0.886,14.253,1.643c3.711,2.343,5.967,7.799,9.168,17.09c7.917,12.021,19.53,15.979,24.197,22.743
							C318.01,106.286,321.488,185.495,320.543,203.757L320.543,203.757z"/>
						<g>
							<path style="fill:#181F39;" d="M317.412,138.426c-0.023-0.412,0.294-0.765,0.706-0.787c0.413-0.023,0.766,0.293,0.788,0.705
								c0.176,3.165,0.35,6.249,0.52,9.253c2.556,45.254,4.086,72.361-4.721,86.612c-0.217,0.351-0.678,0.46-1.029,0.243
								c-0.351-0.217-0.46-0.677-0.243-1.028c8.559-13.848,7.038-40.782,4.499-85.745
								C317.762,144.675,317.588,141.591,317.412,138.426L317.412,138.426z"/>
							<g>
								<g>
									<path style="fill:#181F39;" d="M279.267,73.842c0.133,0.392-0.078,0.817-0.469,0.95c-0.391,0.132-0.816-0.077-0.949-0.469
										c-6.806-19.867-8.031-20.033-30.032-23.024l-0.722-0.098c-0.409-0.055-0.696-0.431-0.641-0.841
										c0.055-0.409,0.432-0.697,0.841-0.642l0.722,0.098C270.887,52.925,272.161,53.098,279.267,73.842L279.267,73.842z"/>
									<path style="fill:#181F39;" d="M283.189,71.913c0.055,0.409-0.232,0.786-0.642,0.841c-0.409,0.055-0.786-0.232-0.841-0.642
										c-2.502-18.575-4.604-18.577-18.541-18.589l-0.851-0.001c-0.413,0-0.747-0.334-0.747-0.747
										c0-0.413,0.334-0.747,0.747-0.747l0.851,0.001C278.238,52.043,280.512,52.045,283.189,71.913L283.189,71.913z"/>
									<path style="fill:#181F39;" d="M274.331,76.594c0.035,0.412-0.27,0.776-0.683,0.811c-0.412,0.035-0.776-0.27-0.811-0.683
										c-0.95-10.939-2.035-11.372-14.388-16.295l-2.065-0.823c-0.383-0.154-0.57-0.589-0.416-0.973
										c0.154-0.383,0.589-0.569,0.973-0.416c1.271,0.509,1.681,0.672,2.059,0.823C272.147,64.278,273.302,64.739,274.331,76.594
										L274.331,76.594z"/>
								</g>
								<path style="fill:#181F39;" d="M266.433,85.048c-0.05-0.409,0.242-0.782,0.651-0.832c0.41-0.05,0.782,0.24,0.832,0.65
									c0.947,7.528,3.725,13.852,7.298,18.108c1.701,2.026,3.577,3.576,5.513,4.552c1.898,0.957,3.851,1.363,5.75,1.123
									c1.686-0.213,3.345-0.939,4.902-2.245c0.317-0.265,0.789-0.223,1.055,0.094c0.266,0.317,0.224,0.789-0.094,1.055
									c-1.781,1.496-3.707,2.33-5.681,2.579c-2.204,0.278-4.447-0.181-6.605-1.269c-2.119-1.069-4.156-2.746-5.987-4.927
									C270.325,99.479,267.42,92.882,266.433,85.048L266.433,85.048z"/>
							</g>
						</g>
					</g>
					<path style="fill:#181F39;" d="M336.153,199.727c0.014-0.412,0.361-0.735,0.773-0.721c0.413,0.015,0.735,0.361,0.721,0.774
						c-0.343,9.608-2.002,16.971-4.189,22.911c-2.184,5.935-4.896,10.446-7.348,14.361c-0.218,0.349-0.679,0.456-1.028,0.237
						c-0.349-0.218-0.456-0.679-0.237-1.028c2.405-3.84,5.065-8.265,7.207-14.085C334.193,216.361,335.817,209.149,336.153,199.727
						L336.153,199.727z"/>
				</g>
			</g>
		</g>
	</g>
	<g>
		<g>
			<path style="fill-rule:evenodd;clip-rule:evenodd;fill:#7B02A3;" d="M305.415,184.05c-3.33-4.34-7.485-7.15-7.94-10.195
				c-0.565-3.75,2.505-5.685,10.375-1.11c2.33,1.35,6.905,2.79,6.805,1.485c-0.545-7.265-9.91-10.77-15.03-13.04
				c-3.055-1.35-5.555-4.98-3.335-8.26c-1.06-2.26-5.555-9.36,10.285-8.775c-2.715-0.97-12.545-4.215-7.955-9.555
				c4.005-4.66,13.565-0.235,20.805,2.555c19.58,7.55,40.68,46.215,41.445,46.645c9.395,5.245,9.18,75.575-2.65,58.85
				C367.535,216.915,320.545,203.76,305.415,184.05L305.415,184.05z"/>
			<g>
				<path style="fill:#FAF5F2;" d="M319.505,160.82c0.24,0.34,0.16,0.805-0.175,1.045c-0.34,0.24-0.805,0.16-1.045-0.175
					c-7.115-10.025-12.79-9.22-18.4-8.425c-1.18,0.17-2.355,0.335-3.545,0.41c-0.415,0.03-0.77-0.285-0.795-0.7
					c-0.025-0.41,0.285-0.765,0.7-0.79c1.14-0.075,2.285-0.24,3.435-0.4C305.735,150.925,311.865,150.055,319.505,160.82
					L319.505,160.82z"/>
				<path style="fill:#FAF5F2;" d="M325.76,156.79c0.175,0.38,0.01,0.82-0.365,0.995c-0.375,0.17-0.82,0.005-0.99-0.37
					c-5.64-12.325-11.35-12.35-15.355-12.37c-0.955-0.005-1.825-0.005-2.615-0.155c-0.405-0.075-0.675-0.465-0.595-0.875
					c0.075-0.405,0.465-0.67,0.87-0.595c0.67,0.125,1.465,0.13,2.35,0.13C313.455,143.57,319.725,143.6,325.76,156.79L325.76,156.79
					z"/>
			</g>
		</g>
		<g>
			<path style="fill-rule:evenodd;clip-rule:evenodd;fill:#7B02A3;" d="M69.815,291.94c1.05-7.88,23.23-36.255,32.765-39.95
				c10.67,8.725,29.345,6.67,40.01,16.13l-1.11,17.665c-4.54-1.18-8.48,3.09-7.565,5.185c7.52,17.275,19.65,14.275,27.08,14.88
				c5.59,0.46,10.02,1.31,9.17,6.64c4.88,1.085,11.725,9.045-4.685,17.345c1.99,1.825,2.265,3.92,1.455,5.765
				c-3.65,8.3-38.105,19.855-48.47-0.195C109.065,317.22,80.245,322.625,69.815,291.94L69.815,291.94z"/>
			<g>
				<path style="fill:#FAF5F2;" d="M124.305,312.285c-0.28-0.3-0.265-0.775,0.035-1.06c0.3-0.28,0.775-0.265,1.055,0.035
					c16.25,17.275,30.505,11.155,41.385,6.485c0.51-0.215,1-0.425,1.77-0.75c0.38-0.16,0.82,0.015,0.98,0.395
					c0.16,0.38-0.02,0.82-0.4,0.98c-0.39,0.165-1.07,0.455-1.76,0.755C156.07,323.97,141.275,330.32,124.305,312.285
					L124.305,312.285z"/>
				<path style="fill:#FAF5F2;" d="M120.515,323.26c-0.325-0.26-0.375-0.73-0.115-1.05c0.26-0.32,0.73-0.375,1.05-0.115
					c7.05,5.695,14.21,8.555,20.91,9.63c8.815,1.42,16.86-0.245,22.85-2.59c0.385-0.15,0.82,0.04,0.97,0.425
					c0.15,0.385-0.04,0.82-0.425,0.97c-6.185,2.425-14.505,4.14-23.63,2.675C135.185,332.085,127.785,329.135,120.515,323.26
					L120.515,323.26z"/>
			</g>
		</g>
	</g>
</g>
<g id="TEXT">
	<g>
		<text transform="matrix(1 0 0 1 113.2139 459.4581)" style="fill:#181F39; font-family:'Ubuntu-Regular'; font-size:36px;">SCHIZOPHRENIA</text>
		<g>
			<text transform="matrix(1 0 0 1 85.7866 441.0733)" style="fill:#181F39; font-family:'Ubuntu-Regular'; font-size:36px;">_</text>
			
				<text transform="matrix(1.0421 0 0 1 397.4877 441.0733)" style="fill:#181F39; font-family:'Ubuntu-Regular'; font-size:34.5449px;">_</text>
		</g>
	</g>
</g>
</svg>
