<?xml version="1.0" encoding="utf-8"?>
<!-- Generator: Adobe Illustrator 27.5.0, SVG Export Plug-In . SVG Version: 6.00 Build 0)  -->
<svg version="1.1" xmlns="http://www.w3.org/2000/svg" xmlns:xlink="http://www.w3.org/1999/xlink" x="0px" y="0px"
	 viewBox="0 0 500 500" style="enable-background:new 0 0 500 500;" xml:space="preserve">
<g id="BACKGROUND">
	<rect style="fill:#F2E6E1;" width="500" height="500"/>
</g>
<g id="OBJECTS">
	<g>
		<g>
			
				<rect x="200.325" y="200.667" transform="matrix(-1.836970e-16 1 -1 -1.836970e-16 700.3248 200.3248)" style="fill:#E5D1CA;" width="99.35" height="499.317"/>
		</g>
		<g>
			<g>
				<ellipse style="fill:#FFFFFF;" cx="143.181" cy="133.619" rx="71.021" ry="59.958"/>
				<ellipse style="fill:#FFFFFF;" cx="205.577" cy="184.724" rx="71.02" ry="59.958"/>
				<ellipse style="fill:#FFFFFF;" cx="295.703" cy="175.276" rx="71.02" ry="59.958"/>
				<ellipse style="fill:#FFFFFF;" cx="362.718" cy="136.797" rx="71.02" ry="59.958"/>
				<ellipse style="fill:#FFFFFF;" cx="315.15" cy="84.082" rx="71.021" ry="59.958"/>
				<ellipse style="fill:#FFFFFF;" cx="220.526" cy="90.716" rx="71.02" ry="59.958"/>
			</g>
			<g>
				<polygon style="fill:#262627;" points="56.953,453.651 44.604,453.651 61.648,353.947 73.997,353.947 				"/>
				<polygon style="fill:#262627;" points="140.594,453.651 128.244,453.651 145.288,353.947 157.638,353.947 				"/>
				<polygon style="fill:#262627;" points="187.985,453.651 200.335,453.651 183.291,353.947 170.941,353.947 				"/>
				<polygon style="fill:#262627;" points="104.345,453.651 116.695,453.651 99.65,353.947 87.301,353.947 				"/>
				<polygon style="fill:#262627;" points="45.679,259.866 66.551,346.723 78.946,346.723 58.074,259.866 				"/>
				<polygon style="fill:#262627;" points="111.699,259.866 132.572,346.723 144.966,346.723 124.094,259.866 				"/>
				<path style="fill:#F57F5C;" d="M65.421,346.723h113.259c3.092,0,5.818,2.028,6.706,4.989h0c1.348,4.493-2.016,9.015-6.706,9.015
					H65.421c-3.092,0-5.818-2.028-6.706-4.989v0C57.366,351.245,60.73,346.723,65.421,346.723z"/>
				<g>
					<path style="fill:#F57F5C;" d="M126.954,259.866H46.371c-5.303,0-9.212,4.959-7.972,10.115l5.584,23.236
						c0.886,3.685,4.182,6.284,7.973,6.284h80.582c5.303,0,9.212-4.959,7.973-10.115l-5.584-23.236
						C134.041,262.464,130.744,259.866,126.954,259.866z"/>
				</g>
			</g>
			<g>
				<polygon style="fill:#262627;" points="443.047,453.651 455.396,453.651 438.352,353.947 426.003,353.947 				"/>
				<polygon style="fill:#262627;" points="359.406,453.651 371.756,453.651 354.712,353.947 342.362,353.947 				"/>
				<polygon style="fill:#262627;" points="312.015,453.651 299.665,453.651 316.709,353.947 329.059,353.947 				"/>
				<polygon style="fill:#262627;" points="395.655,453.651 383.305,453.651 400.35,353.947 412.699,353.947 				"/>
				<polygon style="fill:#262627;" points="454.321,259.866 433.449,346.723 421.054,346.723 441.926,259.866 				"/>
				<polygon style="fill:#262627;" points="388.301,259.866 367.428,346.723 355.034,346.723 375.906,259.866 				"/>
				<path style="fill:#F57F5C;" d="M434.579,346.723H321.321c-3.092,0-5.818,2.028-6.706,4.989l0,0
					c-1.348,4.493,2.016,9.015,6.706,9.015h113.259c3.092,0,5.818-2.028,6.706-4.989v0
					C442.634,351.245,439.27,346.723,434.579,346.723z"/>
				<g>
					<path style="fill:#F57F5C;" d="M373.046,259.866h80.583c5.303,0,9.212,4.959,7.973,10.115l-5.584,23.236
						c-0.886,3.685-4.182,6.284-7.973,6.284h-80.583c-5.303,0-9.212-4.959-7.972-10.115l5.584-23.236
						C365.959,262.464,369.256,259.866,373.046,259.866z"/>
				</g>
			</g>
			<g>
				<path style="fill:#272726;" d="M387.518,183.86c0.226-0.058,0.457-0.109,0.695-0.152c3.874-0.707,7.761,1.122,10.059,4.319
					c3.964,5.513,2.246,9.876,9.74,17.104c8.983,8.663,7.84,23.355-6.035,25.478c-13.876,2.122-23.253-2.748-22.156-19.739
					c0.618-9.567,0.966-15.455,1.153-18.774C381.19,188.24,383.777,184.818,387.518,183.86z"/>
				<path style="fill:#F3A48D;" d="M286.796,284.357c-0.206-2.514-1.747-4.725-4.041-5.774c-5.395-2.466-14.877-6.515-15.904-5.012
					c-1.284,1.879,7.105,5.956,7.105,5.956s-15.973,3.215-15.333,5.481c0.641,2.266,11.511-0.627,11.511-0.627
					s-12.502,3.629-12.152,5.781c0.349,2.152,12.661-1.46,12.661-1.46s-9.784,2.768-9.372,4.761
					c0.411,1.993,10.651-1.239,10.651-1.239s-6.983,2.398-6.434,3.804c0.549,1.406,10.382-1.252,15.4-3.778
					c0.864-0.435,1.617-0.827,2.27-1.178C285.603,289.759,287.022,287.123,286.796,284.357L286.796,284.357z"/>
				<path style="fill:#1B3434;" d="M350.743,312.02c0,0-53.814,36.335-51.1,52.086c2.714,15.751,67.053,77.428,67.053,77.428
					l8.418-9.865c0,0-24.173-30.807-42.652-62.813c41.411-38.533,94.207-20.939,83.937-56.835H350.743z"/>
				<polyline style="fill:#F57F5C;" points="361.861,444.7 346.173,429.896 361.398,411.661 375.395,425.411 				"/>
				<path style="fill:#1B3434;" d="M416.4,312.02l-34.326,0.196c-18.741,6.445-48.407,27.554-50.922,34.379
					c-5.525,14.997,7.104,104.192,7.104,104.192h13.419c0,0,5.525-46.712,5.525-83.669
					C415.611,353.699,424.231,354.051,416.4,312.02z"/>
				<path style="fill:#F3A48D;" d="M278.825,280.02c0,0,35.577-10.919,48.447-15.802c28.81-42.895,34.683-52.23,43.593-45.731
					c8.91,6.5-23.742,47.295-33.645,61.176c-5.532,7.754-56.752,10.863-56.752,10.863L278.825,280.02z"/>
				<path style="fill:#FFC3AE;" d="M416.295,312.02c0,0-4.321-21.633,0-49.203c4.322-27.571,7.831-53.638-27.761-53.638
					c-35.591,0-35.894,10.527-35.514,43.612c0.463,40.324-2.382,59.229-2.382,59.229C367.977,322.223,390.56,320.657,416.295,312.02
					z"/>
				<path style="fill:#F57F5C;" d="M375.395,425.411l-13.78,17.182c0,0-7.89,17.447,1.471,24.955
					c10.857-13.538,24.326-30.332,24.326-30.332L375.395,425.411z"/>
				<path style="fill:#F57F5C;" d="M355.193,450.787h-20.334c0,0-18.547,4.761-18.547,16.761c17.354,0,38.881,0,38.881,0V450.787z"
					/>
				<path style="fill:#FFC3AE;" d="M346.924,277.784l-19.66-17.904c0,0,14.694-23.015,26.397-38.651
					S400.938,199.734,346.924,277.784z"/>
				<g>
					<g>
						<defs>
							<polygon id="SVGID_1_" points="390.934,209.179 373.294,218.704 367.841,193.776 385.646,189.881 							"/>
						</defs>
						<use xlink:href="#SVGID_1_"  style="overflow:visible;fill:#F3A48D;"/>
						<clipPath id="SVGID_00000065793107508525928680000008839443784759645593_">
							<use xlink:href="#SVGID_1_"  style="overflow:visible;"/>
						</clipPath>
						<path style="clip-path:url(#SVGID_00000065793107508525928680000008839443784759645593_);fill:#272726;" d="M385.063,194.524
							c0,0-4.196,13.87-16.413,13.87c0-9.697,0-10.868,0-10.868L385.063,194.524"/>
					</g>
					<path style="fill:#F3A48D;" d="M371.695,154.17c9.774,0,17.771,7.997,17.771,17.771v4.557c4.026,0,7.29,3.264,7.29,7.291
						c0,4.026-3.264,7.29-7.29,7.29c-0.519,0-1.024-0.058-1.513-0.162c-2.762,6.248-11.2,10.642-18.44,10.642
						c-9.774,0-15.588-7.997-15.588-17.771v-11.847C353.925,162.167,361.921,154.17,371.695,154.17z"/>
					<g>
						<g>
							
								<path style="fill:none;stroke:#272726;stroke-width:0.9696;stroke-linecap:round;stroke-linejoin:round;stroke-miterlimit:10;" d="
								M379.959,178.108c0,0-3.376-4.534-7.909,0"/>
							<path style="fill:#272726;" d="M377.59,178.687c0,0.876-0.71,1.586-1.586,1.586c-0.876,0-1.586-0.71-1.586-1.586
								c0-0.876,0.71-1.586,1.586-1.586C376.88,177.101,377.59,177.811,377.59,178.687z"/>
							
								<path style="fill:none;stroke:#272726;stroke-width:0.9696;stroke-linecap:round;stroke-linejoin:round;stroke-miterlimit:10;" d="
								M363.81,178.108c0,0-3.376-4.534-7.91,0"/>
							
								<path style="fill:none;stroke:#272726;stroke-width:0.9696;stroke-linecap:round;stroke-linejoin:round;stroke-miterlimit:10;" d="
								M379.959,173.432c0,0-3.376-4.534-7.909,0"/>
							
								<path style="fill:none;stroke:#272726;stroke-width:0.9696;stroke-linecap:round;stroke-linejoin:round;stroke-miterlimit:10;" d="
								M363.81,173.432c0,0-3.376-4.534-7.91,0"/>
							<path style="fill:#272726;" d="M361.442,178.687c0,0.876-0.71,1.586-1.586,1.586c-0.876,0-1.586-0.71-1.586-1.586
								c0-0.876,0.71-1.586,1.586-1.586C360.732,177.101,361.442,177.811,361.442,178.687z"/>
						</g>
						
							<path style="fill:none;stroke:#272726;stroke-width:0.9696;stroke-linecap:round;stroke-linejoin:round;stroke-miterlimit:10;" d="
							M366.941,176.093c0,0-0.247,3.877-1.895,6.596c-1.648,2.719,0.082,4.284,1.895,3.296"/>
						
							<path style="fill:none;stroke:#272726;stroke-width:0.9696;stroke-linecap:round;stroke-linejoin:round;stroke-miterlimit:10;" d="
							M370.731,189.812c0,0-3.46,2.966-6.921,0"/>
					</g>
					<path style="fill:#272726;" d="M393.122,177.487l-6.899,7.168c0-14.409-12.293-2.085-17.573-28.802
						c-10.878,0-14.086,11.402-14.086,11.402s-0.354-13.159,12.912-16.93c5.343-1.519,11.186-0.784,15.837,2.254
						C395.425,160.489,393.122,177.487,393.122,177.487z"/>
				</g>
				<path style="fill:#F3A48D;" d="M296.873,205.414c0,0,34.547,13.168,47.105,18.805c50.694-10.001,62.762-10.709,64.475,0.186
					c1.713,10.894-50.461,17.901-67.276,20.728c-9.393,1.579-50.564-31.122-50.564-31.122L296.873,205.414z"/>
				<path style="fill:#FFC3AE;" d="M348.156,247.348l-0.438-26.587c0,0,26.831-5.075,46.237-7.271
					C413.361,211.296,442.009,233.184,348.156,247.348z"/>
				
					<path style="fill:none;stroke:#1B3434;stroke-width:1.9392;stroke-linecap:round;stroke-linejoin:round;stroke-miterlimit:10;" d="
					M153.995,186.374c11.246-0.176,22.063-7.504,26.396-17.884c4.333-10.379,1.938-23.223-5.844-31.344
					c-6.7-6.991-17.656-10.229-26.532-6.359c-8.876,3.87-13.951,15.58-9.334,24.091c4.543,8.373,15.889,10.754,25.152,8.532
					c9.263-2.223,17.252-7.885,25.738-12.213c14.362-7.324,30.61-10.911,46.721-10.316c11.35,0.42,24.435,4.25,27.538,15.83
					c0.981,3.661,0.679,7.562-0.642,11.115c-3.308,8.893-11.692,14.144-20.498,16.096c-13.579,3.011-28.609-1.77-37.954-12.071
					c-9.345-10.302-12.643-25.725-8.328-38.947c3.172-9.718,10.628-18.33,20.41-21.298s21.632,0.689,26.798,9.509
					c4.786,8.171,2.981,19.292-3.314,26.366c-6.296,7.074-16.344,10.195-25.761,9.194c-10.549-1.121-20.462-7.219-26.219-16.129
					c-5.757-8.91-7.243-20.453-3.93-30.531c2.126-6.468,6.163-12.841,4.931-19.538c-1.473-8.009-11.416-12.98-18.908-9.788
					s-10.914,13.233-7.383,20.571c4.445,9.239,17.089,12.012,26.72,8.499c6.742-2.459,13.928-8.561,19.773-14.791
					c10.136-10.802,21.924-19.974,35.234-26.475c31.52-15.394,69.704-19.87,101.891-9.092c5.065,1.696,10.133,3.766,14.157,7.279
					c4.024,3.513,6.89,8.715,6.432,14.037c-0.423,4.91-3.643,9.297-7.787,11.965c-4.144,2.668-9.116,3.79-14.033,4.129
					c-21.956,1.513-44.536-11.476-65.217-3.948c-8.636,3.144-16.785,12.227-11.733,21.156c1.206,2.131,3.057,3.833,5.196,5.026
					c5.916,3.301,12.567,2.954,19.022,2.587c18.653-1.061,37.305-2.123,55.958-3.184c6.09-0.347,12.47-0.641,18,1.935
					c5.529,2.576,9.765,9.034,7.71,14.777c-1.413,3.949-5.392,6.517-9.481,7.451c-4.089,0.934-8.347,0.52-12.531,0.218
					c-12.763-0.921-25.605-0.746-38.339,0.523c-3.526,0.351-7.18,0.834-10.162,2.749c-0.03,0.019-0.06,0.038-0.089,0.058
					c-4.07,2.68-2.708,8.997,2.073,9.944c9.782,1.937,28.199,7.241,28.199,19.719c0,16.99-51.393,6.405-51.393,36.99
					c0,30.585-20.429,34.357-20.429,58.138s20.688,44.872,57.149,44.872"/>
				<path style="fill:#F3A48D;" d="M299.034,214.218c2.067-1.446,3.199-3.892,2.947-6.402c-0.592-5.902-1.88-16.132-3.696-16.261
					c-2.271-0.161-1.559,9.139-1.559,9.139s-10.834-12.17-12.467-10.474c-1.633,1.696,6.349,9.623,6.349,9.623
					s-9.44-8.964-11.122-7.577c-1.682,1.387,7.648,10.196,7.648,10.196s-7.326-7.051-8.839-5.691
					c-1.513,1.36,6.443,8.572,6.443,8.572s-5.593-4.82-6.53-3.636c-0.936,1.183,6.318,8.332,11.03,11.391
					c0.812,0.527,1.53,0.979,2.162,1.366C293.768,215.913,296.76,215.809,299.034,214.218L299.034,214.218z"/>
				
					<path style="fill:none;stroke:#272726;stroke-width:0.9696;stroke-linecap:round;stroke-linejoin:round;stroke-miterlimit:10;" d="
					M398.218,239.458c-23.335,10.545-50.062,7.89-50.062,7.89l-0.438-26.587c0,0,27.925-4.92,46.237-7.271"/>
				
					<path style="fill:none;stroke:#272726;stroke-width:0.9696;stroke-linecap:round;stroke-linejoin:round;stroke-miterlimit:10;" d="
					M353.02,252.791c0,0,0.961,18.534-0.849,42.057"/>
				
					<path style="fill:none;stroke:#272726;stroke-width:0.9696;stroke-linecap:round;stroke-linejoin:round;stroke-miterlimit:10;" d="
					M332.954,407.417c0,0-3.128-37.702-3.2-51.726c-0.073-14.024,6.31-16.933,27.245-30.691"/>
				
					<line style="fill:none;stroke:#272726;stroke-width:0.9696;stroke-linecap:round;stroke-linejoin:round;stroke-miterlimit:10;" x1="355.767" y1="405.236" x2="353.898" y2="428.959"/>
				<polygon style="fill:#F57F5C;" points="334.859,450.787 331.345,426.73 356.999,426.73 355.193,450.787 				"/>
				
					<path style="fill:none;stroke:#272726;stroke-width:0.9696;stroke-linecap:round;stroke-linejoin:round;stroke-miterlimit:10;" d="
					M351.372,305.471c0,0,21.034,15.564,63.973,0"/>
				
					<line style="fill:none;stroke:#272726;stroke-width:0.9696;stroke-linecap:round;stroke-linejoin:round;stroke-miterlimit:10;" x1="358.27" y1="218.955" x2="360.255" y2="247.586"/>
				
					<polyline style="fill:none;stroke:#272726;stroke-width:0.9696;stroke-linecap:round;stroke-linejoin:round;stroke-miterlimit:10;" points="
					332.641,251.606 353.034,268.738 346.924,277.784 327.265,259.88 				"/>
				
					<polyline style="fill:none;stroke:#272726;stroke-width:0.9696;stroke-linecap:round;stroke-linejoin:round;stroke-miterlimit:10;" points="
					347.338,452.562 347.338,426.73 356.999,426.73 355.193,467.548 				"/>
				
					<line style="fill:none;stroke:#272726;stroke-width:0.9696;stroke-linecap:round;stroke-linejoin:round;stroke-miterlimit:10;" x1="361.398" y1="411.661" x2="387.412" y2="437.216"/>
				
					<circle style="fill:none;stroke:#272726;stroke-width:0.9696;stroke-linecap:round;stroke-linejoin:round;stroke-miterlimit:10;" cx="350.638" cy="431.275" r="1.178"/>
				
					<line style="fill:none;stroke:#272726;stroke-width:0.9696;stroke-linecap:round;stroke-linejoin:round;stroke-miterlimit:10;" x1="334.859" y1="450.787" x2="340.149" y2="462.862"/>
				
					<line style="fill:none;stroke:#272726;stroke-width:0.9696;stroke-linecap:round;stroke-linejoin:round;stroke-miterlimit:10;" x1="355.401" y1="462.862" x2="317.341" y2="462.862"/>
				
					<line style="fill:none;stroke:#272726;stroke-width:0.9696;stroke-linecap:round;stroke-linejoin:round;stroke-miterlimit:10;" x1="383.358" y1="433.234" x2="359.641" y2="462.862"/>
				
					<line style="fill:none;stroke:#272726;stroke-width:0.9696;stroke-linecap:round;stroke-linejoin:round;stroke-miterlimit:10;" x1="361.861" y1="444.7" x2="372.755" y2="446.48"/>
				<g>
					
						<text transform="matrix(0.9169 -0.3992 0.3992 0.9169 246.8376 178.892)" style="fill:#F57F5C; font-family:'Quicksand-Bold'; font-size:15.9994px;">B</text>
				</g>
				<g>
					
						<text transform="matrix(1 0 0 1 152.5505 160.904)" style="fill:#F57F5C; font-family:'Quicksand-Bold'; font-size:15.9994px;">A</text>
				</g>
				<g>
					
						<text transform="matrix(0.9507 0.3102 -0.3102 0.9507 220.0391 123.5452)" style="fill:#F57F5C; font-family:'Quicksand-Bold'; font-size:15.9994px;">C</text>
				</g>
				<g>
					
						<text transform="matrix(0.9464 -0.323 0.323 0.9464 142.2305 129.769)" style="fill:#F57F5C; font-family:'Quicksand-Bold'; font-size:15.9994px;">D</text>
				</g>
				<g>
					
						<text transform="matrix(0.9632 -0.269 0.269 0.9632 192.4151 90.2262)" style="fill:#F57F5C; font-family:'Quicksand-Bold'; font-size:15.9994px;">E</text>
				</g>
				<g>
					
						<text transform="matrix(0.9448 -0.3276 0.3276 0.9448 189.8278 172.7112)" style="fill:#F57F5C; font-family:'Quicksand-Bold'; font-size:15.9994px;">F</text>
				</g>
				<g>
					
						<text transform="matrix(0.923 0.3848 -0.3848 0.923 218.658 94.3513)" style="fill:#F57F5C; font-family:'Quicksand-Bold'; font-size:15.9994px;">S</text>
				</g>
				<g>
					
						<text transform="matrix(0.9306 0.366 -0.366 0.9306 166.1072 102.3144)" style="fill:#F57F5C; font-family:'Quicksand-Bold'; font-size:15.9994px;">G</text>
				</g>
				<g>
					
						<text transform="matrix(0.9866 0.1629 -0.1629 0.9866 217.155 198.0055)" style="fill:#F57F5C; font-family:'Quicksand-Bold'; font-size:15.9994px;">H</text>
				</g>
				<g>
					
						<text transform="matrix(0.9866 0.1629 -0.1629 0.9866 166.6435 195.7455)" style="fill:#F57F5C; font-family:'Quicksand-Bold'; font-size:15.9994px;">R</text>
				</g>
			</g>
			<g>
				<path style="fill:#F3A48D;" d="M141.862,286.764c-9.894-42.187-10.847-52.28-1.768-54.04s14.481,45.626,17.351,59.634"/>
				<path style="fill:#1B3434;" d="M147.267,312.18c0,0,50.222,16.418,54.855,28.995c4.634,12.577-5.957,87.376-5.957,87.376
					h-11.253c0,0-4.634-39.174-4.634-70.166c-46.232-10.621-96.684-16.102-88.072-46.205H147.267z"/>
				<path style="fill:#317283;" d="M134.738,228.469c0,0,24.241,4.207,25.05,51.215l-17.925,7.08L134.738,228.469z"/>
				<path style="fill:#1B3434;" d="M92.207,312.18l28.786,0.164c15.716,5.405,40.595,23.107,42.703,28.831
					c4.634,12.577-5.958,87.376-5.958,87.376h-11.253c0,0-4.634-39.174-4.634-70.166C92.869,347.132,85.64,347.427,92.207,312.18z"
					/>
				<g>
					<defs>
						<path id="SVGID_00000000945726382645484350000017193006118118868906_" d="M92.207,312.18c0,0,3.624-18.141,0-41.262
							c-3.624-23.121-6.567-44.981,23.28-44.981c29.847,0,30.101,8.828,29.783,36.573c-0.388,33.816,1.997,49.67,1.997,49.67
							C131.205,320.055,112.716,319.59,92.207,312.18z"/>
					</defs>
					<use xlink:href="#SVGID_00000000945726382645484350000017193006118118868906_"  style="overflow:visible;fill:#317283;"/>
					<clipPath id="SVGID_00000178918016074343172390000004095768427048931983_">
						<use xlink:href="#SVGID_00000000945726382645484350000017193006118118868906_"  style="overflow:visible;"/>
					</clipPath>
					<polygon style="clip-path:url(#SVGID_00000178918016074343172390000004095768427048931983_);fill:#F57F5C;" points="
						129.394,248.661 114.874,275.542 128.355,279.461 125.564,299.501 141.044,272.689 129.116,270.067 					"/>
				</g>
				<path style="fill:#F3A48D;" d="M126.692,323.886c0,0-15.409-26.905-21.715-36.573c1.682-43.299,0.696-53.389-8.553-53.389
					c-9.248,0-8.256,44.135-8.408,58.433c-0.085,7.987,32.37,37.835,32.37,37.835L126.692,323.886z"/>
				<path style="fill:#F3A48D;" d="M157.446,292.357c0,7.567-22.096,31.822-22.096,31.822l-7.391-4.99
					c0,0,13.175-21.733,17.525-32.425"/>
				<g>
					<g>
						<defs>
							<path id="SVGID_00000172405312555596606980000007329720745771698312_" d="M106.467,227.02l9.723,6.077
								c3.26,2.038,7.555,0.23,8.377-3.526l3.767-17.22l-17.805-3.895L106.467,227.02z"/>
						</defs>
						<use xlink:href="#SVGID_00000172405312555596606980000007329720745771698312_"  style="overflow:visible;fill:#F3A48D;"/>
						<clipPath id="SVGID_00000031897006957316162510000015033531605511637689_">
							<use xlink:href="#SVGID_00000172405312555596606980000007329720745771698312_"  style="overflow:visible;"/>
						</clipPath>
						<path style="clip-path:url(#SVGID_00000031897006957316162510000015033531605511637689_);fill:#272726;" d="M111.11,213.1
							c0,0,4.196,13.869,16.413,13.869c0-9.697,0-10.868,0-10.868L111.11,213.1"/>
					</g>
					<path style="fill:#F3A48D;" d="M124.478,172.746c-9.774,0-17.771,7.997-17.771,17.771v4.557c-4.026,0-7.29,3.264-7.29,7.291
						c0,4.026,3.264,7.29,7.29,7.29c0.519,0,1.024-0.058,1.513-0.162c2.762,6.248,11.2,10.642,18.44,10.642
						c9.774,0,15.588-7.997,15.588-17.77v-11.847C142.249,180.743,134.252,172.746,124.478,172.746z"/>
					<g>
						<g>
							
								<path style="fill:none;stroke:#272726;stroke-width:0.9696;stroke-linecap:round;stroke-linejoin:round;stroke-miterlimit:10;" d="
								M116.215,196.684c0,0,3.376-4.534,7.91,0"/>
							<circle style="fill:#272726;" cx="120.169" cy="197.263" r="1.586"/>
							
								<path style="fill:none;stroke:#272726;stroke-width:0.9696;stroke-linecap:round;stroke-linejoin:round;stroke-miterlimit:10;" d="
								M132.363,196.684c0,0,3.376-4.534,7.91,0"/>
							
								<path style="fill:none;stroke:#272726;stroke-width:0.9696;stroke-linecap:round;stroke-linejoin:round;stroke-miterlimit:10;" d="
								M116.215,192.008c0,0,3.376-4.534,7.91,0"/>
							
								<path style="fill:none;stroke:#272726;stroke-width:0.9696;stroke-linecap:round;stroke-linejoin:round;stroke-miterlimit:10;" d="
								M132.363,192.008c0,0,3.376-4.534,7.91,0"/>
							<path style="fill:#272726;" d="M134.732,197.263c0,0.876,0.71,1.586,1.586,1.586c0.876,0,1.586-0.71,1.586-1.586
								c0-0.876-0.71-1.586-1.586-1.586C135.442,195.677,134.732,196.387,134.732,197.263z"/>
						</g>
						
							<path style="fill:none;stroke:#272726;stroke-width:0.9696;stroke-linecap:round;stroke-linejoin:round;stroke-miterlimit:10;" d="
							M129.232,194.669c0,0,0.247,3.877,1.895,6.596s-0.082,4.284-1.895,3.296"/>
						<path style="fill:#272726;" d="M126.368,209.327c0,0.95,1.283,1.39,2.865,1.39c1.582,0,2.865-0.44,2.865-1.39
							c0-0.95-1.283-2.05-2.865-2.05C127.65,207.277,126.368,208.377,126.368,209.327z"/>
					</g>
					<path style="fill:#272726;" d="M103.052,196.063l6.899,7.168c0-14.409,2.176-28.802,17.573-28.802
						c10.878,0,14.086,11.402,14.086,11.402s0.354-13.159-12.912-16.93c-5.343-1.519-11.186-0.784-15.837,2.254
						C100.748,179.065,103.052,196.063,103.052,196.063z"/>
				</g>
				<path style="fill:#F3A48D;" d="M119.156,324.07c0.929-1.901,2.808-3.157,4.92-3.275c4.967-0.278,13.609-0.544,13.952,0.943
					c0.429,1.86-7.368,2.482-7.368,2.482s11.493,7.39,10.301,8.964c-1.192,1.574-8.799-4.006-8.799-4.006s8.656,6.653,7.726,8.226
					c-0.93,1.574-9.443-5.007-9.443-5.007s6.796,5.151,5.866,6.581c-0.93,1.431-7.94-4.221-7.94-4.221s4.721,4.006,3.863,4.936
					c-0.858,0.93-7.726-4.149-10.873-7.654c-0.542-0.604-1.01-1.14-1.413-1.613C118.438,328.654,118.134,326.162,119.156,324.07
					L119.156,324.07z"/>
				<path style="fill:#F3A48D;" d="M136.197,318.058c-0.929-1.901-2.808-3.157-4.92-3.275c-4.967-0.278-13.609-0.544-13.952,0.943
					c-0.429,1.86,7.368,2.482,7.368,2.482s-11.493,7.39-10.301,8.964c1.192,1.574,8.799-4.006,8.799-4.006s-8.656,6.653-7.726,8.226
					c0.93,1.574,9.443-5.007,9.443-5.007s-6.796,5.151-5.866,6.581c0.93,1.431,7.94-4.22,7.94-4.22s-4.721,4.006-3.863,4.936
					c0.858,0.93,7.726-4.149,10.873-7.654c0.542-0.604,1.01-1.14,1.413-1.613C136.915,322.641,137.219,320.149,136.197,318.058
					L136.197,318.058z"/>
				<path style="fill:#317283;" d="M143.485,424.399h17.052c0,0,15.554,3.992,15.554,14.055c-14.553,0-32.606,0-32.606,0V424.399z"
					/>
				<path style="fill:#317283;" d="M181.544,424.399h17.052c0,0,15.554,3.992,15.554,14.055c-14.553,0-32.606,0-32.606,0V424.399z"
					/>
				<path style="fill:#317283;" d="M101.771,228.178c0,0-18.584,2.117-19.122,31.688c-0.538,29.572,0,19.818,0,19.818l24.94,8.483
					C107.59,288.167,113.035,246.688,101.771,228.178z"/>
				<path style="fill:#272726;" d="M114.513,185.683h25.562c0,0,0.467-14.079-9.891-14.079
					C119.825,171.603,114.513,176.714,114.513,185.683z"/>
				
					<path style="fill:none;stroke:#272726;stroke-width:0.9696;stroke-linecap:round;stroke-linejoin:round;stroke-miterlimit:10;" d="
					M104.978,287.313c0,0,4.338-20.322,1.489-42.124"/>
				
					<path style="fill:none;stroke:#272726;stroke-width:0.9696;stroke-linecap:round;stroke-linejoin:round;stroke-miterlimit:10;" d="
					M143.485,245.188c0,0,2.824,11.052,1.942,39.643"/>
				
					<path style="fill:none;stroke:#272726;stroke-width:0.9696;stroke-linecap:round;stroke-linejoin:round;stroke-miterlimit:10;" d="
					M148.352,327.269c0,0,10.401,7.528,13.971,11.747c3.57,4.218,2.533,15.992,2.533,15.992"/>
				
					<path style="fill:none;stroke:#272726;stroke-width:0.9696;stroke-linecap:round;stroke-linejoin:round;stroke-miterlimit:10;" d="
					M131.277,314.782c0,0-13.915-1.143-13.952,0.943c-0.037,2.086,8.225,2.188,8.225,2.188s-13.194,7.164-11.158,9.258
					c2.036,2.094,8.799-4.006,8.799-4.006s-8.531,6.96-7.726,8.226c0.806,1.266,9.443-5.007,9.443-5.007s-7.569,5.262-5.866,6.581
					c1.703,1.319,7.94-4.22,7.94-4.22s-4.647,4.905-3.863,4.936c0.784,0.03,3.173-0.863,10.873-7.654"/>
				
					<line style="fill:none;stroke:#272726;stroke-width:0.9696;stroke-linecap:round;stroke-linejoin:round;stroke-miterlimit:10;" x1="82.435" y1="274.081" x2="106.058" y2="280.792"/>
				
					<line style="fill:none;stroke:#272726;stroke-width:0.9696;stroke-linecap:round;stroke-linejoin:round;stroke-miterlimit:10;" x1="145.576" y1="277.784" x2="159.569" y2="274.081"/>
				
					<line style="fill:none;stroke:#272726;stroke-width:0.9696;stroke-linecap:round;stroke-linejoin:round;stroke-miterlimit:10;" x1="143.485" y1="435.361" x2="175.561" y2="435.361"/>
				
					<line style="fill:none;stroke:#272726;stroke-width:0.9696;stroke-linecap:round;stroke-linejoin:round;stroke-miterlimit:10;" x1="181.544" y1="435.361" x2="214.15" y2="435.361"/>
				
					<line style="fill:none;stroke:#272726;stroke-width:0.9696;stroke-linecap:round;stroke-linejoin:round;stroke-miterlimit:10;" x1="162.233" y1="435.361" x2="163.531" y2="425.391"/>
				
					<line style="fill:none;stroke:#272726;stroke-width:0.9696;stroke-linecap:round;stroke-linejoin:round;stroke-miterlimit:10;" x1="199.686" y1="435.361" x2="200.984" y2="425.391"/>
			</g>
		</g>
	</g>
</g>
</svg>
