<svg width="70" height="71" viewBox="0 0 70 71" fill="none" xmlns="http://www.w3.org/2000/svg">
<g id="undraw_having_fun_re_vj4h 1" clip-path="url(#clip0_884_1404)">
<path id="Vector" d="M11.687 24.592C11.5238 24.6109 11.3596 24.6152 11.1958 24.6051C11.1679 24.6016 11.1399 24.6108 11.1178 24.6308C11.0957 24.6507 11.0814 24.6798 11.0779 24.7118L10.7645 27.4071C10.7404 27.6027 10.6705 27.7873 10.5623 27.941C10.4731 28.0634 10.4068 28.2055 10.3675 28.3585C10.3282 28.5115 10.3168 28.6722 10.3339 28.8305V33.4089C10.3339 33.4089 10.3137 34.0194 10.7227 34.0194C11.2123 34.0899 11.7076 34.0899 12.1972 34.0194C12.1972 34.0194 12.5247 33.9483 12.5247 33.385V28.8768C12.5497 28.7195 12.5445 28.5579 12.5096 28.4031C12.4747 28.2483 12.4109 28.1041 12.3225 27.9805C12.2179 27.8261 12.1503 27.6431 12.1264 27.4496L11.8009 24.6979C11.7972 24.6669 11.7834 24.6388 11.7623 24.6191C11.7411 24.5994 11.7142 24.5897 11.687 24.592V24.592Z" fill="white"/>
<path id="Vector_2" d="M11.4586 34.1494C11.2112 34.1495 10.964 34.1318 10.7185 34.0966C10.6636 34.0981 10.6091 34.0866 10.5583 34.0628C10.5075 34.0389 10.4616 34.0033 10.4234 33.9581C10.2569 33.7599 10.2661 33.4204 10.2666 33.406L10.2666 28.8352C10.2492 28.6671 10.2619 28.4968 10.3039 28.3345C10.3458 28.1723 10.4162 28.0215 10.5107 27.8915C10.6109 27.7488 10.6755 27.5777 10.6978 27.3963L11.0111 24.7015C11.0172 24.6497 11.0407 24.6026 11.0766 24.5703C11.1124 24.538 11.1578 24.5229 11.2032 24.5283C11.3623 24.5379 11.5219 24.5335 11.6804 24.5151L11.6823 24.5149C11.7265 24.5112 11.7703 24.527 11.8048 24.5591C11.8392 24.5911 11.8618 24.637 11.8678 24.6874L12.1933 27.4392C12.2157 27.6192 12.2786 27.7894 12.3758 27.933C12.4695 28.0642 12.5373 28.2171 12.5746 28.3812C12.612 28.5453 12.618 28.7167 12.5922 28.8837V33.385C12.5922 34.0051 12.2136 34.0945 12.2098 34.0953C11.9606 34.1313 11.7097 34.1494 11.4586 34.1494V34.1494ZM11.1867 24.682C11.1767 24.6814 11.1668 24.6852 11.1591 24.6925C11.1513 24.6998 11.1462 24.7101 11.1448 24.7215L10.8314 27.4173C10.8056 27.627 10.7308 27.8247 10.6149 27.9896C10.5315 28.104 10.4696 28.2368 10.4327 28.3798C10.3959 28.5228 10.3851 28.6729 10.4008 28.8209L10.4014 28.8304V33.4089C10.4012 33.4146 10.3941 33.7009 10.5208 33.8513C10.547 33.8819 10.5785 33.9058 10.6133 33.9215C10.6481 33.9371 10.6855 33.9442 10.7228 33.9421L10.7312 33.9427C11.2152 34.0124 11.7049 34.0124 12.1889 33.9427C12.1953 33.9409 12.4574 33.8724 12.4574 33.385L12.4585 28.863C12.4818 28.7167 12.4771 28.5664 12.4446 28.4224C12.4121 28.2785 12.3527 28.1444 12.2705 28.0294C12.1582 27.864 12.0856 27.6679 12.0598 27.4604L11.7342 24.7082C11.7328 24.6969 11.7278 24.6867 11.7201 24.6794C11.7124 24.6722 11.7026 24.6685 11.6927 24.669C11.5264 24.6881 11.3591 24.6925 11.1923 24.6823C11.1904 24.6821 11.1886 24.682 11.1867 24.682H11.1867Z" fill="#3F3D56"/>
<path id="Vector_3" d="M11.1924 28.9125H11.6891C11.8865 28.9125 12.0759 29.0024 12.2156 29.1626C12.3552 29.3227 12.4337 29.5399 12.4337 29.7663V31.9092C12.4337 32.1356 12.3552 32.3528 12.2156 32.5129C12.0759 32.6731 11.8865 32.763 11.6891 32.763H11.1924C10.9949 32.763 10.8055 32.6731 10.6659 32.5129C10.5262 32.3528 10.4478 32.1356 10.4478 31.9092V29.7664C10.4478 29.6542 10.467 29.5432 10.5044 29.4396C10.5419 29.336 10.5967 29.2419 10.6659 29.1626C10.735 29.0833 10.8171 29.0204 10.9074 28.9775C10.9978 28.9346 11.0946 28.9125 11.1924 28.9125V28.9125Z" fill="#B5838D"/>
<path id="Vector_4" d="M2.06181 68.2687H3.68102L4.45134 61.1071L2.06152 61.1072L2.06181 68.2687Z" fill="#9F616A"/>
<path id="Vector_5" d="M1.64868 67.6625L4.83749 67.6624H4.83762C5.37656 67.6624 5.89343 67.9079 6.27453 68.3449C6.65562 68.7819 6.86973 69.3746 6.86977 69.9926V70.0683L1.64878 70.0685L1.64868 67.6625Z" fill="#2F2E41"/>
<path id="Vector_6" d="M1.04376 42.689C1.04376 42.689 0.342011 43.5986 1.50401 47.1443L1.29933 66.5865L5.06499 66.5023L5.89273 57.0185L7.39978 43.1791L1.04376 42.689Z" fill="#2F2E41"/>
<path id="Vector_7" d="M8.69132 45.377L8.65009 45.3697C3.83277 44.5273 0.197527 43.7196 0.16137 43.7115L0.116211 43.7015L1.37904 40.1794C1.36906 39.8114 1.0957 29.4766 1.619 26.5073C2.12558 23.6328 4.51343 23.1618 4.78554 23.1174L5.05877 22.0793L8.51061 24.139L9.11264 26.5149L9.23493 33.0267L8.69132 45.377Z" fill="#3F3D56"/>
<path id="Vector_8" d="M10.7704 31.9742C10.6149 31.9742 10.4612 32.0111 10.3188 32.0825C10.1763 32.1539 10.0483 32.2583 9.94285 32.3893H4.14086L2.01562 32.908L2.36456 35.994L9.92462 34.1297C10.0498 34.2917 10.2084 34.4153 10.3859 34.489C10.5634 34.5628 10.7542 34.5844 10.9409 34.5518C11.1275 34.5192 11.3041 34.4336 11.4545 34.3026C11.6048 34.1717 11.7242 33.9997 11.8017 33.8022C11.8792 33.6048 11.9123 33.3883 11.898 33.1724C11.8837 32.9565 11.8225 32.7481 11.7199 32.5664C11.6174 32.3846 11.4768 32.2352 11.3109 32.1317C11.145 32.0283 10.9592 31.9741 10.7704 31.9742H10.7704Z" fill="#9F616A"/>
<path id="Vector_9" d="M10.8207 20.9128C11.5614 19.3589 11.0634 17.4107 9.70833 16.5613C8.35326 15.7119 6.65426 16.2829 5.91351 17.8368C5.17276 19.3906 5.67077 21.3388 7.02584 22.1883C8.38091 23.0377 10.0799 22.4666 10.8207 20.9128Z" fill="#9F616A"/>
<path id="Vector_10" d="M5.73717 16.8114L5.60161 16.4986L6.28372 16.11C6.28372 16.11 7.03619 14.706 8.39781 15.1006C9.75944 15.4951 10.3721 15.7312 10.3721 15.7312L11.0524 16.1238L10.711 16.5134L11.3236 16.7495L10.9143 16.9827L11.3905 17.2965L11.1341 18.9054C11.1341 18.9054 10.7084 17.6851 9.88985 18.1515C9.07133 18.6178 7.57414 17.9104 7.57414 17.9104L6.2734 20.797C6.2734 20.797 6.00506 19.7851 5.52662 20.0549C5.52661 20.0549 4.30433 17.8228 5.73717 16.8114Z" fill="#2F2E41"/>
<path id="Vector_11" d="M2.40164 36.5726L1.73813 34.3094L1.57764 26.7653L1.86034 25.6949C1.9621 25.3097 2.13064 24.9519 2.35585 24.6432C2.58107 24.3344 2.85833 24.081 3.17101 23.898C3.4837 23.7151 3.82538 23.6064 4.17557 23.5785C4.52577 23.5506 4.87727 23.604 5.20901 23.7357C5.54076 23.8673 5.84592 24.0743 6.1062 24.3444C6.36649 24.6145 6.57655 24.9421 6.72378 25.3075C6.87102 25.6729 6.95241 26.0686 6.96307 26.471C6.97373 26.8733 6.91345 27.274 6.78583 27.649L5.27055 32.1015L5.34757 32.2729L8.63044 32.2425L9.79656 34.6494L2.40164 36.5726Z" fill="#3F3D56"/>
<path id="Vector_12" d="M35.2473 35.6426C35.3698 35.548 35.4727 35.4237 35.5488 35.2785C35.6249 35.1334 35.6723 34.9708 35.6877 34.8024C35.7031 34.6339 35.6861 34.4636 35.6379 34.3035C35.5897 34.1434 35.5115 33.9974 35.4087 33.8757L37.0269 30.2002L35.1734 30.4467L33.9209 33.8992C33.7541 34.1107 33.6607 34.385 33.6585 34.6702C33.6563 34.9554 33.7453 35.2316 33.9088 35.4465C34.0723 35.6614 34.2989 35.8 34.5455 35.8362C34.7922 35.8723 35.0419 35.8035 35.2473 35.6426V35.6426Z" fill="#FFB7B7"/>
<path id="Vector_13" d="M48.2249 61.6779L46.7665 61.6778L46.0728 55.2275L48.2251 55.2278L48.2249 61.6779Z" fill="#FFB7B7"/>
<path id="Vector_14" d="M48.5968 63.2989L43.8945 63.2987V63.2305C43.8946 62.6739 44.0874 62.1401 44.4306 61.7466C44.7739 61.353 45.2394 61.1319 45.7248 61.1318H45.7249L48.5969 61.132L48.5968 63.2989Z" fill="#2F2E41"/>
<path id="Vector_15" d="M40.2549 61.6779L38.7966 61.6778L38.1028 55.2275L40.2552 55.2278L40.2549 61.6779Z" fill="#FFB7B7"/>
<path id="Vector_16" d="M40.2702 63.2989L35.5679 63.2987V63.2305C35.5679 62.6739 35.7607 62.1401 36.104 61.7466C36.4472 61.353 36.9127 61.1319 37.3981 61.1318H37.3983L40.2703 61.132L40.2702 63.2989Z" fill="#2F2E41"/>
<path id="Vector_17" d="M40.1354 34.4354L38.708 38.2063L37.5305 59.8806L40.5043 59.7442L41.3165 49.4119L43.8221 40.2095L45.2624 50.4688L45.8573 59.4714L48.3179 59.5935L49.2985 34.4354H40.1354Z" fill="#2F2E41"/>
<path id="Vector_18" d="M47.271 15.8281L43.1338 15.9468L40.7048 17.3766L40.5715 27.9256L39.0566 35.2088C39.0566 35.2088 48.5218 35.9558 49.8303 34.8646L48.2839 26.5441L50.358 17.552L47.271 15.8281Z" fill="#B5838D"/>
<path id="Vector_19" d="M41.3436 17.5514L40.9585 17.2532C40.9585 17.2532 39.3629 17.8016 38.8913 20.2412C38.8913 20.2412 38.5304 21.4652 38.3721 22.3068C38.1905 23.272 34.1799 32.1381 34.1799 32.1381L36.5811 32.928L40.9833 24.7645L41.3436 17.5514Z" fill="#B5838D"/>
<path id="Vector_20" d="M50.2932 36.9953C50.1981 36.8656 50.1291 36.7136 50.0909 36.55C50.0526 36.3864 50.0461 36.2152 50.0718 36.0484C50.0976 35.8816 50.1549 35.7233 50.2397 35.5846C50.3245 35.446 50.4349 35.3303 50.5629 35.2458L49.8914 31.2012L51.6137 32.0242L51.9873 35.7389C52.0968 35.995 52.1206 36.2882 52.0542 36.563C51.9878 36.8378 51.8357 37.0751 51.6269 37.23C51.4181 37.3848 51.167 37.4465 50.9211 37.4032C50.6753 37.36 50.4519 37.2148 50.2932 36.9953V36.9953Z" fill="#FFB7B7"/>
<path id="Vector_21" d="M49.7354 17.6778L50.1773 17.5129C50.1773 17.5129 51.5791 18.5446 51.4458 21.0388C51.4458 21.0388 51.4983 22.3295 51.4481 23.1884C51.3906 24.1737 52.1619 33.9642 52.1619 33.9642H49.6638L48.5933 25.0981L49.7354 17.6778Z" fill="#B5838D"/>
<path id="Vector_22" d="M48.2865 11.4023C48.2865 12.0527 48.1182 12.6886 47.8031 13.2294C47.488 13.7702 47.0401 14.1917 46.516 14.4406C45.992 14.6895 45.4153 14.7547 44.859 14.6278C44.3027 14.5009 43.7916 14.1877 43.3905 13.7277C42.9895 13.2678 42.7163 12.6818 42.6056 12.0439C42.495 11.406 42.5518 10.7447 42.7688 10.1438C42.9859 9.54287 43.3535 9.02926 43.8251 8.6679C44.2968 8.30653 44.8513 8.11366 45.4185 8.11366V8.11366C46.1772 8.11149 46.9056 8.45502 47.4435 9.06869C47.9813 9.68236 48.2846 10.5159 48.2864 11.3859C48.2865 11.3914 48.2865 11.3968 48.2865 11.4023Z" fill="#FFB7B7"/>
<path id="Vector_23" d="M42.5601 6.98502C42.8961 6.15661 43.5462 6.32039 44.1148 6.6012C44.8349 6.41805 45.5197 5.86973 46.2955 6.19401C47.0597 7.46856 49.6256 7.09357 49.0797 9.16855C49.079 9.66576 49.8956 9.37635 49.753 10.1907C50.1856 11.7578 48.1915 14.7257 47.0468 14.1007C47.3299 13.5058 47.9766 12.1543 46.9957 12.0203C44.8856 14.2717 46.778 7.73314 44.1267 9.63466C43.2488 10.5559 42.047 7.90649 42.5601 6.98502Z" fill="#2F2E41"/>
<path id="Vector_24" d="M50.7952 37.3233C50.9318 37.3548 51.0728 37.3516 51.2082 37.3139C51.3436 37.2761 51.4701 37.2048 51.5789 37.1049C51.6876 37.0051 51.776 36.8791 51.8376 36.7358C51.8993 36.5925 51.9329 36.4355 51.9359 36.2758L59.1371 28.5036L57.5168 27.0215L50.9356 35.147C50.7012 35.1589 50.4788 35.269 50.3105 35.4564C50.1422 35.6437 50.0397 35.8954 50.0224 36.1637C50.0051 36.4319 50.0742 36.6982 50.2166 36.9119C50.3591 37.1256 50.5649 37.272 50.7952 37.3233V37.3233Z" fill="#9F616A"/>
<path id="Vector_25" d="M58.1165 29.7598L56.7155 27.8771C56.6757 27.8236 56.6464 27.7608 56.6296 27.693C56.6128 27.6253 56.6089 27.5542 56.6182 27.4846C56.6276 27.415 56.6499 27.3485 56.6836 27.2897C56.7174 27.2309 56.7618 27.1811 56.8138 27.1437L58.6377 25.8345C58.8779 25.6021 59.1886 25.4884 59.5018 25.5184C59.8149 25.5483 60.1049 25.7195 60.3082 25.9943C60.5114 26.269 60.6114 26.625 60.5861 26.9842C60.5608 27.3433 60.4123 27.6763 60.1732 27.9101L58.7636 29.7639C58.7232 29.817 58.6734 29.8594 58.6174 29.8884C58.5614 29.9174 58.5007 29.9322 58.4393 29.9318C58.3778 29.9314 58.3172 29.9158 58.2615 29.8862C58.2058 29.8565 58.1564 29.8134 58.1165 29.7598V29.7598Z" fill="#CBCBCB"/>
<path id="Vector_26" d="M54.3493 68.1114L52.5886 68.1113L51.751 60.324L54.3496 60.3241L54.3493 68.1114Z" fill="#9F616A"/>
<path id="Vector_27" d="M54.7983 70.0685L49.1211 70.0683V69.986C49.1211 69.314 49.354 68.6695 49.7684 68.1943C50.1827 67.7192 50.7448 67.4522 51.3308 67.4521H51.3309L54.7984 67.4523L54.7983 70.0685Z" fill="#2F2E41"/>
<path id="Vector_28" d="M68.4234 68.1114L66.6628 68.1113L65.8252 60.324L68.4238 60.3241L68.4234 68.1114Z" fill="#9F616A"/>
<path id="Vector_29" d="M68.8725 70.0685L63.1953 70.0683V69.986C63.1954 69.314 63.4282 68.6695 63.8426 68.1943C64.257 67.7192 64.819 67.4522 65.405 67.4521H65.4052L68.8726 67.4523L68.8725 70.0685Z" fill="#2F2E41"/>
<path id="Vector_30" d="M63.6874 33.8878L65.4621 26.3689L63.1597 24.8849H59.946L58.696 26.4184C58.696 26.4184 56.6077 28.0845 57.1131 29.9305L57.9286 34.1352L56.6814 40.8132L50.3978 50.8055L48.9104 60.6205L54.7656 62.3807L61.0972 48.0848L64.167 63.9142L69.8781 63.5848L67.9101 44.3917C67.9101 44.3917 67.3491 38.5448 64.4086 34.8941L63.6874 33.8878Z" fill="#2F2E41"/>
<path id="Vector_31" d="M67.3526 40.5405C67.4515 40.428 67.5278 40.292 67.576 40.1421C67.6242 39.9922 67.6431 39.832 67.6315 39.6728C67.6199 39.5136 67.5779 39.3592 67.5086 39.2206C67.4393 39.082 67.3444 38.9625 67.2305 38.8705L65.8534 28.2178L63.877 28.9334L65.8554 39.1931C65.7334 39.4229 65.689 39.6959 65.7308 39.9606C65.7726 40.2253 65.8976 40.4632 66.0821 40.6293C66.2667 40.7954 66.4979 40.8781 66.7321 40.8617C66.9662 40.8453 67.187 40.731 67.3526 40.5405V40.5405Z" fill="#9F616A"/>
<path id="Vector_32" d="M66.1939 29.8897L64.0498 30.1732C63.9888 30.1813 63.927 30.1742 63.8686 30.1524C63.8102 30.1306 63.7566 30.0946 63.7114 30.0469C63.6662 29.9992 63.6305 29.9409 63.6068 29.876C63.583 29.8111 63.5717 29.741 63.5737 29.6706L63.6432 27.2045C63.609 26.8463 63.7 26.4873 63.8963 26.206C64.0926 25.9247 64.3782 25.7442 64.6904 25.7039C65.0027 25.6637 65.3161 25.7671 65.5619 25.9914C65.8078 26.2158 65.966 26.5427 66.002 26.9006L66.5577 29.2761C66.5736 29.3441 66.5766 29.4153 66.5663 29.4847C66.5561 29.5541 66.5329 29.6202 66.4984 29.6785C66.4638 29.7367 66.4188 29.7857 66.3662 29.8222C66.3137 29.8586 66.2549 29.8817 66.1939 29.8897V29.8897Z" fill="#CBCBCB"/>
<path id="Vector_33" d="M57.959 22.7466V19.5786C57.959 18.4527 58.349 17.3729 59.0433 16.5768C59.7376 15.7806 60.6792 15.3334 61.6611 15.3334C62.643 15.3334 63.5846 15.7806 64.2789 16.5768C64.9732 17.3729 65.3632 18.4527 65.3632 19.5786V22.7466C65.3631 22.8978 65.3106 23.0427 65.2174 23.1496C65.1242 23.2565 64.9978 23.3167 64.8659 23.3168H58.4563C58.3244 23.3167 58.198 23.2565 58.1048 23.1496C58.0116 23.0427 57.9591 22.8978 57.959 22.7466V22.7466Z" fill="#2F2E41"/>
<path id="Vector_34" d="M62.2023 22.8617C63.5176 22.0372 64.001 20.1461 63.282 18.6378C62.563 17.1295 60.9138 16.5752 59.5984 17.3997C58.2831 18.2242 57.7997 20.1153 58.5187 21.6236C59.2378 23.1319 60.8869 23.6862 62.2023 22.8617Z" fill="#9F616A"/>
<path id="Vector_35" d="M57.0833 19.832C57.0841 18.9417 57.393 18.0881 57.942 17.4586C58.491 16.829 59.2354 16.4749 60.0118 16.4739H60.5644C61.3408 16.4749 62.0852 16.829 62.6342 17.4586C63.1832 18.0881 63.492 18.9417 63.4929 19.832V19.8954H62.3252L61.9269 18.6165L61.8472 19.8954H61.2437L61.0428 19.2501L61.0026 19.8954H57.0833V19.832Z" fill="#2F2E41"/>
<path id="Vector_36" d="M60.6332 23.6731C60.5783 23.5879 60.5456 23.4868 60.5387 23.3813C60.5318 23.2757 60.5511 23.1701 60.5942 23.0766C61.1798 21.7995 61.9996 19.4396 60.9114 17.9843L60.8332 17.8798H63.9924V23.3186L61.1225 23.8993C61.0934 23.9052 61.064 23.9082 61.0345 23.9082C60.9562 23.9082 60.8789 23.8869 60.8092 23.846C60.7394 23.8051 60.6791 23.7459 60.6332 23.6731V23.6731Z" fill="#2F2E41"/>
<path id="Vector_37" d="M31.5958 26.5693C31.5557 26.6166 31.519 26.6673 31.4859 26.7212L26.3384 26.5768L25.7379 25.3185L23.9634 26.1095L24.8377 28.4555C24.9083 28.645 25.0306 28.8032 25.1863 28.9062C25.342 29.0092 25.5226 29.0515 25.7011 29.0268L31.5168 28.2212C31.654 28.4203 31.8408 28.5669 32.0524 28.6413C32.264 28.7158 32.4903 28.7146 32.7013 28.6379C32.9123 28.5612 33.0979 28.4127 33.2335 28.2121C33.369 28.0115 33.4482 27.7684 33.4603 27.515C33.4724 27.2616 33.4169 27.0099 33.3013 26.7936C33.1857 26.5772 33.0153 26.4063 32.8129 26.3036C32.6105 26.201 32.3856 26.1714 32.1682 26.2189C31.9508 26.2663 31.7511 26.3886 31.5958 26.5693H31.5958Z" fill="#FFB7B7"/>
<path id="Vector_38" d="M14.8157 62.4161H16.5082L17.3134 54.9302L14.8154 54.9303L14.8157 62.4161Z" fill="#FFB7B7"/>
<path id="Vector_39" d="M14.3838 61.7825L17.717 61.7823H17.7171C18.2805 61.7824 18.8208 62.039 19.2191 62.4958C19.6175 62.9526 19.8413 63.5721 19.8413 64.2181V64.2972L14.3839 64.2975L14.3838 61.7825Z" fill="#2F2E41"/>
<path id="Vector_40" d="M30.1844 62.3731L31.7408 61.6106L29.9167 54.3636L27.6196 55.489L30.1844 62.3731Z" fill="#FFB7B7"/>
<path id="Vector_41" d="M29.5703 61.9848L32.6355 60.4832L32.6356 60.4831C33.1537 60.2294 33.7385 60.222 34.2613 60.4626C34.7841 60.7033 35.2022 61.1722 35.4235 61.7662L35.4506 61.839L30.432 64.2975L29.5703 61.9848Z" fill="#2F2E41"/>
<path id="Vector_42" d="M23.0426 28.1909L23.1649 30.4651L19.5875 30.9042L15.844 31.3635L16.9458 27.9102L23.0426 28.1909Z" fill="#FFB7B7"/>
<path id="Vector_43" d="M23.1681 29.007C23.1276 28.9887 19.0867 27.1863 16.6047 28.6601L16.5437 28.6964L16.0485 25.9016L15.7664 19.8931L17.6023 18.8984L18.1078 17.6L21.5508 17.3663L22.2584 18.479L24.6673 19.3843L23.2276 29.0339L23.1681 29.007Z" fill="#E4E4E4"/>
<path id="Vector_44" d="M23.2947 23.5835L23.7205 19.7464L24.6903 19.408L24.7066 19.4149C24.729 19.4243 25.256 19.6556 25.4003 20.4922C25.5387 21.2953 26.5816 26.2926 26.5921 26.343L26.6026 26.393L24.1523 27.5172L23.2947 23.5835Z" fill="#E4E4E4"/>
<path id="Vector_45" d="M28.9238 61.0573L32.1856 60.2901L26.9724 43.795L25.1882 38.1688C25.1882 38.1688 24.0566 33.6577 23.5453 31.9119L23.2367 29.5696L15.9327 30.4966C15.9327 30.4966 13.8927 33.932 14.5125 39.5315L14.2322 60.5778L17.4939 60.7696L20.2259 39.5434L25.0209 51.1794C25.0209 51.1794 26.5323 56.145 27.6136 57.2213L28.9238 61.0573Z" fill="#2F2E41"/>
<path id="Vector_46" d="M18.8618 31.2778C18.8044 31.2762 18.7469 31.2799 18.69 31.2887L15.2825 26.8621L15.6789 25.5017L13.9665 24.5474L13.0607 26.8776C12.9875 27.0659 12.9696 27.2762 13.0096 27.4772C13.0495 27.6781 13.1453 27.8588 13.2824 27.992L17.7518 32.3345C17.7177 32.5853 17.751 32.842 17.8472 33.0705C17.9435 33.299 18.0981 33.4885 18.2906 33.6138C18.4831 33.7391 18.7043 33.7942 18.9247 33.7718C19.1452 33.7494 19.3545 33.6506 19.5248 33.4885C19.695 33.3264 19.8183 33.1087 19.878 32.8644C19.9378 32.62 19.9312 32.3606 19.8593 32.1206C19.7873 31.8806 19.6533 31.6714 19.4751 31.5209C19.297 31.3703 19.083 31.2855 18.8618 31.2778V31.2778Z" fill="#FFB7B7"/>
<path id="Vector_47" d="M13.658 25.2031L14.9901 20.8521C15.1398 20.3392 15.3274 20.0276 15.5477 19.926C15.5911 19.9036 15.6381 19.8918 15.6856 19.8913C15.7332 19.8907 15.7804 19.9016 15.8241 19.923L16.4215 20.7884L16.9758 23.4589L15.5544 27.2929L13.658 25.2031Z" fill="#E4E4E4"/>
<path id="Vector_48" d="M22.4753 16.4659H16.6273C16.507 16.4658 16.3917 16.4109 16.3066 16.3134C16.2216 16.2158 16.1737 16.0836 16.1736 15.9456V13.0552C16.1736 12.028 16.5294 11.0428 17.1629 10.3164C17.7963 9.59007 18.6555 9.18201 19.5513 9.18201C20.4471 9.18201 21.3063 9.59007 21.9397 10.3164C22.5732 11.0428 22.929 12.028 22.929 13.0552V15.9456C22.9289 16.0836 22.881 16.2158 22.796 16.3134C22.7109 16.4109 22.5956 16.4658 22.4753 16.4659V16.4659Z" fill="#2F2E41"/>
<path id="Vector_49" d="M20.2455 16.3986C21.6132 16.3986 22.7219 15.1272 22.7219 13.5589C22.7219 11.9906 21.6132 10.7192 20.2455 10.7192C18.8778 10.7192 17.769 11.9906 17.769 13.5589C17.769 15.1272 18.8778 16.3986 20.2455 16.3986Z" fill="#FFB7B7"/>
<path id="Vector_50" d="M23.7281 13.3443H20.1522L20.1155 12.7556L19.9322 13.3443H19.3816L19.3089 12.1775L18.9455 13.3443H17.8801V13.2865C17.8809 12.4742 18.1627 11.6954 18.6636 11.1211C19.1645 10.5467 19.8436 10.2236 20.552 10.2227H21.0562C21.7646 10.2236 22.4437 10.5467 22.9447 11.1211C23.4456 11.6954 23.7273 12.4742 23.7281 13.2865L23.7281 13.3443Z" fill="#2F2E41"/>
<path id="Vector_51" d="M20.1231 17.0056C20.0961 17.0055 20.0693 17.0028 20.0428 16.9974L17.4243 16.4677V11.5054H20.3067L20.2354 11.6008C19.2425 12.9286 19.9905 15.0816 20.5247 16.2468C20.5641 16.3322 20.5817 16.4285 20.5754 16.5248C20.5691 16.6211 20.5392 16.7134 20.4892 16.791C20.4473 16.8575 20.3923 16.9115 20.3287 16.9488C20.265 16.9861 20.1945 17.0056 20.1231 17.0056V17.0056Z" fill="#2F2E41"/>
<path id="Vector_52" d="M51.4888 28.9333C51.3256 28.9522 51.1613 28.9565 50.9975 28.9464C50.9696 28.9429 50.9416 28.9522 50.9196 28.9721C50.8975 28.992 50.8832 29.0211 50.8796 29.0531L50.5662 31.7484C50.5421 31.944 50.4723 32.1286 50.3641 32.2824C50.2749 32.4047 50.2086 32.5468 50.1693 32.6998C50.13 32.8528 50.1185 33.0135 50.1356 33.1718V37.7502C50.1356 37.7502 50.1154 38.3607 50.5245 38.3607C51.014 38.4312 51.5094 38.4312 51.9989 38.3607C51.9989 38.3607 52.3264 38.2896 52.3264 37.7263V33.2181C52.3514 33.0608 52.3463 32.8992 52.3114 32.7444C52.2765 32.5897 52.2126 32.4454 52.1243 32.3218C52.0197 32.1674 51.9521 31.9844 51.9282 31.7909L51.6027 29.0392C51.599 29.0082 51.5852 28.9801 51.564 28.9604C51.5429 28.9407 51.516 28.9311 51.4888 28.9333V28.9333Z" fill="white"/>
<path id="Vector_53" d="M51.2604 38.4907C51.0129 38.4908 50.7657 38.4731 50.5202 38.438C50.4654 38.4394 50.4108 38.4279 50.36 38.4041C50.3093 38.3802 50.2633 38.3446 50.2251 38.2994C50.0587 38.1012 50.0679 37.7617 50.0684 37.7473L50.0683 33.1765C50.051 33.0084 50.0637 32.8381 50.1056 32.6758C50.1476 32.5136 50.218 32.3628 50.3125 32.2328C50.4126 32.0901 50.4773 31.919 50.4996 31.7376L50.8129 29.0429C50.819 28.991 50.8425 28.944 50.8783 28.9116C50.9142 28.8793 50.9596 28.8642 51.005 28.8696C51.1641 28.8793 51.3236 28.8748 51.4822 28.8564L51.484 28.8562C51.5283 28.8526 51.5721 28.8683 51.6065 28.9004C51.641 28.9324 51.6635 28.9783 51.6695 29.0287L51.9951 31.7805C52.0174 31.9605 52.0803 32.1307 52.1776 32.2743C52.2712 32.4056 52.3391 32.5584 52.3764 32.7225C52.4137 32.8866 52.4197 33.058 52.3939 33.225V37.7263C52.3939 38.3464 52.0154 38.4358 52.0116 38.4366C51.7624 38.4726 51.5115 38.4907 51.2604 38.4907V38.4907ZM50.9885 29.0233C50.9784 29.0227 50.9686 29.0265 50.9609 29.0338C50.9531 29.0411 50.948 29.0514 50.9465 29.0628L50.6331 31.7586C50.6074 31.9683 50.5325 32.166 50.4166 32.3309C50.3333 32.4453 50.2713 32.5781 50.2345 32.7211C50.1977 32.8641 50.1868 33.0143 50.2026 33.1623L50.2031 33.1718V37.7502C50.203 37.7559 50.1958 38.0422 50.3225 38.1926C50.3487 38.2232 50.3803 38.2471 50.4151 38.2628C50.4499 38.2784 50.4872 38.2855 50.5246 38.2834L50.533 38.284C51.017 38.3537 51.5066 38.3537 51.9906 38.284C51.997 38.2822 52.2591 38.2137 52.2591 37.7263L52.2602 33.2043C52.2836 33.058 52.2788 32.9077 52.2464 32.7637C52.2139 32.6198 52.1545 32.4857 52.0722 32.3707C51.96 32.2054 51.8873 32.0092 51.8616 31.8017L51.536 29.0495C51.5346 29.0382 51.5295 29.028 51.5218 29.0207C51.5142 29.0135 51.5044 29.0098 51.4945 29.0103C51.3282 29.0294 51.1609 29.0338 50.994 29.0236C50.9922 29.0234 50.9903 29.0233 50.9885 29.0233V29.0233Z" fill="#3F3D56"/>
<path id="Vector_54" d="M50.9942 33.2538H51.4908C51.6883 33.2538 51.8777 33.3437 52.0174 33.5039C52.157 33.664 52.2355 33.8812 52.2355 34.1077V36.2505C52.2355 36.4769 52.157 36.6941 52.0173 36.8542C51.8777 37.0144 51.6883 37.1043 51.4908 37.1043H50.9942C50.7967 37.1043 50.6073 37.0144 50.4676 36.8542C50.328 36.6941 50.2495 36.4769 50.2495 36.2505V34.1077C50.2495 33.8812 50.328 33.664 50.4676 33.5039C50.6073 33.3437 50.7967 33.2538 50.9942 33.2538V33.2538Z" fill="#B5838D"/>
<path id="Vector_55" d="M34.635 25.221C34.4718 25.2399 34.3076 25.2443 34.1438 25.2342C34.1159 25.2307 34.0879 25.2399 34.0658 25.2598C34.0437 25.2798 34.0294 25.3088 34.0258 25.3408L33.7125 28.0361C33.6884 28.2318 33.6185 28.4163 33.5103 28.5701C33.4211 28.6925 33.3548 28.8346 33.3155 28.9876C33.2762 29.1406 33.2648 29.3012 33.2819 29.4595V34.038C33.2819 34.038 33.2617 34.6484 33.6707 34.6484C34.1603 34.719 34.6556 34.719 35.1452 34.6484C35.1452 34.6484 35.4727 34.5773 35.4727 34.014V29.5059C35.4977 29.3486 35.4925 29.1869 35.4576 29.0322C35.4227 28.8774 35.3589 28.7332 35.2705 28.6095C35.1659 28.4551 35.0983 28.2721 35.0744 28.0786L34.7489 25.3269C34.7452 25.296 34.7314 25.2678 34.7102 25.2481C34.6891 25.2285 34.6622 25.2188 34.635 25.221V25.221Z" fill="white"/>
<path id="Vector_56" d="M34.4066 34.7785C34.1592 34.7785 33.912 34.7608 33.6665 34.7257C33.6116 34.7272 33.5571 34.7156 33.5063 34.6918C33.4555 34.668 33.4096 34.6323 33.3714 34.5872C33.2049 34.3889 33.2142 34.0494 33.2146 34.035L33.2146 29.4642C33.1972 29.2961 33.2099 29.1258 33.2519 28.9635C33.2938 28.8013 33.3642 28.6505 33.4587 28.5205C33.5589 28.3778 33.6235 28.2067 33.6458 28.0253L33.9591 25.3306C33.9653 25.2787 33.9887 25.2317 34.0246 25.1993C34.0604 25.167 34.1058 25.1519 34.1512 25.1574C34.3103 25.167 34.4699 25.1626 34.6284 25.1441L34.6303 25.144C34.6745 25.1403 34.7183 25.1561 34.7528 25.1881C34.7872 25.2201 34.8098 25.266 34.8158 25.3164L35.1413 28.0682C35.1637 28.2482 35.2266 28.4184 35.3238 28.562C35.4175 28.6933 35.4853 28.8462 35.5226 29.0103C35.56 29.1743 35.566 29.3457 35.5402 29.5127V34.014C35.5402 34.6341 35.1616 34.7235 35.1578 34.7244C34.9086 34.7604 34.6577 34.7784 34.4066 34.7785V34.7785ZM34.1347 25.311C34.1247 25.3104 34.1148 25.3142 34.1071 25.3215C34.0993 25.3288 34.0942 25.3392 34.0928 25.3505L33.7794 28.0463C33.7536 28.256 33.6788 28.4538 33.5629 28.6186C33.4795 28.733 33.4176 28.8659 33.3808 29.0089C33.3439 29.1519 33.3331 29.302 33.3488 29.45L33.3494 29.4595V34.0379C33.3492 34.0436 33.3421 34.33 33.4688 34.4803C33.495 34.5109 33.5265 34.5348 33.5613 34.5505C33.5961 34.5661 33.6334 34.5732 33.6708 34.5712L33.6792 34.5718C34.1632 34.6414 34.6529 34.6414 35.1369 34.5718C35.1432 34.57 35.4054 34.5014 35.4054 34.014L35.4065 29.492C35.4298 29.3457 35.4251 29.1954 35.3926 29.0515C35.3601 28.9075 35.3007 28.7734 35.2185 28.6584C35.1062 28.4931 35.0336 28.2969 35.0078 28.0895L34.6822 25.3373C34.6808 25.326 34.6758 25.3157 34.6681 25.3084C34.6604 25.3012 34.6506 25.2975 34.6407 25.2981C34.4744 25.3171 34.3071 25.3216 34.1403 25.3113C34.1384 25.3111 34.1366 25.311 34.1347 25.311V25.311Z" fill="#3F3D56"/>
<path id="Vector_57" d="M34.1404 29.5414H34.637C34.8345 29.5414 35.0239 29.6313 35.1636 29.7915C35.3032 29.9516 35.3817 30.1688 35.3817 30.3953V32.5381C35.3817 32.7645 35.3032 32.9817 35.1636 33.1418C35.0239 33.302 34.8345 33.3919 34.637 33.3919H34.1404C33.9429 33.3919 33.7535 33.302 33.6139 33.1418C33.4742 32.9817 33.3958 32.7645 33.3958 32.5381V30.3953C33.3958 30.1688 33.4742 29.9516 33.6139 29.7915C33.7535 29.6313 33.9429 29.5414 34.1404 29.5414V29.5414Z" fill="#B5838D"/>
<path id="Vector_58" d="M31.7784 21.2902C31.6151 21.3091 31.4509 21.3135 31.2871 21.3034C31.2592 21.2999 31.2312 21.3091 31.2091 21.329C31.1871 21.349 31.1727 21.3781 31.1692 21.41L30.8558 24.1053C30.8317 24.301 30.7618 24.4855 30.6536 24.6393C30.5644 24.7617 30.4981 24.9038 30.4588 25.0568C30.4195 25.2098 30.4081 25.3704 30.4252 25.5287V30.1072C30.4252 30.1072 30.405 30.7176 30.814 30.7176C31.3036 30.7882 31.7989 30.7882 32.2885 30.7176C32.2885 30.7176 32.616 30.6465 32.616 30.0832V25.5751C32.641 25.4178 32.6358 25.2561 32.6009 25.1014C32.566 24.9466 32.5022 24.8024 32.4138 24.6787C32.3093 24.5243 32.2417 24.3413 32.2177 24.1478L31.8922 21.3961C31.8885 21.3652 31.8747 21.337 31.8536 21.3173C31.8324 21.2977 31.8055 21.288 31.7784 21.2902V21.2902Z" fill="white"/>
<path id="Vector_59" d="M31.5499 30.8477C31.3025 30.8477 31.0553 30.8301 30.8098 30.7949C30.7549 30.7964 30.7004 30.7848 30.6496 30.761C30.5988 30.7372 30.5529 30.7015 30.5147 30.6564C30.3482 30.4581 30.3575 30.1186 30.3579 30.1042L30.3579 25.5334C30.3405 25.3653 30.3532 25.195 30.3952 25.0327C30.4372 24.8705 30.5075 24.7198 30.602 24.5897C30.7022 24.447 30.7668 24.2759 30.7892 24.0945L31.1025 21.3998C31.1086 21.348 31.132 21.3009 31.1679 21.2686C31.2037 21.2362 31.2491 21.2212 31.2945 21.2266C31.4536 21.2362 31.6132 21.2318 31.7717 21.2134L31.7736 21.2132C31.8178 21.2095 31.8616 21.2253 31.8961 21.2573C31.9305 21.2893 31.9531 21.3352 31.9591 21.3856L32.2846 24.1375C32.307 24.3175 32.3699 24.4876 32.4671 24.6313C32.5608 24.7625 32.6286 24.9154 32.6659 25.0795C32.7033 25.2436 32.7093 25.415 32.6835 25.5819V30.0832C32.6835 30.7034 32.3049 30.7927 32.3011 30.7936C32.0519 30.8296 31.801 30.8477 31.5499 30.8477V30.8477ZM31.278 21.3802C31.268 21.3797 31.2582 21.3834 31.2504 21.3907C31.2427 21.398 31.2376 21.4084 31.2361 21.4197L30.9227 24.1155C30.8969 24.3252 30.8221 24.523 30.7062 24.6878C30.6228 24.8023 30.5609 24.9351 30.5241 25.0781C30.4873 25.2211 30.4764 25.3712 30.4922 25.5192L30.4927 25.5287V30.1072C30.4925 30.1129 30.4854 30.3992 30.6121 30.5496C30.6383 30.5802 30.6698 30.604 30.7046 30.6197C30.7395 30.6353 30.7768 30.6424 30.8141 30.6404L30.8225 30.641C31.3065 30.7106 31.7962 30.7106 32.2802 30.641C32.2866 30.6392 32.5487 30.5706 32.5487 30.0832L32.5498 25.5612C32.5731 25.415 32.5684 25.2646 32.5359 25.1207C32.5035 24.9767 32.444 24.8426 32.3618 24.7277C32.2495 24.5623 32.1769 24.3661 32.1511 24.1587L31.8256 21.4065C31.8241 21.3952 31.8191 21.3849 31.8114 21.3777C31.8037 21.3704 31.7939 21.3667 31.784 21.3673C31.6177 21.3863 31.4504 21.3908 31.2836 21.3806C31.2817 21.3803 31.2799 21.3802 31.278 21.3802V21.3802Z" fill="#3F3D56"/>
<path id="Vector_60" d="M31.2837 25.6106H31.7804C31.9779 25.6106 32.1673 25.7006 32.3069 25.8607C32.4466 26.0208 32.525 26.238 32.525 26.4645V28.6073C32.525 28.8337 32.4466 29.0509 32.3069 29.2111C32.1673 29.3712 31.9779 29.4611 31.7804 29.4611H31.2837C31.0862 29.4611 30.8968 29.3712 30.7572 29.2111C30.6175 29.0509 30.5391 28.8337 30.5391 28.6073V26.4645C30.5391 26.238 30.6175 26.0208 30.7572 25.8607C30.8968 25.7006 31.0862 25.6106 31.2837 25.6106Z" fill="#B5838D"/>
<path id="Vector_61" d="M5.46642 8.05896C6.78113 8.05896 7.84691 6.83684 7.84691 5.32929C7.84691 3.82173 6.78113 2.59961 5.46642 2.59961C4.15172 2.59961 3.08594 3.82173 3.08594 5.32929C3.08594 6.83684 4.15172 8.05896 5.46642 8.05896Z" fill="#F0F0F0"/>
<path id="Vector_62" d="M60.3129 5.76599C61.6276 5.76599 62.6933 4.54387 62.6933 3.03632C62.6933 1.52876 61.6276 0.306641 60.3129 0.306641C58.9982 0.306641 57.9324 1.52876 57.9324 3.03632C57.9324 4.54387 58.9982 5.76599 60.3129 5.76599Z" fill="#F0F0F0"/>
<path id="Vector_63" d="M33.0799 12.6447C34.0265 12.6447 34.7939 11.7648 34.7939 10.6794C34.7939 9.59391 34.0265 8.71399 33.0799 8.71399C32.1333 8.71399 31.366 9.59391 31.366 10.6794C31.366 11.7648 32.1333 12.6447 33.0799 12.6447Z" fill="#F0F0F0"/>
</g>
<defs>
<clipPath id="clip0_884_1404">
<rect width="69.7619" height="69.7619" fill="white" transform="translate(0.116211 0.306641)"/>
</clipPath>
</defs>
</svg>
