<svg width="71" height="70" viewBox="0 0 71 70" fill="none" xmlns="http://www.w3.org/2000/svg">
<g id="undraw_in_thought_re_qyxl 1" clip-path="url(#clip0_884_1474)">
<path id="Vector" d="M15.9089 28.3117C12.6123 25.2903 11.2201 22.1382 11.9883 19.4362C12.9743 15.9687 17.3545 13.5712 24.0058 12.8585L24.0303 13.0574C17.4717 13.7602 13.1583 16.1038 12.1962 19.4874C11.4485 22.117 12.8206 25.2002 16.0597 28.1691L15.9089 28.3117Z" fill="#F0F0F0"/>
<path id="Vector_2" d="M47.7147 39.0367C43.6005 39.0367 39.1296 38.4675 34.6887 37.3729C29.197 36.0193 24.1617 33.9762 20.1272 31.4643L20.2467 31.298C24.2618 33.7976 29.2748 35.8314 34.7437 37.1793C39.686 38.3976 44.6653 38.962 49.1415 38.8131L49.1493 39.013C48.6766 39.0289 48.1984 39.0368 47.7147 39.0367Z" fill="#F0F0F0"/>
<path id="Vector_3" d="M57.1534 37.7779L57.0846 37.5883C60.7642 36.4299 63.0657 34.564 63.7402 32.1921C64.5976 29.1767 62.7349 25.6776 58.4953 22.3393C54.2341 18.984 48.0893 16.2 41.1926 14.5002L41.2476 14.3066C48.1744 16.014 54.3491 18.8124 58.6341 22.1865C62.9407 25.5775 64.8279 29.1491 63.9481 32.2433C63.2542 34.6833 60.9047 36.5971 57.1534 37.7779Z" fill="#F0F0F0"/>
<path id="Vector_4" d="M23.3657 39.1204C15.2814 35.7821 9.05189 31.4512 5.82471 26.9253L6.0038 26.8146C9.20868 31.3092 15.4055 35.6144 23.4529 38.9374L23.3657 39.1204Z" fill="#F0F0F0"/>
<path id="Vector_5" d="M51.7894 44.9036C50.9556 44.9036 50.1075 44.8862 49.2451 44.8516L49.2544 44.6516C55.6897 44.911 61.3678 44.194 65.6757 42.5776L65.7561 42.7633C61.9982 44.1731 57.2084 44.9036 51.7894 44.9036Z" fill="#F0F0F0"/>
<path id="Vector_6" d="M47.0987 13.0379C45.7625 12.6329 44.3881 12.2558 43.0137 11.917C35.1046 9.96759 27.3299 9.27544 20.5297 9.91578L20.5081 9.71659C27.3336 9.07414 35.135 9.76795 43.0687 11.7235C44.447 12.0632 45.8253 12.4414 47.1653 12.8476L47.0987 13.0379Z" fill="#F0F0F0"/>
<path id="Vector_7" d="M10.8564 28.612C7.55986 25.5906 6.16756 22.4385 6.93586 19.7365C7.92183 16.269 12.302 13.8715 18.9533 13.1588L18.9778 13.3577C12.4192 14.0605 8.1058 16.4041 7.14372 19.7877C6.396 22.4173 7.76809 25.5005 11.0072 28.4694L10.8564 28.612Z" fill="#F0F0F0"/>
<path id="Vector_8" d="M42.6625 39.337C38.5482 39.337 34.0773 38.7678 29.6365 37.6732C24.1448 36.3196 19.1095 34.2764 15.075 31.7646L15.1944 31.5983C19.2095 34.0979 24.2225 36.1317 29.6915 37.4796C34.6337 38.6979 39.613 39.2623 44.0893 39.1134L44.097 39.3133C43.6243 39.3292 43.1461 39.3371 42.6625 39.337Z" fill="#F0F0F0"/>
<path id="Vector_9" d="M52.101 38.0782L52.0321 37.8885C55.7117 36.7302 58.0132 34.8643 58.6877 32.4924C59.5451 29.477 57.6824 25.9779 53.4428 22.6396C49.1816 19.2843 43.0368 16.5003 36.1401 14.8005L36.1952 14.6069C43.1219 16.3143 49.2966 19.1127 53.5816 22.4868C57.8882 25.8778 59.7754 29.4494 58.8956 32.5436C58.2018 34.9836 55.8522 36.8974 52.101 38.0782Z" fill="#F0F0F0"/>
<path id="Vector_10" d="M18.3132 39.4207C10.229 36.0824 3.9994 31.7515 0.772217 27.2256L0.951312 27.1149C4.15619 31.6095 10.353 35.9147 18.4004 39.2377L18.3132 39.4207Z" fill="#F0F0F0"/>
<path id="Vector_11" d="M46.7369 45.2038C45.9031 45.2038 45.055 45.1865 44.1926 45.1518L44.2019 44.9519C50.6372 45.2113 56.3153 44.4943 60.6232 42.8779L60.7036 43.0636C56.9457 44.4734 52.1559 45.2038 46.7369 45.2038Z" fill="#F0F0F0"/>
<path id="Vector_12" d="M42.0465 13.3382C40.7103 12.9332 39.3359 12.5561 37.9615 12.2173C30.0524 10.2679 22.2776 9.57573 15.4774 10.2161L15.4558 10.0169C22.2813 9.37444 30.0827 10.0682 38.0165 12.0238C39.3948 12.3635 40.7731 12.7417 42.113 13.1479L42.0465 13.3382Z" fill="#F0F0F0"/>
<g id="Group 221">
<path id="Path 2938" d="M43.3833 31.3562L45.2108 31.156L45.8558 36.3605L47.5026 43.5474C47.7316 43.6513 47.9185 43.8213 48.0354 44.0321C48.1523 44.2428 48.1929 44.4831 48.1513 44.7171C48.1096 44.9511 47.988 45.1663 47.8043 45.3307C47.6207 45.4952 47.3849 45.6 47.1322 45.6295C46.8794 45.6591 46.6231 45.6119 46.4015 45.4949C46.1798 45.3779 46.0047 45.1975 45.9022 44.9803C45.7996 44.7632 45.7752 44.521 45.8324 44.2899C45.8896 44.0587 46.0255 43.851 46.2198 43.6976L44.5658 39.4631L43.3833 31.3562Z" fill="#FFB6B6"/>
<path id="Path 2939" d="M40.7285 68.4595H42.2341L42.9505 63.0524H40.7283L40.7285 68.4595Z" fill="#FFB6B6"/>
<path id="Path 2940" d="M40.3445 69.818H45.1994V69.7609C45.1993 69.2943 45.0003 68.8469 44.6459 68.5169C44.2916 68.187 43.811 68.0016 43.3098 68.0016H40.3445V69.818Z" fill="#2F2E41"/>
<path id="Path 2941" d="M29.1733 67.6949L30.6517 67.9607L32.4564 62.7782L30.2741 62.386L29.1733 67.6949Z" fill="#FFB6B6"/>
<path id="Path 2942" d="M28.52 68.9612L33.2869 69.8183L33.2985 69.7621C33.3935 69.304 33.2891 68.8295 33.0084 68.443C32.7276 68.0565 32.2935 67.7896 31.8014 67.7011L28.89 67.1776L28.52 68.9612Z" fill="#2F2E41"/>
<path id="Path 2943" d="M43.0894 22.8276L42.2146 24.3903L35.6624 23.0449L36.3801 20.0149C36.9483 17.6167 39.2259 15.8847 41.8018 16.4137C44.3777 16.9426 45.5795 19.2866 45.0114 21.6849L43.9555 24.7475L42.8872 24.5281L43.0894 22.8276Z" fill="#2F2E41"/>
<path id="Path 2944" d="M45.4257 40.0638C45.4257 40.0638 46.0707 43.0663 45.2107 47.4701C44.3507 51.8739 44.1357 53.7755 44.1357 53.7755C44.1357 53.7755 44.7807 54.4761 44.3507 54.8765C43.9207 55.2768 44.3507 56.0775 44.3507 56.0775L43.3832 65.7859L40.0507 65.2854L40.4807 56.1776C40.4807 56.1776 40.0507 55.3769 40.2657 55.1767C40.4807 54.9766 40.0507 53.7755 40.0507 53.7755L39.5132 44.2674L36.1808 54.6763C36.1808 54.6763 36.5032 55.0767 36.1808 55.3769C35.8583 55.6772 35.2133 57.1785 35.2133 57.1785L33.0633 64.1845L29.6233 63.584L31.5583 55.5771C31.5583 55.5771 31.3433 55.0767 31.6658 54.7764C31.7598 54.6845 31.8286 54.5728 31.866 54.4508C31.9035 54.3287 31.9085 54.2001 31.8808 54.0758C31.8808 54.0758 31.5583 53.7755 31.9883 53.3752C32.4183 52.9749 32.6333 51.3735 32.6333 51.3735C32.6333 51.3735 32.9558 40.6643 34.0308 40.0638C35.1058 39.4633 45.4257 40.0638 45.4257 40.0638Z" fill="#2F2E41"/>
<path id="Ellipse 569" d="M40.5649 23.5034C42.2273 23.5034 43.5749 22.2487 43.5749 20.701C43.5749 19.1532 42.2273 17.8986 40.5649 17.8986C38.9025 17.8986 37.5549 19.1532 37.5549 20.701C37.5549 22.2487 38.9025 23.5034 40.5649 23.5034Z" fill="#FFB6B6"/>
<path id="Path 2945" d="M36.323 24.2882C36.323 24.2882 34.1382 24.0499 33.4932 24.6504L34.1382 36.7608C34.1382 36.7608 33.7082 37.0611 33.9232 37.7617C34.048 38.2215 34.048 38.7031 33.9232 39.1629C33.9232 39.1629 33.2782 39.8635 33.6007 40.1638C33.9232 40.464 45.5331 40.2639 45.5331 40.2639C45.5331 40.2639 45.9631 39.5633 45.3181 39.1629C44.6731 38.7626 44.9956 37.6616 44.9956 37.6616C44.9956 37.6616 45.2106 37.3614 44.6731 36.8609C44.1356 36.3605 43.7056 32.257 43.7056 32.257L45.1031 27.2527C45.1031 27.2527 43.6964 25.7743 42.0885 25.6628L36.323 24.2882Z" fill="#E6E6E6"/>
<path id="Path 2946" d="M43.4376 27.3214L45.1031 27.2526C45.1031 27.2526 46.0706 29.0541 46.1781 30.6555L46.7701 36.6294L42.9531 37.1611L43.4376 27.3214Z" fill="#E6E6E6"/>
<path id="Path 2947" d="M43.1438 20.84L44.2618 19.5006C44.3277 19.2186 44.2711 18.9238 44.1042 18.6806C43.9374 18.4374 43.674 18.2655 43.3715 18.2026L39.1476 17.3352C38.8447 17.2738 38.5281 17.3265 38.2668 17.4818C38.0056 17.6372 37.821 17.8824 37.7533 18.1641L37.751 18.1741L38.0535 19.7914L38.1066 19.7826C40.728 19.3474 41.4746 19.5005 43.1009 20.8061L43.1438 20.84Z" fill="#2F2E41"/>
<path id="Path 2948" d="M31.8941 42.2396L32.0957 34.3588L32.3107 28.754L34.8907 29.0543L33.5051 42.4503C33.6508 42.6206 33.739 42.8273 33.7586 43.0443C33.7781 43.2613 33.7281 43.4788 33.6148 43.6693C33.5016 43.8598 33.3302 44.0148 33.1223 44.1146C32.9145 44.2145 32.6795 44.2547 32.4471 44.2302C32.2147 44.2057 31.9954 44.1176 31.8168 43.977C31.6382 43.8364 31.5083 43.6497 31.4437 43.4404C31.3791 43.2311 31.3826 43.0087 31.4538 42.8013C31.5249 42.5939 31.6605 42.4107 31.8435 42.2751C31.86 42.2628 31.8769 42.2509 31.8941 42.2395V42.2396Z" fill="#FFB6B6"/>
<path id="Path 2949" d="M35.3753 24.8192L33.4933 24.6503C33.4933 24.6503 33.1708 24.6503 32.8483 25.6511C32.5258 26.652 30.7529 37.2299 30.7529 37.2299L34.6759 37.5614L35.3753 24.8192Z" fill="#E6E6E6"/>
</g>
<path id="Ellipse 563" d="M17.56 11.0538C20.2612 11.0538 22.451 9.01507 22.451 6.50012C22.451 3.98518 20.2612 1.94641 17.56 1.94641C14.8587 1.94641 12.6689 3.98518 12.6689 6.50012C12.6689 9.01507 14.8587 11.0538 17.56 11.0538Z" fill="#B5838D"/>
<path id="Vector_13" d="M18.7073 9.2987C17.7186 9.2987 16.7522 9.02576 15.9302 8.51439C15.1082 8.00302 14.4676 7.2762 14.0892 6.42583C13.7109 5.57546 13.6119 4.63973 13.8048 3.73698C13.9977 2.83423 14.4737 2.005 15.1728 1.35416C15.8718 0.703312 16.7625 0.26008 17.7321 0.0805122C18.7017 -0.0990556 19.7067 -0.00689433 20.6201 0.345342C21.5335 0.697578 22.3141 1.29407 22.8634 2.05938C23.4126 2.8247 23.7058 3.72446 23.7058 4.6449C23.7043 5.87873 23.1772 7.06164 22.2401 7.93409C21.303 8.80654 20.0325 9.2973 18.7073 9.2987V9.2987ZM18.7073 0.191263C17.7612 0.191262 16.8363 0.452462 16.0497 0.941833C15.263 1.4312 14.6499 2.12676 14.2879 2.94056C13.9258 3.75435 13.8311 4.64983 14.0157 5.51375C14.2002 6.37767 14.6558 7.17123 15.3248 7.79408C15.9938 8.41694 16.8461 8.8411 17.774 9.01295C18.7019 9.18479 19.6638 9.0966 20.5378 8.75951C21.4119 8.42243 22.159 7.85159 22.6846 7.1192C23.2102 6.3868 23.4908 5.52574 23.4908 4.64489C23.4893 3.46413 22.9849 2.33211 22.0881 1.49718C21.1914 0.662254 19.9755 0.192603 18.7073 0.191263Z" fill="#3F3D56"/>
<path id="Ellipse 565" d="M62.566 25.8797C64.421 25.8797 65.9247 24.4796 65.9247 22.7526C65.9247 21.0255 64.421 19.6255 62.566 19.6255C60.711 19.6255 59.2073 21.0255 59.2073 22.7526C59.2073 24.4796 60.711 25.8797 62.566 25.8797Z" fill="#B5838D"/>
<path id="Vector_14" d="M63.3539 24.7058C62.6684 24.7058 61.9982 24.5166 61.4282 24.162C60.8582 23.8074 60.4139 23.3033 60.1515 22.7136C59.8892 22.124 59.8206 21.4751 59.9543 20.8491C60.088 20.223 60.4182 19.648 60.9029 19.1967C61.3877 18.7454 62.0053 18.438 62.6777 18.3135C63.3501 18.189 64.047 18.2529 64.6804 18.4971C65.3138 18.7414 65.8551 19.155 66.236 19.6857C66.6169 20.2164 66.8201 20.8404 66.8201 21.4787C66.8191 22.3343 66.4536 23.1545 65.8038 23.7595C65.1539 24.3646 64.2729 24.7049 63.3539 24.7058ZM63.3539 18.4516C62.7109 18.4516 62.0823 18.6292 61.5476 18.9618C61.013 19.2944 60.5963 19.7671 60.3502 20.3203C60.1041 20.8734 60.0397 21.482 60.1652 22.0692C60.2906 22.6564 60.6003 23.1957 61.055 23.6191C61.5096 24.0424 62.089 24.3307 62.7196 24.4475C63.3503 24.5643 64.004 24.5044 64.5981 24.2752C65.1922 24.0461 65.7 23.6582 66.0572 23.1604C66.4145 22.6626 66.6051 22.0773 66.6051 21.4787C66.6042 20.6761 66.2613 19.9067 65.6518 19.3392C65.0423 18.7717 64.2159 18.4525 63.3539 18.4516V18.4516Z" fill="#3F3D56"/>
<path id="Path 2960" d="M70.5932 69.9197H6.09358C6.06507 69.9197 6.03773 69.9091 6.01757 69.8903C5.99741 69.8716 5.98608 69.8461 5.98608 69.8196C5.98608 69.793 5.99741 69.7676 6.01757 69.7488C6.03773 69.73 6.06507 69.7195 6.09358 69.7195H70.5932C70.6217 69.7195 70.6491 69.73 70.6692 69.7488C70.6894 69.7676 70.7007 69.793 70.7007 69.8196C70.7007 69.8461 70.6894 69.8716 70.6692 69.8903C70.6491 69.9091 70.6217 69.9197 70.5932 69.9197Z" fill="#CACACA"/>
<g id="Group 58">
<path id="Path 438" d="M66.0995 65.8489C65.7603 65.9599 65.3961 65.9877 65.042 65.9296C64.6879 65.8715 64.3558 65.7295 64.0778 65.5173C63.3697 64.964 63.1477 64.0523 62.9671 63.2083L62.4329 60.7117L63.5514 61.4288C64.3558 61.9444 65.1783 62.4767 65.7354 63.2236C66.2924 63.9706 66.5355 64.9902 66.088 65.7985" fill="#FD6584"/>
<path id="Path 439" d="M65.9267 69.0452C66.0675 68.0902 66.2123 67.123 66.1135 66.1577C66.0258 65.3005 65.7449 64.4633 65.173 63.7768C64.8694 63.4131 64.5001 63.1015 64.0815 62.856C63.9724 62.7919 63.8719 62.9529 63.9806 63.0167C64.7048 63.4429 65.265 64.0722 65.5803 64.8139C65.9286 65.6387 65.9845 66.5378 65.9243 67.4139C65.888 67.9438 65.8111 68.4701 65.7336 68.9959C65.7275 69.0197 65.7313 69.0447 65.7443 69.066C65.7573 69.0872 65.7784 69.1031 65.8035 69.1104C65.829 69.1168 65.8563 69.1135 65.8793 69.1014C65.9023 69.0892 65.9193 69.0691 65.9264 69.0453L65.9267 69.0452Z" fill="#F2F2F2"/>
<path id="Path 442" d="M64.9132 67.513C64.7678 67.7189 64.5678 67.8864 64.3326 67.9994C64.0974 68.1124 63.835 68.1671 63.5705 68.1583C62.8908 68.1283 62.324 67.6866 61.8139 67.2675L60.3052 66.0269L61.3037 65.9824C62.0218 65.9504 62.7585 65.9206 63.443 66.1267C64.1274 66.3329 64.7578 66.8291 64.8828 67.4879" fill="#E6E6E6"/>
<path id="Path 443" d="M66.3247 69.5943C65.6475 68.4777 64.8608 67.2367 63.4561 66.8401C63.0655 66.7302 62.656 66.6908 62.2495 66.7241C62.1214 66.7341 62.1534 66.9183 62.2818 66.908C62.9631 66.8553 63.6431 67.0228 64.2073 67.3823C64.7503 67.7264 65.173 68.2047 65.5307 68.712C65.7499 69.0223 65.9462 69.3467 66.1425 69.6701C66.2048 69.7734 66.3881 69.6989 66.3247 69.5943Z" fill="#F2F2F2"/>
</g>
<g id="Group 222">
<path id="Path 2961" d="M12.9194 67.1487C13.1637 67.2436 13.4301 67.2784 13.6929 67.2497C13.9558 67.2209 14.2062 67.1296 14.4202 66.9846C14.9657 66.6058 15.1702 65.9446 15.3414 65.3316L15.8474 63.5179L14.9928 64.001C14.3783 64.3483 13.7496 64.7071 13.306 65.2344C12.8624 65.7617 12.638 66.5006 12.9303 67.1124" fill="#E6E6E6"/>
<path id="Path 2962" d="M12.9994 69.609C12.8902 68.3307 12.7971 66.8923 13.7234 65.8322C13.9812 65.5377 14.2971 65.2918 14.6541 65.1078C14.7664 65.0494 14.8504 65.2187 14.7378 65.277C14.1413 65.588 13.6782 66.0809 13.4263 66.6727C13.1829 67.2407 13.1197 67.8573 13.1278 68.4641C13.1325 68.8355 13.1646 69.2066 13.1961 69.577C13.2065 69.695 13.0096 69.7286 12.9994 69.609Z" fill="#F2F2F2"/>
</g>
<path id="Ellipse 567" d="M10.9702 37.961C13.6367 37.961 15.7983 35.9485 15.7983 33.4659C15.7983 30.9833 13.6367 28.9707 10.9702 28.9707C8.30371 28.9707 6.14209 30.9833 6.14209 33.4659C6.14209 35.9485 8.30371 37.961 10.9702 37.961Z" fill="#E4E4E4"/>
<path id="Vector_15" d="M12.1026 36.2298C11.1264 36.2298 10.1722 35.9603 9.3605 35.4553C8.54885 34.9504 7.91625 34.2327 7.54269 33.393C7.16913 32.5534 7.07139 31.6294 7.26184 30.738C7.45228 29.8466 7.92236 29.0279 8.61262 28.3852C9.30288 27.7426 10.1823 27.3049 11.1397 27.1276C12.0971 26.9503 13.0895 27.0413 13.9914 27.3891C14.8933 27.7369 15.6641 28.3259 16.2064 29.0816C16.7487 29.8373 17.0382 30.7257 17.0382 31.6346C17.0367 32.8529 16.5162 34.0209 15.5909 34.8824C14.6657 35.7438 13.4111 36.2284 12.1026 36.2298V36.2298ZM12.1026 27.2395C11.1689 27.2395 10.2562 27.4973 9.47995 27.9802C8.70366 28.4631 8.09861 29.1495 7.74132 29.9526C7.38403 30.7557 7.29055 31.6394 7.4727 32.492C7.65484 33.3445 8.10444 34.1277 8.76462 34.7423C9.42481 35.357 10.2659 35.7756 11.1816 35.9451C12.0973 36.1147 13.0465 36.0277 13.9091 35.695C14.7717 35.3624 15.5089 34.7991 16.0276 34.0763C16.5463 33.3536 16.8232 32.5038 16.8232 31.6346C16.8218 30.4693 16.324 29.3522 15.439 28.5282C14.554 27.7043 13.3541 27.2408 12.1026 27.2395V27.2395Z" fill="#2F2E41"/>
<path id="Vector_16" d="M8.05531 17.8406C8.53027 17.8406 8.9153 17.4822 8.9153 17.0399C8.9153 16.5977 8.53027 16.2393 8.05531 16.2393C7.58034 16.2393 7.19531 16.5977 7.19531 17.0399C7.19531 17.4822 7.58034 17.8406 8.05531 17.8406Z" fill="#F2F2F2"/>
<path id="Vector_17" d="M52.2377 13.8372C52.7126 13.8372 53.0977 13.4787 53.0977 13.0365C53.0977 12.5943 52.7126 12.2358 52.2377 12.2358C51.7627 12.2358 51.3777 12.5943 51.3777 13.0365C51.3777 13.4787 51.7627 13.8372 52.2377 13.8372Z" fill="#FD6584"/>
<path id="Vector_18" d="M57.9352 42.2617C58.4102 42.2617 58.7952 41.9032 58.7952 41.461C58.7952 41.0188 58.4102 40.6603 57.9352 40.6603C57.4602 40.6603 57.0752 41.0188 57.0752 41.461C57.0752 41.9032 57.4602 42.2617 57.9352 42.2617Z" fill="#F2F2F2"/>
<path id="Vector_19" d="M19.421 20.1727L19.4536 19.9748L23.6539 20.5748C23.2259 20.19 21.8083 19.0003 20.5228 18.8796C18.9869 18.7355 18.3112 19.3476 18.2219 20.1726C18.1326 20.9975 18.6635 21.7229 20.1993 21.8671C21.5012 21.9892 23.1709 21.0621 23.6496 20.7767L19.421 20.1727Z" fill="#F2F2F2"/>
<path id="Vector_20" d="M59.6138 9.5721L59.4842 9.41232L62.8752 7.02795C62.2805 7.04528 60.3761 7.16142 59.3867 7.93513C58.2047 8.85946 58.2047 9.73723 58.7775 10.3721C59.3502 11.007 60.2788 11.1586 61.4609 10.2343C62.4628 9.45083 62.9135 7.69009 63.0276 7.17165L59.6138 9.5721Z" fill="#F2F2F2"/>
<path id="Vector_21" d="M51.6071 32.5254L51.5138 32.4105L53.9535 30.6951C53.5257 30.7075 52.1555 30.7911 51.4437 31.3477C50.5934 32.0127 50.5933 32.6442 51.0054 33.101C51.4175 33.5578 52.0855 33.6669 52.9359 33.0019C53.6568 32.4382 53.981 31.1714 54.0631 30.7984L51.6071 32.5254Z" fill="#F2F2F2"/>
<path id="Vector_22" d="M32.2943 5.22081C32.9552 3.56619 34.5169 2.13649 36.4042 1.96643C35.2696 3.56941 34.7805 5.49438 35.0235 7.40077C35.1201 8.13566 35.3097 8.94368 34.8842 9.56916C34.6194 9.95835 34.1528 10.198 33.6719 10.3061C33.1909 10.4142 32.6897 10.4058 32.195 10.3968L32.0842 10.4477C31.7363 8.71237 31.6333 6.87542 32.2943 5.22081Z" fill="#F0F0F0"/>
<path id="Vector_23" d="M36.4134 2.00245C35.1268 2.83929 34.1562 4.03229 33.6393 5.41198C33.5224 5.70716 33.4561 6.01765 33.443 6.33203C33.4409 6.63866 33.527 6.94022 33.6924 7.20539C33.8413 7.45551 34.0247 7.69531 34.1057 7.97477C34.1449 8.1184 34.151 8.26811 34.1237 8.41409C34.0963 8.56007 34.0362 8.69903 33.9471 8.82184C33.7338 9.13323 33.413 9.35467 33.0912 9.56107C32.7339 9.79024 32.3588 10.023 32.1402 10.383C32.1137 10.4266 32.0426 10.3858 32.069 10.3423C32.4494 9.71591 33.2476 9.48839 33.736 8.95635C33.9639 8.70808 34.1128 8.39438 34.0423 8.0638C33.9807 7.77472 33.7918 7.52729 33.6387 7.27525C33.4733 7.01878 33.3778 6.72849 33.3607 6.42975C33.3565 6.11577 33.4098 5.80342 33.5182 5.50607C33.7508 4.83303 34.0956 4.19822 34.54 3.6249C35.0433 2.96796 35.6636 2.39602 36.374 1.93382C36.418 1.90523 36.4571 1.97405 36.4134 2.00246V2.00245Z" fill="white"/>
<path id="Vector_24" d="M33.7777 4.95858C33.5408 4.84641 33.3545 4.65951 33.252 4.43126C33.1495 4.203 33.1375 3.94825 33.2181 3.7125C33.2346 3.66485 33.3149 3.68646 33.2984 3.73417C33.2229 3.95357 33.2341 4.19088 33.33 4.40325C33.4259 4.61562 33.6002 4.78907 33.8215 4.8923C33.8695 4.91478 33.8255 4.98093 33.7777 4.95858Z" fill="white"/>
<path id="Vector_25" d="M33.5989 7.08777C34.1169 6.93545 34.5542 6.60696 34.8236 6.16778C34.8503 6.12425 34.9214 6.16506 34.8948 6.20854C34.6136 6.66506 34.1577 7.00605 33.6183 7.16346C33.5669 7.17843 33.5478 7.10266 33.5989 7.08777V7.08777Z" fill="white"/>
<path id="Vector_26" d="M35.1005 3.05635C35.1825 3.11753 35.2794 3.1588 35.3827 3.17647C35.486 3.19413 35.5924 3.18763 35.6924 3.15755C35.7435 3.14198 35.7626 3.21776 35.7117 3.23323C35.6012 3.26599 35.4837 3.27303 35.3695 3.25375C35.2553 3.23447 35.1479 3.18945 35.0568 3.12263C35.0476 3.117 35.0411 3.10834 35.0385 3.0984C35.036 3.08846 35.0376 3.07798 35.043 3.06911C35.0489 3.06036 35.0582 3.05412 35.069 3.05173C35.0797 3.04934 35.0911 3.051 35.1005 3.05635V3.05635Z" fill="white"/>
<path id="Vector_27" d="M40.9532 6.18398C40.9215 6.19454 40.8898 6.20511 40.858 6.21631C40.433 6.36045 40.0213 6.53649 39.6269 6.7427C39.5961 6.7582 39.5652 6.77433 39.535 6.79061C38.5905 7.29685 37.7553 7.96195 37.0716 8.75208C36.7999 9.06673 36.5542 9.40017 36.3368 9.74951C36.0366 10.232 35.7523 10.7773 35.3115 11.129C35.2659 11.1661 35.2179 11.2006 35.1678 11.2323L32.1595 10.5695C32.1535 10.5648 32.1472 10.5607 32.1412 10.556L32.0198 10.5347C32.0296 10.5159 32.0403 10.4967 32.0502 10.4779C32.0558 10.467 32.0622 10.4563 32.0678 10.4454C32.0718 10.4382 32.0759 10.431 32.079 10.4242C32.0803 10.4218 32.0817 10.4194 32.0829 10.4177C32.086 10.4109 32.0897 10.405 32.0927 10.3989C32.152 10.2912 32.2122 10.1837 32.2733 10.0763C32.2734 10.0757 32.2734 10.0757 32.2743 10.0752C32.7314 9.25322 33.2917 8.48464 33.9434 7.78556C33.9631 7.76494 33.983 7.74368 34.0041 7.72336C34.3017 7.41593 34.6258 7.13165 34.9732 6.87338C35.1639 6.73253 35.3621 6.60075 35.5671 6.47856C36.0975 6.16378 36.6777 5.92864 37.2865 5.78174C38.5003 5.48906 39.8011 5.56105 40.8718 6.13907C40.8992 6.15387 40.926 6.16853 40.9532 6.18398Z" fill="#F0F0F0"/>
<path id="Vector_28" d="M40.9374 6.21811C39.369 6.16509 37.8225 6.57353 36.5176 7.38541C36.2334 7.55554 35.9797 7.76633 35.766 8.01001C35.566 8.25364 35.4397 8.54269 35.4003 8.84713C35.3575 9.13029 35.3488 9.42456 35.2328 9.69309C35.1712 9.82973 35.0792 9.95269 34.963 10.0539C34.8468 10.1552 34.7089 10.2324 34.5584 10.2805C34.1867 10.4096 33.7873 10.4065 33.3969 10.391C32.9634 10.3737 32.5135 10.3493 32.1061 10.5142C32.0567 10.5342 32.0263 10.4617 32.0756 10.4418C32.7844 10.1549 33.5689 10.4207 34.3028 10.2696C34.6453 10.1991 34.967 10.0321 35.1246 9.72864C35.2623 9.46329 35.2715 9.15985 35.3122 8.87278C35.346 8.57528 35.4575 8.28999 35.637 8.04185C35.8367 7.78883 36.0813 7.5693 36.3601 7.39265C36.9811 6.98565 37.6669 6.67207 38.3924 6.46341C39.2191 6.221 40.0842 6.11203 40.9504 6.14123C41.004 6.14306 40.9907 6.21992 40.9374 6.21811L40.9374 6.21811Z" fill="white"/>
<path id="Vector_29" d="M36.9212 7.10096C36.8046 6.87863 36.7767 6.62496 36.8425 6.38525C36.9082 6.14554 37.0634 5.93539 37.2802 5.79234C37.3241 5.76354 37.3743 5.82581 37.3302 5.85465C37.1281 5.98751 36.9836 6.18328 36.9229 6.40661C36.8621 6.62995 36.8891 6.86615 36.999 7.07257C37.0228 7.11746 36.9449 7.14559 36.9212 7.10096V7.10096Z" fill="white"/>
<path id="Vector_30" d="M35.4019 8.70087C35.9139 8.86961 36.4755 8.85245 36.9746 8.65281C37.0241 8.633 37.0545 8.70546 37.0051 8.72526C36.4853 8.9321 35.9009 8.94885 35.3684 8.77217C35.3177 8.75529 35.3514 8.68409 35.4019 8.70087Z" fill="white"/>
<path id="Vector_31" d="M39.2077 6.3236C39.2336 6.41838 39.2843 6.50569 39.3554 6.5777C39.4264 6.6497 39.5156 6.70415 39.6148 6.73615C39.6658 6.75242 39.632 6.82361 39.5814 6.80745C39.4719 6.77162 39.3735 6.71137 39.2948 6.63198C39.2161 6.55258 39.1595 6.45645 39.1299 6.35199C39.1263 6.34236 39.1267 6.33179 39.1311 6.32242C39.1354 6.31306 39.1435 6.3056 39.1536 6.30157C39.1639 6.29786 39.1754 6.2981 39.1855 6.30222C39.1957 6.30635 39.2037 6.31403 39.2077 6.3236H39.2077Z" fill="white"/>
<path id="Vector_32" d="M23.1568 28.0404C23.8178 26.3858 25.3795 24.9561 27.2668 24.786C26.1321 26.389 25.643 28.314 25.886 30.2203C25.9826 30.9552 26.1722 31.7633 25.7467 32.3887C25.482 32.7779 25.0154 33.0175 24.5344 33.1257C24.0534 33.2338 23.5522 33.2254 23.0575 33.2164L22.9468 33.2673C22.5988 31.532 22.4958 29.695 23.1568 28.0404Z" fill="#F0F0F0"/>
<path id="Vector_33" d="M27.2759 24.822C25.9894 25.6589 25.0187 26.8519 24.5018 28.2316C24.3849 28.5267 24.3187 28.8372 24.3056 29.1516C24.3035 29.4582 24.3896 29.7598 24.555 30.025C24.7039 30.2751 24.8873 30.5149 24.9683 30.7944C25.0074 30.938 25.0135 31.0877 24.9862 31.2337C24.9589 31.3797 24.8987 31.5186 24.8097 31.6414C24.5963 31.9528 24.2755 32.1743 23.9537 32.3807C23.5964 32.6098 23.2214 32.8426 23.0028 33.2026C22.9763 33.2462 22.9051 33.2054 22.9316 33.1619C23.3119 32.5355 24.1102 32.308 24.5985 31.7759C24.8264 31.5277 24.9753 31.214 24.9048 30.8834C24.8432 30.5943 24.6543 30.3469 24.5012 30.0948C24.3358 29.8384 24.2404 29.5481 24.2232 29.2493C24.2191 28.9353 24.2723 28.623 24.3808 28.3257C24.6133 27.6526 24.9582 27.0178 25.4026 26.4445C25.9058 25.7875 26.5261 25.2156 27.2366 24.7534C27.2806 24.7248 27.3196 24.7936 27.2759 24.822V24.822Z" fill="white"/>
<path id="Vector_34" d="M24.6402 27.7782C24.4034 27.666 24.2171 27.4791 24.1145 27.2508C24.012 27.0226 24 26.7678 24.0806 26.5321C24.0971 26.4844 24.1774 26.506 24.1609 26.5538C24.0854 26.7732 24.0966 27.0105 24.1926 27.2228C24.2885 27.4352 24.4628 27.6087 24.684 27.7119C24.732 27.7344 24.688 27.8005 24.6402 27.7782Z" fill="white"/>
<path id="Vector_35" d="M24.4615 29.9074C24.9795 29.755 25.4168 29.4265 25.6862 28.9874C25.7128 28.9438 25.784 28.9846 25.7574 29.0281C25.4761 29.4846 25.0203 29.8256 24.4809 29.983C24.4295 29.998 24.4103 29.9222 24.4615 29.9074Z" fill="white"/>
<path id="Vector_36" d="M25.9631 25.8759C26.045 25.9371 26.142 25.9784 26.2453 25.996C26.3486 26.0137 26.455 26.0072 26.5549 25.9771C26.6061 25.9616 26.6251 26.0373 26.5743 26.0528C26.4637 26.0856 26.3462 26.0926 26.232 26.0733C26.1179 26.0541 26.0105 26.009 25.9193 25.9422C25.9101 25.9366 25.9036 25.9279 25.9011 25.918C25.8985 25.908 25.9001 25.8976 25.9056 25.8887C25.9114 25.8799 25.9208 25.8737 25.9315 25.8713C25.9423 25.8689 25.9536 25.8706 25.9631 25.8759Z" fill="white"/>
<path id="Vector_37" d="M31.8157 29.0037C31.7841 29.0142 31.7524 29.0248 31.7205 29.036C31.2955 29.1801 30.8838 29.3562 30.4894 29.5624C30.4587 29.5779 30.4278 29.594 30.3975 29.6103C29.4531 30.1166 28.6178 30.7816 27.9341 31.5718C27.6624 31.8864 27.4168 32.2199 27.1994 32.5692C26.8992 33.0517 26.6149 33.597 26.174 33.9487C26.1284 33.9858 26.0805 34.0203 26.0303 34.052L23.022 33.3892C23.016 33.3845 23.0098 33.3804 23.0037 33.3757L22.8823 33.3544C22.8922 33.3356 22.9028 33.3164 22.9127 33.2976C22.9184 33.2867 22.9247 33.276 22.9304 33.2651C22.9344 33.2579 22.9384 33.2507 22.9416 33.2439C22.9429 33.2415 22.9442 33.2391 22.9454 33.2374C22.9486 33.2306 22.9523 33.2247 22.9553 33.2186C23.0145 33.1109 23.0747 33.0034 23.1358 32.896C23.136 32.8954 23.136 32.8954 23.1368 32.8949C23.594 32.0729 24.1542 31.3043 24.8059 30.6053C24.8256 30.5846 24.8455 30.5634 24.8666 30.5431C25.1643 30.2356 25.4884 29.9514 25.8357 29.6931C26.0264 29.5522 26.2247 29.4205 26.4297 29.2983C26.96 28.9835 27.5402 28.7483 28.1491 28.6014C29.3628 28.3088 30.6636 28.3807 31.7344 28.9588C31.7618 28.9736 31.7885 28.9882 31.8157 29.0037Z" fill="#F0F0F0"/>
<path id="Vector_38" d="M31.8 29.0377C30.2315 28.9847 28.6851 29.3931 27.3802 30.205C27.0959 30.3751 26.8423 30.5859 26.6285 30.8296C26.4285 31.0732 26.3023 31.3623 26.2629 31.6667C26.22 31.9499 26.2114 32.2441 26.0953 32.5127C26.0337 32.6493 25.9418 32.7723 25.8256 32.8735C25.7093 32.9747 25.5714 33.052 25.4209 33.1001C25.0492 33.2291 24.6499 33.2261 24.2594 33.2105C23.826 33.1932 23.376 33.1689 22.9686 33.3338C22.9193 33.3538 22.8889 33.2813 22.9382 33.2613C23.6469 32.9744 24.4314 33.2402 25.1654 33.0892C25.5079 33.0187 25.8296 32.8517 25.9871 32.5482C26.1249 32.2829 26.134 31.9794 26.1748 31.6924C26.2086 31.3949 26.3201 31.1096 26.4996 30.8614C26.6993 30.6084 26.9438 30.3889 27.2226 30.2122C27.8436 29.8052 28.5294 29.4917 29.255 29.283C30.0817 29.0406 30.9468 28.9316 31.8129 28.9608C31.8665 28.9626 31.8532 29.0395 31.8 29.0377L31.8 29.0377Z" fill="white"/>
<path id="Vector_39" d="M27.784 29.9205C27.6674 29.6982 27.6395 29.4445 27.7053 29.2048C27.771 28.9651 27.9261 28.755 28.143 28.6119C28.1869 28.5831 28.2371 28.6454 28.193 28.6742C27.9909 28.8071 27.8464 29.0029 27.7856 29.2262C27.7249 29.4495 27.7519 29.6857 27.8618 29.8922C27.8856 29.937 27.8077 29.9652 27.784 29.9205V29.9205Z" fill="white"/>
<path id="Vector_40" d="M26.2644 31.5205C26.7765 31.6892 27.3381 31.672 27.8372 31.4724C27.8866 31.4526 27.917 31.525 27.8677 31.5448C27.3479 31.7517 26.7634 31.7684 26.2309 31.5917C26.1802 31.5749 26.2139 31.5037 26.2644 31.5205V31.5205Z" fill="white"/>
<path id="Vector_41" d="M30.0703 29.1432C30.0961 29.238 30.1469 29.3253 30.2179 29.3973C30.289 29.4693 30.3781 29.5237 30.4774 29.5557C30.5283 29.572 30.4945 29.6432 30.4439 29.627C30.3345 29.5912 30.2361 29.531 30.1574 29.4516C30.0787 29.3722 30.0221 29.276 29.9925 29.1716C29.9888 29.1619 29.9892 29.1514 29.9936 29.142C29.998 29.1326 30.0061 29.1252 30.0161 29.1212C30.0265 29.1174 30.0379 29.1177 30.0481 29.1218C30.0582 29.1259 30.0662 29.1336 30.0703 29.1432H30.0703Z" fill="white"/>
<path id="Vector_42" d="M60.6036 40.4425C60.2663 39.2685 60.5308 37.8864 61.5174 37.0906C61.5667 38.4114 62.1163 39.6735 63.0688 40.6534C63.4377 41.03 63.89 41.4133 63.9189 41.9222C63.9206 42.243 63.7899 42.5521 63.5539 42.7858C63.3191 43.016 63.0535 43.2174 62.7638 43.3848L62.7234 43.4545C61.7851 42.6095 60.9409 41.6166 60.6036 40.4425Z" fill="#F0F0F0"/>
<path id="Vector_43" d="M61.5381 37.1075C61.1741 38.0547 61.14 39.0845 61.4405 40.0508C61.5012 40.2599 61.597 40.4587 61.7242 40.6401C61.8543 40.813 62.0317 40.9503 62.2381 41.0377C62.4366 41.1091 62.6251 41.2026 62.7995 41.3163C62.8829 41.3823 62.9505 41.4641 62.9976 41.5562C63.0448 41.6483 63.0705 41.7486 63.0731 41.8506C63.0717 42.1025 63.0159 42.3517 62.9091 42.5832C62.8066 42.8444 62.6958 43.1142 62.7272 43.3975C62.731 43.4318 62.6736 43.4353 62.6698 43.401C62.6151 42.9083 62.9658 42.4843 63.0121 42.0044C63.0298 41.8938 63.02 41.781 62.9836 41.6744C62.9472 41.5679 62.8851 41.4705 62.802 41.3898C62.6437 41.2504 62.4317 41.1816 62.2379 41.0969C62.0352 41.0143 61.8573 40.8868 61.7198 40.7255C61.5831 40.5508 61.4793 40.3557 61.4128 40.1485C61.2553 39.6844 61.177 39.2001 61.1811 38.7134C61.1823 38.1579 61.2857 37.6067 61.4866 37.0836C61.499 37.0512 61.5504 37.0753 61.5381 37.1075L61.5381 37.1075Z" fill="white"/>
<path id="Vector_44" d="M61.3239 39.7449C61.143 39.7698 60.9584 39.734 60.8031 39.6439C60.6478 39.5539 60.532 39.4153 60.4764 39.2531C60.4652 39.2202 60.5195 39.2025 60.5307 39.2354C60.5822 39.3866 60.6901 39.5157 60.8349 39.5993C60.9797 39.6829 61.1518 39.7156 61.3201 39.6914C61.3567 39.6862 61.3603 39.7397 61.3239 39.7449V39.7449Z" fill="white"/>
<path id="Vector_45" d="M62.1354 41.0064C62.3609 40.7287 62.4658 40.382 62.429 40.0355C62.4253 40.0012 62.4827 39.9977 62.4864 40.032C62.5239 40.3926 62.4141 40.7532 62.1787 41.0417C62.1562 41.0692 62.113 41.0337 62.1354 41.0064V41.0064Z" fill="white"/>
<path id="Vector_46" d="M61.2522 38.1862C61.3244 38.1901 61.3965 38.1773 61.462 38.1489C61.5276 38.1205 61.5845 38.0773 61.6277 38.0234C61.6498 37.9956 61.6929 38.0311 61.671 38.0587C61.623 38.1181 61.56 38.1656 61.4877 38.1972C61.4153 38.2287 61.3358 38.2433 61.256 38.2396C61.2485 38.2399 61.2411 38.2374 61.2354 38.2328C61.2297 38.2282 61.2261 38.2217 61.2254 38.2147C61.2249 38.2076 61.2275 38.2006 61.2325 38.1953C61.2375 38.19 61.2446 38.1867 61.2522 38.1862V38.1862Z" fill="white"/>
<path id="Vector_47" d="M65.8765 37.7699C65.8633 37.7876 65.85 37.8053 65.8369 37.8234C65.6601 38.062 65.5043 38.3136 65.3712 38.5757C65.3606 38.5958 65.3501 38.6163 65.3402 38.6367C65.0267 39.2713 64.8426 39.9546 64.7971 40.6519C64.7793 40.9293 64.7841 41.2076 64.8117 41.4844C64.8497 41.8666 64.9236 42.2783 64.8266 42.6392C64.817 42.677 64.8048 42.7142 64.7902 42.7506L62.8179 43.4949C62.8125 43.4945 62.8072 43.4945 62.8018 43.4941L62.7245 43.5272C62.7221 43.513 62.7198 43.4982 62.7173 43.4841C62.7158 43.4758 62.7148 43.4675 62.7133 43.4592C62.7125 43.4537 62.7116 43.4482 62.7105 43.4432C62.7102 43.4414 62.71 43.4395 62.7099 43.4381C62.7088 43.4332 62.7083 43.4284 62.7074 43.4239C62.6945 43.3414 62.6823 43.2588 62.6706 43.1758C62.6704 43.1754 62.6704 43.1754 62.6707 43.1748C62.5754 42.5438 62.5609 41.9044 62.6274 41.2702C62.6296 41.2513 62.6317 41.232 62.6349 41.2128C62.6703 40.9297 62.7305 40.6499 62.8149 40.376C62.8617 40.2262 62.9165 40.0787 62.9793 39.934C63.1423 39.5605 63.3673 39.2132 63.6462 38.9048C64.2022 38.2901 64.9631 37.8478 65.8116 37.7749C65.8333 37.773 65.8546 37.7713 65.8765 37.7699Z" fill="#F0F0F0"/>
<path id="Vector_48" d="M65.8823 37.7949C64.9792 38.3472 64.286 39.1504 63.9011 40.0903C63.8143 40.2913 63.7622 40.5038 63.7465 40.7199C63.7386 40.9308 63.7915 41.1399 63.8997 41.3254C64.0121 41.4937 64.1021 41.674 64.1678 41.8625C64.1917 41.962 64.1927 42.0652 64.1708 42.1651C64.1489 42.2651 64.1046 42.3596 64.0407 42.4425C63.8766 42.6429 63.671 42.8105 63.436 42.9355C63.1853 43.0866 62.9223 43.2399 62.7642 43.4837C62.7451 43.5132 62.697 43.4838 62.7161 43.4543C62.9911 43.0303 63.5452 42.8884 63.8926 42.5312C63.9782 42.4528 64.0434 42.3572 64.0832 42.2517C64.123 42.1462 64.1363 42.0336 64.1222 41.9226C64.086 41.7225 63.9612 41.5488 63.8612 41.3725C63.7528 41.193 63.6932 40.9915 63.6878 40.7856C63.6916 40.5695 63.7348 40.3555 63.8157 40.1529C63.99 39.694 64.2408 39.2634 64.5587 38.8771C64.919 38.4342 65.3579 38.052 65.8566 37.747C65.8875 37.7281 65.9129 37.7762 65.8823 37.7949L65.8823 37.7949Z" fill="white"/>
<path id="Vector_49" d="M64.0058 39.7808C63.8452 39.6993 63.7209 39.5673 63.6552 39.4083C63.5895 39.2493 63.5866 39.0738 63.6471 38.9131C63.6595 38.8806 63.7143 38.8969 63.7019 38.9294C63.6453 39.079 63.648 39.2426 63.7095 39.3905C63.771 39.5384 63.8873 39.6609 64.0373 39.736C64.0699 39.7524 64.0382 39.7971 64.0058 39.7808V39.7808Z" fill="white"/>
<path id="Vector_50" d="M63.8377 41.2428C64.1974 41.1475 64.5053 40.9295 64.7 40.6322C64.7192 40.6028 64.7673 40.6321 64.7481 40.6616C64.5449 40.9706 64.224 41.1969 63.8494 41.2953C63.8137 41.3046 63.8022 41.2521 63.8377 41.2428V41.2428Z" fill="white"/>
<path id="Vector_51" d="M64.9565 38.496C65.0116 38.5396 65.0775 38.5698 65.1482 38.5839C65.2189 38.5979 65.2923 38.5954 65.3617 38.5765C65.3972 38.5668 65.4087 38.6193 65.3734 38.629C65.2966 38.6495 65.2156 38.6522 65.1374 38.6368C65.0593 38.6214 64.9863 38.5885 64.925 38.5408C64.9188 38.5368 64.9145 38.5307 64.913 38.5238C64.9114 38.5169 64.9128 38.5098 64.9167 38.5038C64.9209 38.4978 64.9275 38.4937 64.9349 38.4923C64.9424 38.4908 64.9501 38.4922 64.9565 38.496V38.496Z" fill="white"/>
</g>
<defs>
<clipPath id="clip0_884_1474">
<rect width="69.9286" height="69.9286" fill="white" transform="translate(0.772217 -0.00891113)"/>
</clipPath>
</defs>
</svg>
