<svg width="71" height="71" viewBox="0 0 71 71" fill="none" xmlns="http://www.w3.org/2000/svg">
<g id="undraw_sleep_analysis_o-5-f9 1" clip-path="url(#clip0_884_1561)">
<path id="Vector" opacity="0.1" d="M65.9889 47.7145C63.2265 50.3114 62.9885 55.4122 63.4632 59.7263C63.6223 61.1703 63.8222 62.709 63.3401 64.0328C62.7505 65.6519 61.2877 66.4809 59.8898 66.7067C57.342 67.1178 54.6625 65.8904 52.9136 63.5101C51.4021 61.4528 50.5998 58.6774 49.0428 56.6752C46.4355 53.3245 42.3126 52.8331 38.6136 53.2535C35.9963 53.5504 33.0848 54.1062 30.9715 52.1293C29.4847 50.7378 28.7653 48.3481 28.5915 46.0185C28.5086 44.8934 28.5247 43.7134 28.1235 42.7059C27.8835 42.107 27.5092 41.6113 27.112 41.1655C23.4859 37.0959 17.8909 36.6822 14.4473 32.3681C12.1214 29.454 11.1587 25.134 11.2115 20.9933C11.2643 16.8526 12.227 12.8219 13.284 8.89687C14.0334 6.11046 14.9353 3.17011 16.8366 1.47492C18.8429 -0.317552 21.6267 -0.286254 23.881 0.962299C26.1353 2.21085 27.9283 4.51002 29.4051 7.00035C31.251 10.1133 32.8047 13.7337 35.4788 15.6565C37.3032 16.9702 39.4339 17.3263 41.4789 17.9007C44.8972 18.8591 48.1777 20.468 51.4288 22.1133C54.5415 23.6875 57.6669 25.3175 60.444 27.6962C62.4095 29.377 63.7814 31.672 65.5724 33.5634C66.7397 34.7959 68.1476 35.509 69.1985 36.9284C70.4928 38.6769 71.4656 41.2789 70.5356 43.611C69.6531 45.8265 67.4543 46.3357 65.9889 47.7145Z" fill="#B5838D"/>
<path id="Vector_2" d="M54.1302 14.8875H35.5869V15.6445H54.1302V14.8875Z" fill="#EBECF0"/>
<path id="Vector_3" d="M54.1302 15.6445H35.5869V28.1038H54.1302V15.6445Z" fill="#F8F9FA"/>
<path id="Vector_4" opacity="0.5" d="M54.0059 19.4409C53.7198 19.5061 53.4711 19.6862 53.2171 19.8495C52.8828 20.0644 52.6201 20.1185 52.253 19.9857C52.0244 19.9011 51.7663 19.8284 51.5437 19.9781C51.2629 20.1667 51.2308 20.6709 50.821 20.5118C50.6793 20.4569 50.6205 20.7377 50.7602 20.7927C50.8793 20.8422 51.0074 20.8461 51.1282 20.8038C51.2491 20.7615 51.3574 20.6749 51.4394 20.555C51.5638 20.3697 51.6159 20.1887 51.8405 20.1819C52.015 20.1769 52.1795 20.2665 52.346 20.3207C53.0071 20.5254 53.4544 19.8613 54.0668 19.7218C54.2125 19.6879 54.1503 19.4079 54.0059 19.4409Z" fill="#B5838D"/>
<path id="Vector_5" d="M50.8076 20.5388C50.1752 20.4543 49.5374 20.3773 48.9023 20.4813C48.3273 20.5761 47.8326 20.8637 47.3278 21.2147C46.8231 21.5658 46.3311 21.916 45.7488 21.8864C45.1665 21.8568 44.6383 21.548 44.0774 21.4355C43.5379 21.3306 43.1134 21.4829 42.6735 21.8804C42.4148 22.1139 42.1634 22.2831 41.8405 22.3169C41.5557 22.3465 41.2695 22.3051 40.9841 22.3009C40.501 22.282 40.0269 22.4687 39.6376 22.8312C39.2666 23.1696 38.9464 23.5926 38.5553 23.8928C38.0545 24.2777 37.5806 24.2033 37.0932 23.8252C36.6526 23.4868 36.2482 23.0444 35.708 23.0148C35.5602 23.0063 35.5602 23.2982 35.708 23.3058C36.2187 23.3337 36.6112 23.804 37.0303 24.1179C37.4027 24.3962 37.8165 24.5501 38.2437 24.3911C39.1055 24.0696 39.5862 22.8837 40.4753 22.6401C41.057 22.481 41.6667 22.7492 42.2423 22.5149C42.495 22.4125 42.6955 22.2078 42.9108 22.0209C43.141 21.8069 43.4181 21.6886 43.7037 21.6825C44.272 21.6825 44.8101 21.9929 45.3637 22.1165C45.8709 22.2306 46.3937 22.1388 46.8572 21.8542C47.4462 21.5116 47.9716 21.021 48.6141 20.8391C49.3341 20.6327 50.0849 20.7342 50.8116 20.829C50.9567 20.8493 50.9553 20.5583 50.8076 20.5388Z" fill="#B5838D"/>
<path id="Vector_6" d="M50.8176 21.1166C51.0716 21.1166 51.2776 20.856 51.2776 20.5346C51.2776 20.2132 51.0716 19.9526 50.8176 19.9526C50.5636 19.9526 50.3577 20.2132 50.3577 20.5346C50.3577 20.856 50.5636 21.1166 50.8176 21.1166Z" fill="#B5838D"/>
<path id="Vector_7" d="M35.9807 15.411C36.0568 15.411 36.1185 15.333 36.1185 15.2368C36.1185 15.1405 36.0568 15.0625 35.9807 15.0625C35.9047 15.0625 35.843 15.1405 35.843 15.2368C35.843 15.333 35.9047 15.411 35.9807 15.411Z" fill="#F8F9FA"/>
<path id="Vector_8" d="M36.3484 15.411C36.4245 15.411 36.4861 15.333 36.4861 15.2368C36.4861 15.1405 36.4245 15.0625 36.3484 15.0625C36.2724 15.0625 36.2107 15.1405 36.2107 15.2368C36.2107 15.333 36.2724 15.411 36.3484 15.411Z" fill="#F8F9FA"/>
<path id="Vector_9" d="M36.7168 15.411C36.7929 15.411 36.8545 15.333 36.8545 15.2368C36.8545 15.1405 36.7929 15.0625 36.7168 15.0625C36.6408 15.0625 36.5791 15.1405 36.5791 15.2368C36.5791 15.333 36.6408 15.411 36.7168 15.411Z" fill="#F8F9FA"/>
<path id="Vector_10" d="M0.701397 47.8379C0.701397 47.8379 -2.61255 54.3885 8.2512 54.5011C8.2512 54.5011 8.41098 48.8014 4.85971 46.4531C4.16917 45.9945 3.36966 45.8722 2.61265 46.1095C1.85564 46.3468 1.19369 46.9271 0.752206 47.7406L0.701397 47.8379Z" fill="#B5838D"/>
<path id="Vector_11" d="M0.726074 47.7279C0.726074 47.7279 6.29032 49.1152 8.25114 54.5011" stroke="#535461" stroke-miterlimit="10"/>
<path id="Vector_12" d="M8.73644 53.6196C8.73644 53.6196 5.16377 47.7778 5.49002 42.0189C5.62373 39.6021 5.17514 37.1879 4.1389 35.1493C3.64583 34.184 3.08392 33.2779 2.46021 32.4424" stroke="#535461" stroke-width="2" stroke-miterlimit="10"/>
<path id="Vector_13" d="M2.64739 28.8127C2.89675 29.6214 2.46287 32.5389 2.46287 32.5389C2.46287 32.5389 0.582274 30.7633 0.332909 29.9547C0.267158 29.7608 0.232905 29.5522 0.232189 29.3412C0.231473 29.1303 0.264308 28.9213 0.32874 28.7268C0.393173 28.5322 0.487884 28.356 0.607237 28.2087C0.72659 28.0615 0.868144 27.9461 1.02347 27.8694C1.1788 27.7928 1.34473 27.7565 1.51138 27.7626C1.67803 27.7688 1.84199 27.8174 1.99351 27.9054C2.14503 27.9934 2.281 28.1191 2.39333 28.2749C2.50567 28.4308 2.59207 28.6137 2.64739 28.8127V28.8127Z" fill="#B5838D"/>
<path id="Vector_14" d="M5.94338 32.3469C5.80566 33.1978 4.1878 35.3481 4.1878 35.3481C4.1878 35.3481 3.37084 32.5651 3.50856 31.7107C3.53782 31.5042 3.59944 31.3072 3.68981 31.1313C3.78017 30.9553 3.89744 30.8041 4.03472 30.6864C4.17199 30.5687 4.32649 30.4869 4.48912 30.4459C4.65175 30.405 4.81922 30.4056 4.98166 30.4477C5.1441 30.4899 5.29822 30.5728 5.43496 30.6915C5.5717 30.8102 5.68828 30.9623 5.77784 31.1389C5.8674 31.3155 5.92812 31.5129 5.95644 31.7197C5.98475 31.9264 5.98009 32.1382 5.94271 32.3426L5.94338 32.3469Z" fill="#B5838D"/>
<path id="Vector_15" d="M8.22178 40.0445C7.76317 40.6908 5.50952 41.5138 5.50952 41.5138C5.50952 41.5138 5.91466 38.5896 6.3726 37.9433C6.59416 37.6395 6.90135 37.4583 7.22771 37.4389C7.55406 37.4195 7.87332 37.5635 8.1164 37.8397C8.35948 38.1159 8.50682 38.5021 8.52655 38.9147C8.54627 39.3274 8.43678 39.7332 8.22178 40.0445V40.0445Z" fill="#B5838D"/>
<path id="Vector_16" d="M8.909 46.361C8.54331 47.0961 6.4314 48.3911 6.4314 48.3911C6.4314 48.3911 6.44009 45.4229 6.80578 44.6878C6.89097 44.5085 7.00358 44.3525 7.13702 44.2289C7.27046 44.1054 7.42204 44.0167 7.58289 43.9682C7.74374 43.9197 7.91062 43.9124 8.07376 43.9465C8.2369 43.9806 8.39301 44.0556 8.53295 44.1671C8.67289 44.2785 8.79385 44.4242 8.88875 44.5955C8.98364 44.7668 9.05056 44.9604 9.08558 45.1649C9.1206 45.3694 9.12302 45.5806 9.0927 45.7863C9.06238 45.992 8.99993 46.1879 8.909 46.3627V46.361Z" fill="#B5838D"/>
<path id="Vector_17" d="M1.80367 36.7049C2.43611 37.0433 4.7526 36.5713 4.7526 36.5713C4.7526 36.5713 3.40349 34.1419 2.77105 33.8035C2.62048 33.7231 2.45888 33.6811 2.29547 33.6797C2.13206 33.6784 1.97003 33.7178 1.81865 33.7956C1.66727 33.8735 1.5295 33.9884 1.41319 34.1336C1.29689 34.2789 1.20434 34.4517 1.14082 34.6422C1.0773 34.8327 1.04406 35.0372 1.043 35.244C1.04193 35.4507 1.07306 35.6557 1.13462 35.8473C1.19617 36.0388 1.28693 36.2132 1.40173 36.3603C1.51653 36.5075 1.65311 36.6246 1.80367 36.7049V36.7049Z" fill="#B5838D"/>
<path id="Vector_18" d="M2.68367 44.0786C3.36691 44.1632 5.46546 42.8343 5.46546 42.8343C5.46546 42.8343 3.60224 41.0308 2.91899 40.9479C2.75424 40.9225 2.58714 40.9392 2.42755 40.9968C2.26796 41.0544 2.1191 41.1519 1.98978 41.2836C1.86045 41.4152 1.75327 41.5782 1.67455 41.7631C1.59584 41.948 1.54718 42.1509 1.53147 42.36C1.51575 42.5691 1.53328 42.78 1.58303 42.9803C1.63278 43.1807 1.71374 43.3664 1.82114 43.5265C1.92853 43.6866 2.06018 43.8179 2.20832 43.9125C2.35646 44.0072 2.51809 44.0634 2.68367 44.0778V44.0786Z" fill="#B5838D"/>
<path id="Vector_19" d="M4.31424 51.0962C4.97677 51.3237 7.22239 50.4643 7.22239 50.4643C7.22239 50.4643 5.62658 48.2878 4.96406 48.0611C4.80546 48.0026 4.63924 47.9847 4.47511 48.0085C4.31099 48.0322 4.15225 48.0971 4.00818 48.1994C3.86412 48.3017 3.73761 48.4393 3.63607 48.6042C3.53452 48.7691 3.45997 48.9579 3.41677 49.1596C3.37358 49.3614 3.3626 49.572 3.38449 49.7792C3.40638 49.9864 3.4607 50.186 3.54426 50.3663C3.62782 50.5466 3.73896 50.704 3.87117 50.8293C4.00337 50.9547 4.154 51.0454 4.31424 51.0962V51.0962Z" fill="#B5838D"/>
<path id="Vector_20" opacity="0.25" d="M2.64739 28.8127C2.89675 29.6214 2.46287 32.5389 2.46287 32.5389C2.46287 32.5389 0.582274 30.7633 0.332909 29.9547C0.267158 29.7608 0.232905 29.5522 0.232189 29.3412C0.231473 29.1303 0.264308 28.9213 0.32874 28.7268C0.393173 28.5322 0.487884 28.356 0.607237 28.2087C0.72659 28.0615 0.868144 27.9461 1.02347 27.8694C1.1788 27.7928 1.34473 27.7565 1.51138 27.7626C1.67803 27.7688 1.84199 27.8174 1.99351 27.9054C2.14503 27.9934 2.281 28.1191 2.39333 28.2749C2.50567 28.4308 2.59207 28.6137 2.64739 28.8127V28.8127Z" fill="black"/>
<path id="Vector_21" opacity="0.25" d="M5.94338 32.3469C5.80566 33.1978 4.1878 35.3481 4.1878 35.3481C4.1878 35.3481 3.37084 32.5651 3.50856 31.7107C3.53782 31.5042 3.59944 31.3072 3.68981 31.1313C3.78017 30.9553 3.89744 30.8041 4.03472 30.6864C4.17199 30.5687 4.32649 30.4869 4.48912 30.4459C4.65175 30.405 4.81922 30.4056 4.98166 30.4477C5.1441 30.4899 5.29822 30.5728 5.43496 30.6915C5.5717 30.8102 5.68828 30.9623 5.77784 31.1389C5.8674 31.3155 5.92812 31.5129 5.95644 31.7197C5.98475 31.9264 5.98009 32.1382 5.94271 32.3426L5.94338 32.3469Z" fill="black"/>
<path id="Vector_22" opacity="0.25" d="M8.22178 40.0445C7.76317 40.6908 5.50952 41.5138 5.50952 41.5138C5.50952 41.5138 5.91466 38.5896 6.3726 37.9433C6.59416 37.6395 6.90135 37.4583 7.22771 37.4389C7.55406 37.4195 7.87332 37.5635 8.1164 37.8397C8.35948 38.1159 8.50682 38.5021 8.52655 38.9147C8.54627 39.3274 8.43678 39.7332 8.22178 40.0445V40.0445Z" fill="black"/>
<path id="Vector_23" opacity="0.25" d="M8.909 46.361C8.54331 47.0961 6.4314 48.3911 6.4314 48.3911C6.4314 48.3911 6.44009 45.4229 6.80578 44.6878C6.89097 44.5085 7.00358 44.3525 7.13702 44.2289C7.27046 44.1054 7.42204 44.0167 7.58289 43.9682C7.74374 43.9197 7.91062 43.9124 8.07376 43.9465C8.2369 43.9806 8.39301 44.0556 8.53295 44.1671C8.67289 44.2785 8.79385 44.4242 8.88875 44.5955C8.98364 44.7668 9.05056 44.9604 9.08558 45.1649C9.1206 45.3694 9.12302 45.5806 9.0927 45.7863C9.06238 45.992 8.99993 46.1879 8.909 46.3627V46.361Z" fill="black"/>
<path id="Vector_24" opacity="0.25" d="M1.80367 36.7049C2.43611 37.0433 4.7526 36.5713 4.7526 36.5713C4.7526 36.5713 3.40349 34.1419 2.77105 33.8035C2.62048 33.7231 2.45888 33.6811 2.29547 33.6797C2.13206 33.6784 1.97003 33.7178 1.81865 33.7956C1.66727 33.8735 1.5295 33.9884 1.41319 34.1336C1.29689 34.2789 1.20434 34.4517 1.14082 34.6422C1.0773 34.8327 1.04406 35.0372 1.043 35.244C1.04193 35.4507 1.07306 35.6557 1.13462 35.8473C1.19617 36.0388 1.28693 36.2132 1.40173 36.3603C1.51653 36.5075 1.65311 36.6246 1.80367 36.7049V36.7049Z" fill="black"/>
<path id="Vector_25" opacity="0.25" d="M2.68367 44.0786C3.36691 44.1632 5.46546 42.8343 5.46546 42.8343C5.46546 42.8343 3.60224 41.0308 2.91899 40.9479C2.75424 40.9225 2.58714 40.9392 2.42755 40.9968C2.26796 41.0544 2.1191 41.1519 1.98978 41.2836C1.86045 41.4152 1.75327 41.5782 1.67455 41.7631C1.59584 41.948 1.54718 42.1509 1.53147 42.36C1.51575 42.5691 1.53328 42.78 1.58303 42.9803C1.63278 43.1807 1.71374 43.3664 1.82114 43.5265C1.92853 43.6866 2.06018 43.8179 2.20832 43.9125C2.35646 44.0072 2.51809 44.0634 2.68367 44.0778V44.0786Z" fill="black"/>
<path id="Vector_26" opacity="0.25" d="M4.31424 51.0962C4.97677 51.3237 7.22239 50.4643 7.22239 50.4643C7.22239 50.4643 5.62658 48.2878 4.96406 48.0611C4.80546 48.0026 4.63924 47.9847 4.47511 48.0085C4.31099 48.0322 4.15225 48.0971 4.00818 48.1994C3.86412 48.3017 3.73761 48.4393 3.63607 48.6042C3.53452 48.7691 3.45997 48.9579 3.41677 49.1596C3.37358 49.3614 3.3626 49.572 3.38449 49.7792C3.40638 49.9864 3.4607 50.186 3.54426 50.3663C3.62782 50.5466 3.73896 50.704 3.87117 50.8293C4.00337 50.9547 4.154 51.0454 4.31424 51.0962V51.0962Z" fill="black"/>
<path id="Vector_27" opacity="0.1" d="M31.212 42.4038C29.9418 42.3682 28.5773 42.4486 27.5678 43.0805C25.6959 44.2495 25.9479 46.6206 24.7272 48.2659C23.6963 49.6548 21.7261 50.3764 19.8154 50.8366C16.7027 51.5869 13.4383 51.8677 10.3469 52.6739C8.5245 53.1493 6.71543 53.8404 5.4666 55.0229C4.21777 56.2055 3.65754 57.9692 4.5019 59.3683C5.28276 60.6617 7.00291 61.3537 8.56929 62.0236C10.1357 62.6936 11.795 63.5725 12.2309 64.9691C12.4736 65.7465 12.2931 66.5847 12.5765 67.352C13.1354 68.8661 15.2286 69.5809 17.1092 69.9675C18.6114 70.2763 20.1383 70.5038 21.6773 70.6442C22.9068 70.7584 24.1643 70.8185 25.371 70.596C26.4159 70.4032 27.3833 70.0039 28.3854 69.6968C34.7526 67.7352 42.0758 69.4321 48.57 67.7707C49.7519 67.4704 50.9145 67.0475 51.8104 66.3555C52.4789 65.8412 52.9736 65.1983 53.3901 64.5317C54.4504 62.8399 55.0314 60.9426 55.0762 59.0401C55.1029 57.8999 54.9425 56.7477 55.1892 55.6244C55.4479 54.4553 56.1385 53.3802 56.5062 52.2306C57.1747 50.1412 56.7067 47.8319 55.2513 46.0242C54.7318 45.358 54.0949 44.8571 53.3928 44.5625C52.8045 44.324 52.1466 44.2326 51.4988 44.1396C49.6938 43.8917 47.8653 43.643 46.0442 43.7826C44.7486 43.8824 43.4804 44.1776 42.1807 44.2309C40.357 44.3062 38.9283 43.7741 37.275 43.2742C35.373 42.7041 33.233 42.4596 31.212 42.4038Z" fill="#B5838D"/>
<path id="Vector_28" d="M8.25708 25.111V47.7363L32.049 41.8886L31.5944 24.5358L8.25708 25.111Z" fill="#DBACA2"/>
<path id="Vector_29" d="M52.9804 51.7874V59.2652L27.8246 68.565L27.5679 68.3967L7.67017 55.3343V24.4157L32.2951 23.4091L32.4469 40.5699L31.4614 40.9539L31.0824 24.9029L9.41238 25.8537L9.26129 49.1025L28.1274 59.5528L28.1421 59.5486L52.9804 51.7874Z" fill="#E8C2B8"/>
<path id="Vector_30" opacity="0.1" d="M52.9804 51.7874V59.2651L27.8246 68.565L27.5679 68.3966L28.1421 59.5485L52.9804 51.7874Z" fill="black"/>
<path id="Vector_31" d="M22.6535 40.9293C22.6535 40.9293 10.4741 42.4672 9.29142 44.6944C8.10877 46.9217 9.28139 49.654 9.28139 49.654L28.1101 60.0078L53.6443 51.6672C53.6443 51.6672 52.9624 45.8187 50.8411 45.1478C48.7198 44.477 31.8212 39.8753 31.8212 39.8753C31.8212 39.8753 25.0021 39.3475 22.6535 40.9293Z" fill="#EBECF0"/>
<path id="Vector_32" d="M9.28003 44.7156L28.4878 53.1045C28.4878 53.1045 48.9752 45.2443 51.8773 45.9845C51.8773 45.9845 37.5458 39.4939 31.8211 39.7764C27.259 40.0014 22.4823 40.9488 22.4823 40.9488C22.4823 40.9488 9.81085 42.5594 9.28003 44.7156Z" fill="#F8F9FA"/>
<path id="Vector_33" d="M38.8327 50.1124L38.8374 50.104V50.0989L38.8407 50.0904V50.0845V50.076V50.0701V50.0608V50.0549V50.0439V50.0388C38.8407 50.0338 38.8407 50.0287 38.8407 50.0236C38.8407 50.0177 38.8407 50.0118 38.8407 50.0058C38.8407 49.9999 38.8407 50.0058 38.8407 49.9999C38.8407 49.994 38.8407 49.9915 38.8407 49.9872V49.9796V49.9669V49.9585V49.9458V49.9373V49.9238V49.9153V49.9009V49.8933L38.8354 49.8722L38.8287 49.8485V49.8409L38.8233 49.824V49.8147L38.818 49.7986L38.8146 49.7884L38.8093 49.7724L38.8053 49.7614L38.7993 49.7453L38.7953 49.7352L38.7879 49.7174L38.7839 49.7081L38.7739 49.6835L38.7618 49.6548L38.7578 49.6455L38.7491 49.6252L38.7445 49.6142L38.7358 49.5956L38.7304 49.5837L38.7217 49.5651L38.707 49.5372L38.6977 49.5186L38.6916 49.5068L38.6816 49.4865L38.6763 49.4755L38.6629 49.4484V49.4433L38.6462 49.4112L38.6408 49.4019L38.6288 49.379L38.6221 49.3672L38.6107 49.3469L38.6041 49.3342L38.5927 49.3139L38.5853 49.3004L38.5733 49.2834L38.566 49.2707L38.5533 49.2488L38.5466 49.2378L38.5299 49.209V49.2048L38.5105 49.1709L38.5038 49.1591L38.4911 49.1371L38.4824 49.1227L38.4704 49.1024L38.4617 49.088L38.4496 49.0677L38.4409 49.0542L38.4282 49.0331L38.4195 49.0195L38.4062 48.9975L38.3982 48.9848L38.3821 48.9595L38.3768 48.951C38.3166 48.8546 38.2544 48.7581 38.1922 48.6651C38.0169 48.4014 37.8022 48.1839 37.5603 48.0253C37.3185 47.8667 37.0544 47.7699 36.783 47.7405C36.7275 47.7346 36.6693 47.727 36.6105 47.7177H36.5857L36.5423 47.7101H36.5216L36.4547 47.6982L36.3912 47.6855L36.3691 47.6805L36.3243 47.6703L36.2976 47.6635L36.2568 47.6534L36.2281 47.6458L36.1893 47.6348L36.1599 47.6263L36.1211 47.6145L36.091 47.6052L36.0529 47.5925L36.0228 47.5823L35.9847 47.5688C35.7842 47.1915 35.4793 46.8557 35.1825 46.7906C35.1007 46.7745 35.0172 46.78 34.9371 46.8066L34.9231 46.7872L34.903 46.7584L34.8763 46.7153L34.8589 46.6865L34.8308 46.6366L34.8168 46.6121C34.803 46.5867 34.7898 46.5608 34.7773 46.5343C34.7379 46.512 34.6966 46.4953 34.6543 46.4843C35.2459 46.371 35.8292 46.197 36.3986 45.9641C36.4261 45.9509 36.4524 45.9336 36.4768 45.9125L36.4888 45.9074C36.9842 45.6791 37.5926 43.4543 37.1647 43.143C36.7368 42.8317 36.0837 40.267 35.7006 38.9533C35.3175 37.6396 34.2138 37.5 34.2138 37.5C34.2138 37.5 32.6146 35.9326 31.8939 36.1034C31.1733 36.2743 31.0603 34.9065 30.9928 34.8498C30.9849 34.8416 30.9783 34.8315 30.9734 34.8202C30.7995 34.4759 29.4177 34.0166 28.6723 33.7899C27.9435 33.1216 27.0744 32.6031 26.3718 32.3891C26.1371 32.3087 25.8909 32.2982 25.6524 32.3584C25.4139 32.4185 25.1897 32.5478 24.9973 32.7359C23.5212 32.8306 23.2858 34.2416 23.2858 34.2416C23.2808 34.4341 23.3072 34.6259 23.3634 34.805C23.2836 34.8063 23.2039 34.801 23.1247 34.7889C23.2959 34.4311 23.3012 33.9709 23.4289 33.5776C23.6809 32.7993 24.3762 32.3975 25.0334 32.2926C25.4165 32.2317 25.8356 32.2317 26.1378 31.9281C26.2934 31.7708 26.3995 31.5486 26.4373 31.3012C26.4496 31.2478 26.4458 31.1906 26.4266 31.1405C26.4079 31.1081 26.3828 31.0824 26.3538 31.0661C25.958 30.7988 25.4813 30.8681 25.0321 30.8555C24.302 30.8351 23.5907 30.5822 22.8847 30.3479C22.5859 30.2489 22.263 30.1534 21.9742 30.2938C21.7014 30.4257 21.5155 30.7404 21.2969 30.9849C20.4011 31.9847 18.9136 31.8401 18.1167 32.9668C17.9322 33.2282 17.7938 33.5826 17.8613 33.9227C17.8887 34.0614 17.9496 34.1892 17.969 34.3304C18.0077 34.6096 17.882 34.8769 17.7757 35.1264C17.6694 35.376 17.5752 35.6788 17.6755 35.9326C17.8272 36.32 18.2905 36.2912 18.5312 36.5983C18.6428 36.7412 18.697 36.946 18.8133 37.0821C18.9998 37.2995 19.2866 37.2826 19.5394 37.2513C19.639 37.2395 19.788 37.2048 19.8429 37.094C20.0383 37.3266 20.2738 37.4987 20.5308 37.5965C20.7877 37.6944 21.0591 37.7155 21.3236 37.6581C21.5881 37.6007 21.8385 37.4664 22.0549 37.2658C22.2714 37.0651 22.4481 36.8036 22.5712 36.5019C23.1158 36.4553 23.657 36.6405 24.1088 37.028C24.1769 37.2819 24.3019 37.5053 24.4685 37.6709C24.6263 37.8274 24.8141 38.0194 25.0033 38.225C24.524 38.3848 24.0981 38.4872 24.0981 38.4872C24.0981 38.4872 22.2062 39.257 22.2062 39.7696C22.2129 39.8624 22.2357 39.9522 22.273 40.0326C22.2251 40.1601 22.198 40.2985 22.1934 40.4395C21.6713 40.3279 21.2535 40.1595 21.0375 39.9117C21.0375 39.9117 20.976 39.8905 20.8811 39.8669C20.7541 39.6613 20.381 39.0903 20.1591 39.1132C20.0113 39.1284 19.9585 39.5632 19.9398 39.9523C19.9204 39.9735 19.9033 39.998 19.889 40.025C19.6637 40.4522 20.0695 41.3074 20.3396 41.4504C20.6097 41.5933 22.0965 41.535 23.11 42.4765C23.5593 42.8935 24.3314 42.9739 25.0488 42.9349C24.3274 43.5795 23.3173 44.5701 23.1769 45.1842C23.1013 45.5099 23.0124 45.9142 23.0178 46.3295C22.5765 47.068 21.9087 48.627 23.5599 49.3748C24.9211 49.9898 28.6114 49.9111 31.2408 49.7605C32.4642 50.0338 33.4744 50.3087 33.8982 50.5717C33.8982 50.5717 34.9117 50.7409 35.3175 51.0565C35.7233 51.372 36.4661 51.2848 36.4661 51.2848C36.4661 51.2848 37.9074 51.5987 38.223 51.9971C38.5385 52.3955 39.0787 51.3128 38.4035 50.8001C38.1401 50.6005 37.7477 50.2715 37.3673 49.9111C37.856 49.9838 38.2872 50.0634 38.5613 50.1446L38.5887 50.1522H38.5974H38.6148H38.6248H38.6395H38.6489H38.6629H38.7297H38.7471H38.7525H38.7632H38.7692H38.7779H38.7832H38.7913H38.7966L38.804 50.1479H38.8086L38.8153 50.142H38.8187L38.8274 50.1327L38.8327 50.1124ZM32.6106 47.3802C32.6106 47.3802 32.4207 47.3252 32.1373 47.2406L31.5744 46.953C31.5744 46.953 32.5351 46.5706 33.4249 46.0842C33.6796 46.2255 33.9036 46.338 33.9597 46.4404C33.9839 46.4743 34.0169 46.4962 34.0527 46.5021C33.7184 46.607 33.2892 46.8768 32.7858 47.4994C32.7247 47.4663 32.6661 47.4264 32.6106 47.3802V47.3802ZM25.8089 40.5114L26.3645 40.1849C26.4855 40.3152 26.6152 40.4387 26.7422 40.5588C26.4373 40.5816 26.0275 40.607 25.5642 40.6231C25.7059 40.563 25.8089 40.5114 25.8089 40.5114Z" fill="url(#paint0_linear_884_1561)"/>
<path id="Vector_34" d="M21.075 39.9667C21.075 39.9667 20.5896 39.1327 20.3256 39.158C20.0615 39.1834 20.105 40.5808 20.105 40.5808L21.075 39.9667Z" fill="#FFD5D8"/>
<path id="Vector_35" d="M27.3152 40.525C27.3152 40.525 22.1554 41.0554 21.1853 39.9388C21.1853 39.9388 20.2815 39.6317 20.0608 40.0504C19.8402 40.4691 20.2373 41.3057 20.5021 41.4453C20.7668 41.5849 22.2222 41.5299 23.2143 42.4494C24.2065 43.3689 26.8084 42.6186 26.8084 42.6186L27.8888 42.0882L27.3152 40.525Z" fill="#FF7C5E"/>
<path id="Vector_36" opacity="0.05" d="M27.3152 40.525C27.3152 40.525 22.1554 41.0554 21.1853 39.9388C21.1853 39.9388 20.2815 39.6317 20.0608 40.0504C19.8402 40.4691 20.2373 41.3057 20.5021 41.4453C20.7668 41.5849 22.2222 41.5299 23.2143 42.4494C24.2065 43.3689 26.8084 42.6186 26.8084 42.6186L27.8888 42.0882L27.3152 40.525Z" fill="black"/>
<path id="Vector_37" d="M34.7018 43.6497C34.7018 43.6497 33.5993 42.6457 31.3283 43.9035C29.0573 45.1614 23.3907 45.8288 23.3907 45.8288C23.3907 45.8288 21.4948 48.2278 23.6582 49.2048C25.8216 50.1818 33.9771 49.374 33.9771 49.374C33.9771 49.374 37.3064 49.6531 38.3426 49.9602C38.9697 50.1463 38.4763 49.2479 37.9849 48.5103C37.8134 48.2519 37.6032 48.0389 37.3664 47.8836C37.1296 47.7282 36.8709 47.6336 36.6051 47.6052C35.9539 47.535 35.0507 47.2761 34.6376 46.4167C34.6376 46.4167 33.844 45.9142 32.6533 47.4208L31.5048 46.8303C31.5048 46.8303 34.6576 45.575 34.7679 44.7376C34.8782 43.9001 34.7018 43.6497 34.7018 43.6497Z" fill="#FFD5D8"/>
<path id="Vector_38" opacity="0.05" d="M34.7018 43.6497C34.7018 43.6497 33.5993 42.6457 31.3283 43.9035C29.0573 45.1614 23.3907 45.8288 23.3907 45.8288C23.3907 45.8288 21.4948 48.2278 23.6582 49.2048C25.8216 50.1818 33.9771 49.374 33.9771 49.374C33.9771 49.374 37.3064 49.6531 38.3426 49.9602C38.8921 50.1226 38.5799 49.4526 38.1661 48.7911C37.9597 48.4589 37.7035 48.1815 37.412 47.9751C37.1206 47.7686 36.7998 47.6372 36.468 47.5883C35.8329 47.4969 35.0227 47.2169 34.6382 46.4167C34.6382 46.4167 33.8447 45.9142 32.654 47.4208L31.5048 46.8303C31.5048 46.8303 34.6576 45.575 34.7679 44.7376C34.8782 43.9001 34.7018 43.6497 34.7018 43.6497Z" fill="black"/>
<path id="Vector_39" d="M34.724 39.6884C34.724 39.6884 33.3348 36.8969 30.0496 39.3255L25.8378 42.2861C25.8378 42.2861 23.4979 44.1556 23.28 45.1038C23.062 46.0521 22.7284 47.6703 25.0222 48.2844C27.316 48.8985 32.6516 49.6793 33.776 50.3772C33.776 50.3772 34.7682 50.5464 35.1653 50.8517C35.5624 51.1571 36.2898 51.0751 36.2898 51.0751C36.2898 51.0751 37.701 51.3821 38.0099 51.7729C38.3188 52.1637 38.8476 51.103 38.1864 50.6013C37.5252 50.0997 36.0257 48.7598 36.0471 48.2328C36.0685 47.7058 35.5397 46.7745 35.0302 46.6611C34.5208 46.5478 33.8616 47.4977 33.8616 47.4977C33.8616 47.4977 33.0239 47.6669 32.5165 47.244C32.5165 47.244 29.9146 46.4903 29.6498 46.2678C29.3851 46.0453 27.5774 45.18 27.5774 45.18C27.5774 45.18 31.856 45.1241 33.1115 43.6734C33.1115 43.6734 33.5969 43.2268 33.9933 43.3663C33.9967 43.3706 35.9588 42.4223 34.724 39.6884Z" fill="#FFD5D8"/>
<path id="Vector_40" d="M22.2215 34.4429C22.2215 34.4429 23.4783 35.5587 24.4484 34.4429C25.4184 33.3272 24.8682 37.8748 24.8682 37.8748C24.8682 37.8748 23.5231 35.6145 21.5168 37.094L22.2215 34.4429Z" fill="#FFD5D8"/>
<path id="Vector_41" opacity="0.05" d="M22.2215 34.4429C22.2215 34.4429 23.4783 35.5587 24.4484 34.4429C25.4184 33.3272 24.8682 37.8748 24.8682 37.8748C24.8682 37.8748 23.5231 35.6145 21.5168 37.094L22.2215 34.4429Z" fill="black"/>
<path id="Vector_42" d="M16.8419 44.0126C16.8419 44.0126 18.165 42.5898 18.9144 42.5619C19.1377 42.5535 19.3958 42.2658 19.6498 41.8666C19.9707 41.3621 20.394 40.9776 20.8743 40.7541C21.3547 40.5306 21.874 40.4765 22.3768 40.5977C22.8033 40.6975 23.3281 40.695 23.9652 40.4954C26.2804 39.7696 25.1338 37.9577 25.1338 37.9577L24.4065 37.1769C24.4065 37.1769 23.4143 36.3124 23.0393 36.3682C22.6642 36.424 21.6942 37.6794 21.5839 37.5398C21.4736 37.4002 20.1285 36.1449 19.9079 35.8099C19.6872 35.4749 17.9223 34.3871 18.3635 34.08C18.8048 33.773 21.031 32.6293 20.5898 32.406C20.1485 32.1827 17.7672 31.8477 16.8413 33.2426C15.9154 34.6375 16.378 43.2031 16.8419 44.0126Z" fill="#F8F9FA"/>
<path id="Vector_43" opacity="0.05" d="M16.8419 44.0126C16.8419 44.0126 18.165 42.5898 18.9144 42.5619C19.1377 42.5535 19.3958 42.2658 19.6498 41.8666C19.9707 41.3621 20.394 40.9776 20.8743 40.7541C21.3547 40.5306 21.874 40.4765 22.3768 40.5977C22.8033 40.6975 23.3281 40.695 23.9652 40.4954C26.2804 39.7696 25.1338 37.9577 25.1338 37.9577L24.4065 37.1769C24.4065 37.1769 23.4143 36.3124 23.0393 36.3682C22.6642 36.424 21.6942 37.6794 21.5839 37.5398C21.4736 37.4002 20.1285 36.1449 19.9079 35.8099C19.6872 35.4749 17.9223 34.3871 18.3635 34.08C18.8048 33.773 21.031 32.6293 20.5898 32.406C20.1485 32.1827 17.7672 31.8477 16.8413 33.2426C15.9154 34.6375 16.378 43.2031 16.8419 44.0126Z" fill="black"/>
<path id="Vector_44" d="M16.93 43.8172C16.93 43.8172 18.2531 42.3944 19.0025 42.3665C19.2258 42.3581 19.4839 42.0705 19.7379 41.6712C20.0585 41.1673 20.4811 40.783 20.9608 40.5594C21.4405 40.3358 21.9592 40.2812 22.4615 40.4015C22.8881 40.5013 23.4129 40.4988 24.05 40.2991C26.3651 39.5733 25.2186 37.7614 25.2186 37.7614L24.4912 36.9807C24.4912 36.9807 23.4991 36.1161 23.1241 36.172C22.749 36.2278 21.779 37.4831 21.6686 37.3435C21.5583 37.204 20.2132 35.9487 19.9926 35.6137C19.772 35.2787 18.0104 34.1917 18.4503 33.888C18.8902 33.5844 21.1184 32.4373 20.6772 32.214C20.236 31.9907 17.8546 31.6557 16.9287 33.0506C16.0028 34.4455 16.4667 43.0077 16.93 43.8172Z" fill="#F8F9FA"/>
<path id="Vector_45" d="M23.3901 34.3872C23.3901 34.3872 23.7431 32.2665 26.323 33.1039C28.9029 33.9414 30.1818 35.7542 30.1818 35.7542L27.8419 37.1211L24.9752 35.8937C24.9752 35.8937 23.3687 35.9183 23.3901 34.3872Z" fill="#FFD5D8"/>
<path id="Vector_46" opacity="0.05" d="M28.1095 33.8568C28.1095 33.8568 30.5904 34.5335 30.8244 34.9996C30.8294 35.0107 30.836 35.0204 30.8438 35.0284C30.9107 35.0842 31.0203 36.4233 31.7256 36.2558C32.4309 36.0883 33.9986 37.6228 33.9986 37.6228C33.9986 37.6228 35.079 37.7624 35.4541 39.0456C35.8291 40.3288 36.4682 42.8403 36.8874 43.1465C37.3066 43.4527 36.7109 45.6293 36.2262 45.8534C35.7415 46.0776 33.9993 46.6071 33.8449 46.328C33.6904 46.0488 32.3453 45.7418 32.4336 44.8493C32.5218 43.9569 33.0507 43.1195 32.6342 42.5891C32.2177 42.0587 31.9509 40.6638 31.3332 40.3847C30.7154 40.1055 29.613 40.0218 28.9518 40.5801C28.2907 41.1384 27.4918 41.1629 27.4918 41.1629C27.4918 41.1629 26.1246 40.1588 25.904 39.4609C25.7556 38.9906 25.0162 38.2039 24.5495 37.7412C24.4272 37.6197 24.3273 37.466 24.2568 37.2907C24.1862 37.1154 24.1467 36.9227 24.141 36.7261C24.1217 36.0376 24.1043 35.0225 24.1618 34.8584C24.25 34.6046 25.4627 33.1006 25.4627 33.1006L28.1095 33.8568Z" fill="black"/>
<path id="Vector_47" d="M28.1976 33.8035C28.1976 33.8035 30.6786 34.4802 30.9126 34.9463C30.9175 34.9574 30.9241 34.9671 30.932 34.9751C30.9988 35.0309 31.1085 36.37 31.8138 36.2025C32.5191 36.035 34.0868 37.5695 34.0868 37.5695C34.0868 37.5695 35.1672 37.709 35.5422 38.9923C35.9173 40.2755 36.5564 42.787 36.9756 43.0932C37.3947 43.3994 36.7991 45.5759 36.3144 45.8001C35.8297 46.0243 34.0875 46.5538 33.933 46.2747C33.7786 45.9955 32.4335 45.6885 32.5217 44.796C32.61 43.9036 33.1388 43.0662 32.7223 42.5358C32.3058 42.0054 32.0391 40.6105 31.4213 40.3313C30.8036 40.0522 29.7012 39.9685 29.04 40.5268C28.3788 41.085 27.5077 41.1823 27.5077 41.1823C27.5077 41.1823 26.2181 40.108 25.9975 39.411C25.8491 38.9407 25.1097 38.154 24.643 37.6913C24.5207 37.5698 24.4208 37.4161 24.3503 37.2408C24.2797 37.0655 24.2402 36.8728 24.2345 36.6762C24.2152 35.9876 24.1978 34.9726 24.2553 34.8084C24.3435 34.5547 25.5562 33.0507 25.5562 33.0507L28.1976 33.8035Z" fill="#FF7C5E"/>
<path id="Vector_48" d="M22.4863 39.8551C22.4642 39.883 22.0892 40.5809 22.5304 40.9708C22.6525 41.0841 22.7935 41.1603 22.9426 41.1936C23.0917 41.2269 23.2448 41.2164 23.3902 41.1629L22.4863 39.8551Z" fill="#FFD5D8"/>
<path id="Vector_49" opacity="0.1" d="M24.601 33.773C24.601 33.773 25.1967 32.2665 26.4729 32.6573C27.7492 33.0481 29.6037 34.4709 30.0449 35.8937C30.4862 37.3165 28.3736 39.0481 28.3736 39.0481L25.8599 40.5267C25.8599 40.5267 25.0884 40.9175 24.8678 40.7805C24.6472 40.6434 23.5889 41.8395 23.5889 41.8395C23.5889 41.8395 22.3982 40.3888 22.3982 39.8863C22.3982 39.3839 24.2507 38.6251 24.2507 38.6251C24.2507 38.6251 26.4569 38.0947 26.4335 37.5652C26.4335 37.5652 26.8085 37.0069 26.61 36.8394C26.4114 36.6719 24.2835 35.8768 24.2835 35.8768C24.2835 35.8768 24.2066 34.108 24.601 33.773Z" fill="black"/>
<path id="Vector_50" d="M24.534 33.6893C24.534 33.6893 25.1296 32.1827 26.4059 32.5735C27.6821 32.9643 29.5366 34.3871 29.9779 35.8099C30.4191 37.2328 28.3072 38.9635 28.3072 38.9635L25.7935 40.4421C25.7935 40.4421 25.022 40.8329 24.8014 40.6959C24.5808 40.5588 23.5225 41.755 23.5225 41.755C23.5225 41.755 22.3318 40.3042 22.3318 39.8018C22.3318 39.2993 24.1843 38.5405 24.1843 38.5405C24.1843 38.5405 26.3905 38.0101 26.3671 37.4806C26.3671 37.4806 26.7421 36.9223 26.5436 36.7548C26.345 36.5873 24.2171 35.7922 24.2171 35.7922C24.2171 35.7922 24.1402 34.0242 24.534 33.6893Z" fill="#FF7C5E"/>
<path id="Vector_51" opacity="0.1" d="M21.7148 36.814C22.0725 36.5384 22.4752 36.3697 22.8921 36.3209C23.0131 36.0256 22.6956 35.7042 22.6956 35.3489C22.6956 35.0512 22.606 34.9378 22.5191 34.679C22.2035 34.5343 22.4202 34.163 22.4202 34.163L21.7148 36.814Z" fill="black"/>
<path id="Vector_52" d="M21.1854 37.7631C22.1232 37.7631 22.8835 36.8012 22.8835 35.6145C22.8835 34.4279 22.1232 33.4659 21.1854 33.4659C20.2476 33.4659 19.4873 34.4279 19.4873 35.6145C19.4873 36.8012 20.2476 37.7631 21.1854 37.7631Z" fill="#FFD5D8"/>
<path id="Vector_53" d="M19.9125 36.496C20.2915 36.1255 20.7849 36.0011 21.2623 35.947C21.5604 35.9131 21.8639 35.9013 22.1501 35.7863C22.3146 35.7136 22.4743 35.6242 22.6274 35.519C22.832 35.387 23.0433 35.2483 23.183 35.0173C23.4009 34.657 23.3942 34.1579 23.5306 33.7375C23.7773 32.9762 24.4579 32.582 25.1037 32.4796C25.4787 32.4196 25.8886 32.4196 26.1854 32.1227C26.3377 31.9688 26.4417 31.7514 26.4789 31.5094C26.4908 31.4571 26.4869 31.401 26.4682 31.352C26.4498 31.3203 26.4251 31.2952 26.3966 31.2793C26.0089 31.0179 25.5422 31.0856 25.103 31.0729C24.3884 31.0534 23.6917 30.8047 23.0005 30.5755C22.7076 30.4782 22.3914 30.3852 22.1093 30.5222C21.8419 30.6516 21.6607 30.9595 21.4461 31.1989C20.569 32.1785 19.1129 32.0364 18.3327 33.1394C18.1522 33.3932 18.0165 33.7426 18.0827 34.075C18.1101 34.2112 18.1689 34.3355 18.1883 34.4743C18.2264 34.7475 18.1034 35.0097 17.9991 35.2533C17.8948 35.497 17.8039 35.7947 17.9009 36.0426C18.0499 36.4215 18.5025 36.3936 18.7385 36.6939C18.8482 36.8335 18.9003 37.0323 19.0146 37.1676C19.1978 37.3808 19.4779 37.3639 19.7253 37.3368C19.859 37.3207 20.0776 37.2649 20.0395 37.0382C20.0074 36.8352 19.7955 36.748 19.9125 36.496Z" fill="#85596B"/>
<path id="Vector_54" d="M19.3196 37.7793C19.3196 37.7793 20.4775 36.6796 21.2049 37.0399C21.9322 37.4003 22.1308 37.5982 22.5941 37.3783C23.0574 37.1584 23.2553 37.8249 23.2553 37.8249L20.3699 38.8789L19.3196 37.7793Z" fill="#F8F9FA"/>
<path id="Vector_55" opacity="0.05" d="M17.7571 39.7019C17.7571 39.7019 18.2866 37.9721 18.9257 37.6371Z" fill="black"/>
<path id="Vector_56" opacity="0.05" d="M17.0732 39.1437C17.0732 39.1437 17.6027 37.4138 18.2418 37.0789Z" fill="black"/>
<path id="Vector_57" opacity="0.05" d="M29.4651 39.5624C29.4651 39.5624 31.337 38.4187 32.5959 38.5304C33.8547 38.642 34.0733 37.6379 34.0733 37.6379" fill="black"/>
<path id="Vector_58" d="M21.3671 68.1167C21.2113 67.9332 21.0649 67.7166 21.0195 67.4535C20.974 67.1905 21.0629 66.8741 21.2621 66.7768C21.4848 66.6685 21.7234 66.8614 21.9039 67.0619C22.0844 67.2624 22.2917 67.4848 22.5277 67.4425C22.4061 67.3031 22.3152 67.1261 22.2638 66.929C22.2124 66.7318 22.2022 66.5211 22.2342 66.3175C22.2446 66.2334 22.2728 66.1545 22.3158 66.0891C22.4394 65.9199 22.6641 65.9935 22.8118 66.1255C23.2798 66.5484 23.4135 67.3546 23.4168 68.0837C23.4643 67.8207 23.4242 67.5466 23.4255 67.2768C23.4269 67.0069 23.485 66.7083 23.6649 66.5628C23.7769 66.4866 23.9028 66.4493 24.0299 66.4545C24.2418 66.4444 24.4778 66.4714 24.6222 66.6677C24.8021 66.9113 24.7559 67.3199 24.5988 67.588C24.4417 67.8562 24.2044 68.0245 23.9858 68.2098C23.8103 68.3421 23.6606 68.5229 23.5479 68.7385C23.5345 68.7686 23.5235 68.8003 23.5151 68.8332H22.1881C21.8901 68.6423 21.614 68.4013 21.3671 68.1167V68.1167Z" fill="#B5838D"/>
<path id="Vector_59" d="M52.0217 60.5755C51.9183 60.4688 51.843 60.3248 51.8057 60.1627C51.7777 59.9986 51.8331 59.8023 51.9568 59.7397C52.0952 59.6729 52.2436 59.7939 52.3579 59.9174C52.4723 60.0409 52.5986 60.1804 52.7457 60.1542C52.6701 60.0675 52.6135 59.9575 52.5815 59.8349C52.5496 59.7123 52.5432 59.5813 52.5632 59.4547C52.5696 59.4023 52.5872 59.3532 52.614 59.3125C52.6909 59.2085 52.8306 59.2533 52.9229 59.3354C53.2157 59.5959 53.2972 60.0967 53.2993 60.5526C53.3287 60.3894 53.3039 60.2185 53.3046 60.051C53.3053 59.8835 53.3414 59.6974 53.4537 59.6078C53.5234 59.5602 53.6018 59.5369 53.681 59.5401C53.8147 59.5342 53.9591 59.5511 54.0493 59.6729C54.161 59.8243 54.1322 60.0781 54.0346 60.2447C53.937 60.4114 53.7893 60.5163 53.6536 60.6313C53.5445 60.7137 53.4515 60.8262 53.3815 60.9604C53.3733 60.9789 53.3666 60.9985 53.3614 61.0187H52.5318C52.3467 60.9007 52.1751 60.7516 52.0217 60.5755Z" fill="#B5838D"/>
</g>
<defs>
<linearGradient id="paint0_linear_884_1561" x1="28.2471" y1="52.0834" x2="28.2471" y2="30.2227" gradientUnits="userSpaceOnUse">
<stop stop-color="#808080" stop-opacity="0.25"/>
<stop offset="0.54" stop-color="#808080" stop-opacity="0.12"/>
<stop offset="1" stop-color="#808080" stop-opacity="0.1"/>
</linearGradient>
<clipPath id="clip0_884_1561">
<rect width="70.6786" height="70.6786" fill="white" transform="translate(0.225342 0.0714111)"/>
</clipPath>
</defs>
</svg>
