<?xml version="1.0" standalone="no"?>
<!DOCTYPE svg PUBLIC "-//W3C//DTD SVG 20010904//EN"
 "http://www.w3.org/TR/2001/REC-SVG-20010904/DTD/svg10.dtd">
<svg version="1.0" xmlns="http://www.w3.org/2000/svg"
 width="4688.000000pt" height="6059.000000pt" viewBox="0 0 4688.000000 6059.000000"
 preserveAspectRatio="xMidYMid meet">

<g transform="translate(0.000000,6059.000000) scale(0.100000,-0.100000)"
fill="#000000" stroke="none">
<path d="M25870 52882 c-32 -26 -38 -90 -10 -124 17 -23 29 -28 65 -28 59 0
89 36 82 95 -7 48 -36 75 -82 75 -18 0 -43 -8 -55 -18z"/>
<path d="M12800 46360 c-14 -14 -20 -33 -20 -65 0 -58 25 -85 79 -85 31 0 44
6 60 26 29 37 28 94 -2 122 -30 29 -89 30 -117 2z"/>
<path d="M36513 45515 c-27 -19 -37 -59 -23 -101 13 -39 35 -54 80 -54 69 0
104 86 59 144 -24 30 -80 36 -116 11z"/>
<path d="M23230 44445 c-90 -18 -161 -47 -219 -88 l-49 -36 -64 34 c-116 61
-184 70 -528 70 -242 0 -330 -4 -425 -18 -480 -72 -863 -223 -1191 -467 -119
-89 -317 -285 -400 -395 -192 -255 -294 -488 -345 -790 -17 -98 -22 -193 -29
-515 -5 -217 -16 -521 -24 -675 -8 -154 -21 -456 -27 -671 l-13 -391 -50 -12
c-119 -28 -184 -100 -193 -214 -14 -184 90 -644 195 -862 l39 -80 7 -335 c38
-1832 208 -3389 522 -4774 30 -132 54 -241 54 -242 0 -1 128 60 285 137 157
76 290 139 295 139 5 0 19 -27 31 -60 l21 -59 47 24 c103 52 376 281 483 405
66 76 170 248 257 425 165 334 201 483 201 831 0 377 -56 659 -168 842 -90
149 -204 260 -481 471 -291 222 -389 319 -483 478 -62 105 -95 182 -191 453
-109 311 -130 376 -172 552 -20 84 -74 304 -120 488 -106 426 -129 526 -165
735 -38 216 -58 393 -66 571 l-7 140 41 125 c23 68 86 273 141 455 99 325 167
531 230 688 174 434 429 822 752 1145 293 293 599 489 984 631 94 35 208 81
255 102 94 44 165 64 261 73 l64 7 133 -91 c460 -314 873 -662 1302 -1097 402
-409 709 -782 1037 -1262 l91 -132 21 -113 c59 -316 55 -402 -49 -1047 -48
-295 -61 -393 -95 -700 -42 -380 -136 -732 -367 -1380 -200 -562 -257 -689
-385 -857 -94 -124 -189 -203 -395 -328 -62 -38 -70 -69 -64 -245 18 -446 113
-953 227 -1208 70 -156 205 -317 389 -465 222 -179 519 -347 741 -421 129 -43
281 -75 286 -61 2 6 17 32 34 59 l31 48 48 -6 c64 -9 308 -69 452 -112 158
-47 356 -121 643 -241 132 -56 399 -165 594 -243 662 -265 996 -432 1371 -684
515 -346 916 -804 1119 -1278 57 -132 105 -278 132 -398 30 -137 36 -124 -103
-217 -173 -114 -427 -307 -561 -425 l-38 -33 19 -45 c11 -25 83 -198 160 -385
256 -621 516 -1228 774 -1810 129 -291 309 -687 315 -694 9 -11 590 170 900
280 606 215 1113 428 1597 670 80 40 146 77 146 81 0 5 -11 25 -23 46 -177
280 -1086 1938 -2269 4137 -805 1496 -2955 5521 -3043 5695 -33 67 4 13 166
-240 1575 -2466 3535 -5233 5644 -7970 555 -720 573 -742 569 -689 -1 9 -125
175 -276 370 -2326 3002 -4325 5824 -6102 8614 -196 308 -322 519 -421 705
-187 348 -1643 3092 -1813 3415 -18 35 57 -71 418 -585 620 -884 1722 -2446
3560 -5050 2553 -3616 3953 -5604 4725 -6705 131 -187 242 -344 246 -350 6 -5
13 -5 20 2 9 9 7 19 -6 40 -66 101 -2070 2946 -4760 6758 -4522 6406 -4372
6191 -4479 6427 -45 99 -83 156 -165 242 -164 172 -422 318 -780 440 -423 145
-834 217 -1236 215 -97 -1 -198 -6 -235 -14z m-216 -562 c28 -20 55 -40 60
-44 4 -4 -20 -6 -55 -5 -35 1 -69 -1 -74 -6 -6 -4 -31 -10 -55 -14 l-45 -7 55
57 c30 31 57 56 59 56 2 0 26 -17 55 -37z m139 -123 c66 -23 151 -72 393 -228
914 -587 1234 -840 1491 -1180 190 -252 361 -611 468 -982 18 -64 20 -67 -85
85 -449 646 -1019 1266 -1640 1785 -142 118 -507 394 -651 493 -46 31 -79 57
-72 57 6 0 49 -13 96 -30z m-3117 -3291 c71 -12 154 -38 154 -48 0 -3 74 -366
165 -806 91 -440 165 -802 165 -804 0 -2 -26 21 -57 51 -32 30 -103 88 -158
128 -232 170 -295 237 -376 399 -100 200 -198 575 -215 825 -6 85 -5 98 16
141 27 55 78 93 153 111 67 16 81 16 153 3z m6035 -17 c64 -33 111 -96 135
-180 32 -110 2 -310 -87 -572 -134 -398 -382 -681 -689 -785 l-66 -23 43 222
c23 121 89 455 145 740 l103 520 70 38 c93 50 146 66 226 67 54 1 77 -4 120
-27z m2063 -1578 c3 -8 2 -12 -4 -9 -6 3 -10 10 -10 16 0 14 7 11 14 -7z"/>
<path d="M21570 41449 c-142 -22 -274 -81 -389 -173 -67 -54 -198 -209 -181
-214 14 -5 1381 178 1405 188 44 18 -290 151 -465 185 -107 20 -285 27 -370
14z"/>
<path d="M24100 41454 c-171 -22 -352 -76 -510 -151 -78 -38 -91 -47 -75 -54
25 -10 1391 -192 1405 -187 19 6 -120 167 -192 223 -140 110 -292 163 -483
169 -60 3 -126 2 -145 0z"/>
<path d="M22885 41308 c-6 -21 -25 -329 -31 -523 -7 -202 7 -445 37 -626 37
-227 105 -455 294 -984 69 -194 77 -268 35 -349 -50 -96 -123 -107 -283 -41
-64 26 -99 35 -130 33 -57 -4 -52 -21 10 -30 27 -4 91 -24 143 -43 140 -55
204 -47 268 31 77 94 71 183 -36 484 -190 537 -258 792 -291 1092 -15 135 -13
536 4 763 7 104 11 193 9 197 -8 12 -24 9 -29 -4z"/>
<path d="M41230 40690 c-31 -31 -28 -102 6 -129 34 -27 74 -27 108 0 21 17 26
29 26 65 0 58 -25 84 -80 84 -27 0 -47 -7 -60 -20z"/>
<path d="M7224 40029 c-29 -32 -26 -105 5 -130 29 -24 82 -25 111 -1 32 26 38
90 10 125 -28 35 -96 39 -126 6z"/>
<path d="M24594 39849 c-138 -147 -305 -255 -432 -280 -185 -35 -414 48 -513
186 -18 25 -35 43 -37 40 -9 -8 51 -86 97 -127 104 -92 225 -139 361 -140 206
-2 351 77 512 279 53 68 61 94 12 42z"/>
<path d="M22235 39708 c-56 -67 -164 -154 -236 -193 -249 -131 -565 -71 -801
153 -32 30 -58 51 -58 46 0 -11 73 -102 102 -127 21 -18 21 -18 -57 -98 -43
-44 -75 -82 -72 -85 3 -4 27 6 52 20 45 27 105 96 105 123 0 8 22 -2 58 -26
31 -22 75 -47 97 -57 22 -10 42 -20 44 -21 5 -4 -64 -89 -118 -145 -50 -53
-49 -57 8 -29 48 25 105 88 120 133 l12 35 57 -13 c78 -19 222 -17 301 2 88
22 186 72 258 132 65 55 191 192 175 192 -6 0 -27 -19 -47 -42z"/>
<path d="M24540 39722 c0 -21 55 -75 95 -93 41 -19 120 -25 129 -11 3 5 -21
17 -52 26 -55 17 -88 33 -145 71 -15 9 -27 13 -27 7z"/>
<path d="M24395 39553 c30 -48 57 -72 102 -94 42 -20 61 -21 49 -1 -3 5 -37
35 -74 66 -77 62 -105 73 -77 29z"/>
<path d="M23794 38279 c-186 -144 -362 -241 -510 -280 -102 -27 -283 -30 -397
-5 -163 35 -342 111 -534 225 -106 63 -123 70 -123 48 0 -32 340 -211 505
-266 363 -121 634 -69 996 192 137 98 166 124 153 137 -8 8 -32 -6 -90 -51z"/>
<path d="M10060 35120 c-14 -14 -20 -33 -20 -65 0 -58 25 -85 78 -85 52 0 82
32 82 86 0 29 -6 47 -23 62 -30 29 -89 30 -117 2z"/>
<path d="M37358 34743 c-25 -28 -30 -61 -18 -99 28 -85 160 -63 160 26 0 33
-15 70 -34 82 -22 15 -92 8 -108 -9z"/>
<path d="M26116 33567 c-183 -790 -710 -1503 -1402 -1896 -576 -327 -1328
-440 -1969 -296 -151 34 -167 37 -115 20 73 -24 268 -63 407 -81 154 -20 491
-22 643 -5 355 41 653 128 965 281 788 387 1331 1109 1485 1973 12 66 20 121
18 123 -2 1 -16 -52 -32 -119z"/>
<path d="M41349 33529 c-34 -12 -53 -58 -45 -103 7 -39 20 -51 59 -61 101 -26
152 130 54 165 -34 12 -33 12 -68 -1z"/>
<path d="M20406 33470 c117 -400 391 -881 651 -1145 101 -102 201 -190 209
-183 2 3 -43 61 -102 129 -132 153 -311 385 -391 504 -131 195 -277 478 -343
665 -29 82 -45 102 -24 30z"/>
<path d="M19954 33346 c-166 -87 -373 -221 -360 -233 14 -14 459 252 481 287
9 15 11 15 -121 -54z"/>
<path d="M28590 32907 c3 -3 63 -38 134 -77 72 -39 185 -107 253 -150 68 -44
123 -75 123 -70 0 16 -137 123 -226 177 -47 29 -120 65 -162 81 -88 34 -129
47 -122 39z"/>
<path d="M5430 32850 c-13 -13 -20 -33 -20 -60 0 -77 75 -116 134 -69 21 16
26 29 26 63 0 62 -21 86 -76 86 -31 0 -50 -6 -64 -20z"/>
<path d="M29570 32348 c-401 -590 -754 -1084 -1265 -1773 -447 -603 -768
-1046 -762 -1052 14 -13 552 665 804 1014 207 288 515 728 729 1043 238 349
566 851 561 856 -2 3 -33 -37 -67 -88z"/>
<path d="M16676 31341 c5 -4 90 -69 189 -144 691 -520 1288 -1098 2049 -1984
44 -51 82 -91 84 -88 10 10 -195 280 -378 500 -369 441 -921 962 -1463 1379
-189 144 -468 345 -481 346 -6 0 -6 -3 0 -9z"/>
<path d="M39530 30300 c-31 -31 -28 -102 6 -129 59 -47 134 -8 134 69 0 53
-26 80 -80 80 -27 0 -47 -7 -60 -20z"/>
<path d="M7795 30015 c-52 -51 -18 -145 51 -145 48 0 70 14 83 52 14 39 -1 93
-29 108 -33 18 -79 11 -105 -15z"/>
<path d="M26830 28018 c-36 -49 -117 -139 -180 -201 -217 -212 -466 -351 -753
-423 -151 -38 -385 -44 -556 -15 -285 49 -537 169 -758 360 -96 83 -113 80
-20 -4 283 -257 612 -394 987 -412 479 -22 942 193 1222 567 54 72 134 208
127 214 -2 2 -33 -37 -69 -86z"/>
<path d="M27520 27652 l0 -212 85 0 85 0 -21 53 c-12 28 -48 122 -81 207 -33
85 -62 157 -64 159 -2 2 -4 -91 -4 -207z"/>
<path d="M19700 27646 c62 -68 281 -256 415 -356 173 -130 281 -198 450 -280
264 -130 444 -178 690 -187 399 -13 703 104 1085 415 109 89 455 430 446 439
-3 3 -80 -62 -172 -143 -220 -197 -322 -278 -482 -384 -286 -191 -522 -275
-802 -287 -459 -20 -995 230 -1545 721 -100 89 -130 111 -85 62z"/>
<path d="M19881 26339 c-3 -54 146 -503 156 -472 9 27 -81 325 -132 437 -13
28 -24 44 -24 35z"/>
<path d="M25197 23630 c9 -123 53 -303 89 -360 14 -23 15 -20 9 53 -7 95 -45
249 -79 320 l-24 52 5 -65z"/>
<path d="M26975 23610 c8 -107 58 -346 100 -477 20 -62 38 -113 40 -113 6 0
-1 65 -21 195 -19 120 -64 304 -99 400 l-25 70 5 -75z"/>
<path d="M23984 23530 c5 -90 38 -234 77 -335 28 -74 35 -54 19 61 -14 108
-52 259 -79 315 l-21 44 4 -85z"/>
<path d="M22193 23300 c5 -113 41 -275 59 -263 26 15 -15 308 -48 349 -14 17
-15 9 -11 -86z"/>
<path d="M20807 23191 c-32 -102 -16 -261 35 -353 12 -21 23 -36 26 -34 2 2
-4 51 -12 108 -9 56 -20 155 -24 218 l-8 115 -17 -54z"/>
<path d="M32155 18091 c-127 -23 -232 -53 -343 -97 -84 -34 -224 -105 -219
-111 2 -1 48 15 103 37 187 73 443 142 650 174 l89 14 -90 0 c-49 0 -135 -8
-190 -17z"/>
<path d="M14131 17900 c-150 -11 -408 -43 -392 -48 7 -2 85 1 174 7 468 31
957 19 1392 -35 28 -4 48 -4 45 -1 -7 8 -318 54 -450 67 -151 15 -624 21 -769
10z"/>
<path d="M13683 17843 c9 -2 23 -2 30 0 6 3 -1 5 -18 5 -16 0 -22 -2 -12 -5z"/>
<path d="M23890 17354 c696 -407 1159 -756 1644 -1240 152 -151 273 -285 551
-609 241 -282 451 -505 580 -619 56 -49 42 -32 -66 84 -130 141 -296 337 -559
660 -583 718 -1250 1270 -2004 1660 -166 86 -240 119 -146 64z"/>
<path d="M21040 17207 c0 -3 88 -212 196 -464 281 -655 389 -929 675 -1716
140 -384 255 -692 257 -685 4 18 -104 386 -189 643 -38 117 -69 214 -69 217 0
3 30 8 68 11 86 7 236 47 360 94 78 31 91 39 69 41 -39 5 -204 -31 -361 -79
-72 -21 -135 -39 -142 -39 -6 0 -16 18 -23 41 -18 59 -215 552 -314 784 -106
247 -226 517 -392 875 -122 264 -135 291 -135 277z"/>
<path d="M28361 17194 c0 -11 3 -14 6 -6 3 7 2 16 -1 19 -3 4 -6 -2 -5 -13z"/>
<path d="M28377 17085 c7 -122 -10 -290 -62 -600 -24 -144 -51 -339 -60 -435
-40 -449 -88 -886 -166 -1504 -22 -175 -38 -320 -36 -322 5 -6 63 308 101 551
64 400 110 792 141 1205 9 113 32 318 52 455 28 200 37 290 40 450 2 110 0
220 -6 245 -8 36 -8 28 -4 -45z"/>
<path d="M39915 16645 c51 -132 59 -179 59 -350 1 -148 -2 -181 -22 -255 -40
-147 -110 -279 -211 -400 -43 -51 -44 -53 -13 -31 90 63 207 252 253 406 30
99 38 332 15 430 -18 78 -52 170 -74 200 l-14 20 7 -20z"/>
<path d="M7321 16503 c-36 -133 -41 -173 -47 -338 -7 -172 7 -308 46 -459 19
-72 87 -249 75 -196 -23 109 -56 306 -66 405 -13 129 -7 491 10 600 6 33 8 61
7 63 -2 1 -13 -32 -25 -75z"/>
<path d="M27935 16555 c80 -66 227 -85 320 -42 l50 24 -105 0 c-71 1 -134 8
-193 22 -49 11 -92 21 -95 21 -4 -1 7 -12 23 -25z"/>
<path d="M27785 15812 l-50 -17 130 -7 c72 -3 173 -9 225 -13 107 -7 111 2 13
34 -80 27 -243 28 -318 3z"/>
<path d="M22580 14904 c-58 -19 -186 -59 -285 -89 l-180 -54 75 0 c118 -1 242
30 375 94 57 28 144 86 125 84 -3 -1 -52 -16 -110 -35z"/>
<path d="M8415 14130 c11 -12 63 -58 115 -102 530 -445 1235 -735 2005 -824
169 -20 652 -24 765 -6 55 8 29 10 -160 11 -1004 6 -1919 307 -2655 875 -49
38 -81 59 -70 46z"/>
<path d="M11398 13213 c12 -2 30 -2 40 0 9 3 -1 5 -23 4 -22 0 -30 -2 -17 -4z"/>
</g>
</svg>
