<?xml version="1.0" encoding="utf-8"?>
<!-- Generator: Adobe Illustrator 24.2.0, SVG Export Plug-In . SVG Version: 6.00 Build 0)  -->
<svg version="1.1" id="Layer_1" xmlns="http://www.w3.org/2000/svg" xmlns:xlink="http://www.w3.org/1999/xlink" x="0px" y="0px"
	 viewBox="0 0 1125 2436" style="enable-background:new 0 0 1125 2436;" xml:space="preserve">
<style type="text/css">
	.st0{fill:#DAE9F8;}
	.st1{fill:#FADCD8;}
	.st2{fill:#242A56;stroke:#242A56;stroke-width:0.2501;stroke-miterlimit:10;}
	.st3{fill:#F5B2A2;stroke:#242A56;stroke-width:1.0005;stroke-linejoin:round;stroke-miterlimit:10;}
	.st4{fill:#F5B2A2;}
	.st5{fill:#242A56;}
	.st6{stroke:#000000;stroke-width:0.1969;stroke-miterlimit:10;}
	.st7{fill:#F1937F;stroke:#F1937F;stroke-width:1.0005;stroke-linejoin:round;stroke-miterlimit:10;}
	.st8{fill:#FDF6BF;}
	.st9{fill:#EFAB9A;}
	.st10{fill:#FFFFFF;}
</style>
<g>
	<g>
		<path class="st0" d="M447.86,1566.3c-113.26-163.08-226.53-326.15-339.79-489.23c-25.53-36.75-52.1-76.6-53.03-121.92
			c-0.61-29.36,9.81-57.76,22.2-84.16c63.45-135.21,185.51-239.21,325.49-277.32c46.26-12.6,95.34-18.24,141.88-6.79
			c79.18,19.48,139.66,84.67,191.41,149.96c128.81,162.5,234.08,345.13,311.18,539.84c11.09,28.01,21.74,56.95,22.74,87.22
			c1,30.4-7.87,60.33-19.93,88.04c-20.9,48.01-51.75,91.3-89.84,126.07c-62.62,57.16-142.03,89.63-219.69,121.02
			c-23.37,9.45-47.45,19.04-72.52,18.82c-25.07-0.22-51.72-12.56-62.05-36.31"/>
	</g>
	<g>
		<path class="st1" d="M1005.27,1650.7c-83.19-114.08-152.16-189.8-229.63-307.83c-77.47-118.04-170.52-230.33-293.42-299.83
			c-73.69-41.68-168.23-65.7-241.27-22.9c-72.27,42.35-97.52,133.53-109.89,216.38c-20.56,137.74-20.02,289.43,61.04,402.68
			c32.19,44.96,75.36,81.09,121.51,111.55c91.44,60.37,197.78,105.61,307.35,104.57C978.88,1851.92,1005.27,1650.7,1005.27,1650.7"
			/>
	</g>
	<g>
		<g id="exercise">
			<g>
				<g>
					<g>
						<path class="st2" d="M614.47,889.26c0,0,164.52,311.06,189.26,352.28c0,0-362.19,197.3-322.89-333.34L614.47,889.26z"/>
						<path class="st3" d="M621,1110.89c-8.57-1.43-15.67-4.95-22.67-10.16c-3.64-2.71-7.18-5.71-9.62-9.53
							c-2.39-3.74-3.61-8.1-4.55-12.44c-1.54-7.08-2.41-14.31-2.6-21.56c-0.02-0.84-0.02-1.74,0.44-2.45c0.42-0.64,1.13-1,1.8-1.36
							c11.26-6.07,13.84-16.49,17.86-27.54c4.33-11.89,8.31-23.83,9.36-36.53c1.02-12.28,5.01-26,4.19-38.26
							c-0.6-9.07-4.05-17.76-8.28-25.89c-5.78-11.14-29.97-33.65-53.9-40.71l-4.51,0.67c-17.22,3.39-30.84,11.93-42.47,24.57
							c-11.63,12.64-18.82,28.95-20.17,45.75c-1.14,14.16,1.76,28.34,5.49,42.08c1.82,6.72,2.91,13.86,5.36,20.38
							c2.21,5.88,3.82,12.58,7.62,17.76c6.09,8.28,17.13,12.22,22.12,21.2c2.31,4.17,3.06,9.01,3.44,13.76
							c0.56,6.96,0.37,14.19-2.37,20.61c-2.68,6.3-6.78,13.72-9.53,16.2c-4.08,3.67-7.28,7.14-12.64,9.44
							c0,0,14.83,67.78,64.3,58.72C619.17,1166.51,621,1110.89,621,1110.89z"/>
						<g>
							<g>
								<path class="st4" d="M615.77,966.95c2.7-1.64,5.87-3.34,8.92-2.44c2.48,0.74,4.14,3.12,4.64,5.56
									c0.49,2.45,0.02,4.97-0.56,7.4c-1.3,5.44-3.17,10.84-6.42,15.47c-3.25,4.63-8,8.46-13.63,9.87"/>
								<path class="st5" d="M615.74,966.91c1-0.71,2.03-1.39,3.14-1.95c1.11-0.55,2.31-1.01,3.61-1.15
									c1.29-0.12,2.67,0.13,3.84,0.8c1.17,0.67,2.11,1.68,2.77,2.83c0.68,1.14,1.06,2.47,1.17,3.77c0.12,1.3,0.02,2.6-0.16,3.85
									c-0.41,2.49-1.02,4.86-1.73,7.24c-0.77,2.36-1.69,4.68-2.84,6.9c-1.15,2.21-2.5,4.35-4.2,6.2c-1.67,1.87-3.59,3.5-5.71,4.82
									c-2.14,1.27-4.48,2.23-6.9,2.65l-0.02-0.1c4.74-1.21,8.92-4.15,12.04-7.87c3.15-3.74,5.24-8.26,6.68-12.9
									c0.72-2.33,1.36-4.69,1.78-7.09c0.4-2.38,0.4-4.95-0.79-7.1c-0.57-1.06-1.39-2.01-2.43-2.64c-1.03-0.63-2.26-0.9-3.47-0.83
									c-2.45,0.16-4.65,1.41-6.72,2.65L615.74,966.91z"/>
							</g>
							<g>
								<path class="st4" d="M484.43,965.58c-2.02-0.88-4.22-1.57-6.43-1.41c-2.22,0.16-4.46,1.33-5.33,3.29
									c-0.51,1.14-0.52,2.43-0.43,3.67c0.44,6.66,2.89,16.95,6.68,22.54c3.8,5.59,8.93,6.58,13.67,11.47"/>
								<path class="st5" d="M484.41,965.62c-2.29-0.79-4.73-1.42-7.01-0.91c-2.25,0.42-4.3,2.04-4.42,4.22
									c-0.12,1.08,0.04,2.27,0.15,3.47c0.14,1.19,0.3,2.39,0.52,3.57c0.42,2.37,0.98,4.72,1.66,7.03c1.31,4.6,2.99,9.25,6.19,12.7
									c1.59,1.74,3.59,3.11,5.59,4.51c1.98,1.44,3.96,2.98,5.52,4.88l-0.07,0.07c-1.7-1.75-3.69-3.19-5.74-4.51
									c-2.04-1.33-4.12-2.66-5.85-4.41c-1.75-1.73-3.03-3.87-4.08-6.08c-1.03-2.22-1.84-4.54-2.52-6.89
									c-0.68-2.35-1.21-4.74-1.61-7.16c-0.21-1.21-0.36-2.42-0.49-3.64c-0.1-1.22-0.25-2.44-0.06-3.67
									c0.15-1.23,0.8-2.39,1.77-3.17c0.95-0.79,2.13-1.27,3.35-1.47c2.46-0.38,4.91,0.37,7.13,1.35L484.41,965.62z"/>
							</g>
						</g>
					</g>
					<g>
						<g>
							<g>
								<path class="st5" d="M610.61,886.74c14.72,20.98,29.46,41.94,44.22,62.89c14.73,20.91,29.47,41.81,44.22,62.71
									c14.68,20.8,29.36,41.59,44.04,62.39c14.75,20.89,29.49,41.79,44.22,62.7c14.69,20.85,29.38,41.72,44.04,62.6
									c1.84,2.62,3.68,5.25,5.53,7.87c0.28,0.39,0.93,0.02,0.65-0.38c-14.72-20.98-29.46-41.94-44.22-62.89
									c-14.73-20.91-29.47-41.81-44.22-62.71c-14.68-20.8-29.36-41.59-44.04-62.39c-14.75-20.89-29.49-41.79-44.22-62.7
									c-14.69-20.85-29.38-41.72-44.04-62.6c-1.84-2.62-3.68-5.25-5.53-7.87C610.99,885.97,610.34,886.34,610.61,886.74
									L610.61,886.74z"/>
							</g>
						</g>
						<g>
							<g>
								<path class="st5" d="M550.86,884.69c22.08,14.5,41.44,33.08,56.84,54.54c4.26,5.94,8.21,12.09,11.84,18.43
									c0.24,0.42,0.89,0.04,0.65-0.38c-13.19-23-30.62-43.52-51.2-60.25c-5.69-4.63-11.63-8.97-17.76-12.99
									C550.83,883.77,550.46,884.42,550.86,884.69L550.86,884.69z"/>
							</g>
						</g>
						<g>
							<g>
								<path class="st5" d="M619.77,910.54c11.85,21.08,24.12,41.93,36.76,62.56c12.65,20.64,25.66,41.07,38.98,61.28
									c13.41,20.34,27.13,40.46,41.12,60.4c13.92,19.83,28.12,39.48,42.55,58.95c14.32,19.33,28.87,38.49,43.62,57.5
									c1.83,2.35,3.66,4.7,5.49,7.05c0.3,0.38,0.82-0.15,0.53-0.53c-14.92-19.13-29.65-38.42-44.14-57.88
									c-14.47-19.43-28.72-39.02-42.7-58.81c-14-19.81-27.74-39.82-41.16-60.03c-13.35-20.09-26.39-40.39-39.08-60.91
									c-12.68-20.5-25.01-41.23-36.92-62.19c-1.47-2.59-2.94-5.18-4.4-7.78C620.18,909.74,619.53,910.12,619.77,910.54
									L619.77,910.54z"/>
							</g>
						</g>
					</g>
					<g>
						<g>
							<g>
								<path d="M566.64,980.83c1.29,2.08,3.21,3.72,5.4,4.74c2.18,1.04,4.65,1.4,7.03,1.11c2.39-0.29,4.61-1.28,6.53-2.69
									c1.96-1.39,3.61-3.21,5.37-4.92l0.06,0.05c-1.41,2.01-2.98,3.94-4.94,5.51c-1.96,1.58-4.46,2.49-6.95,2.69
									c-2.5,0.22-5.05-0.24-7.27-1.39c-2.21-1.14-4.09-2.91-5.29-5.06L566.64,980.83z"/>
							</g>
							<g>
								<path d="M585.29,986.11c0.78,0.46,1.41,0.99,2.05,1.52c0.63,0.55,1.26,1.08,1.84,1.78c-0.9-0.15-1.68-0.6-2.36-1.16
									C586.16,987.67,585.58,986.97,585.29,986.11z"/>
							</g>
							<g>
								<path d="M588.95,982.6c0.87,0.65,1.68,1.17,2.58,1.57c0.89,0.41,1.82,0.68,2.88,0.94c-1.03,0.39-2.21,0.24-3.21-0.21
									C590.2,984.44,589.31,983.64,588.95,982.6z"/>
							</g>
						</g>
						<g>
							<g>
								<path d="M534.78,982.18c-1.75,2.03-3.53,4.09-5.81,5.61c-2.28,1.51-5,2.3-7.74,2.39c-2.73,0.1-5.53-0.47-7.95-1.8
									c-2.4-1.33-4.5-3.21-5.93-5.52l0.06-0.05c1.78,2.01,3.87,3.7,6.23,4.85c2.34,1.17,4.93,1.87,7.57,1.87
									c2.63-0.01,5.28-0.69,7.53-2.09c2.28-1.38,4.14-3.36,5.97-5.32L534.78,982.18z"/>
							</g>
							<g>
								<path d="M510.51,986.49c-0.22,0.96-0.77,1.77-1.43,2.46c-0.68,0.67-1.48,1.23-2.43,1.48c0.6-0.77,1.24-1.39,1.86-2.04
									C509.15,987.75,509.76,987.11,510.51,986.49z"/>
							</g>
							<g>
								<path d="M515.69,989.13c-0.08,1.13-0.62,2.19-1.34,3.04c-0.74,0.84-1.71,1.53-2.81,1.78c0.79-0.8,1.53-1.51,2.2-2.3
									C514.42,990.86,515.02,990.03,515.69,989.13z"/>
							</g>
						</g>
						<path class="st6" d="M564.23,945.99c0,0,22.26-13.19,33.8,4.53L564.23,945.99z"/>
						<path class="st6" d="M537.85,945.99c0,0-22.26-13.19-33.8,4.53L537.85,945.99z"/>
					</g>
					<g>
						<g>
							<path d="M549.33,944.85c-0.77,10-1.46,20.08,0.61,29.98c0.99,4.74,2.48,9.37,4.09,13.93c0.83,2.36,1.69,4.72,2.54,7.08
								c0.82,2.29,1.92,4.87,1.29,7.33c-0.3,1.19-1.04,2.37-2.15,2.95c-1.2,0.62-2.51,0.32-3.7-0.15c-1.78-0.7-3.41-1.72-5.39-1.45
								c-0.37,0.05-0.22,0.62,0.16,0.57c3.51-0.48,7,4,10.23,0.78c3.28-3.27,0.78-8.39-0.51-11.96c-3.61-9.98-6.96-19.88-7.32-30.58
								c-0.21-6.17,0.27-12.33,0.74-18.48C549.95,944.47,549.36,944.47,549.33,944.85L549.33,944.85z"/>
						</g>
					</g>
					<g>
						<g>
							<path d="M533.75,1017.97c6.18,3.92,13.22,7.61,20.75,7.46c7.29-0.15,13.15-4.48,18.64-8.81c0.3-0.24-0.12-0.65-0.42-0.42
								c-5.49,4.33-11.35,8.64-18.66,8.65c-7.27,0-14.03-3.59-20.02-7.38C533.73,1017.26,533.43,1017.77,533.75,1017.97
								L533.75,1017.97z"/>
						</g>
					</g>
				</g>
				<g>
					<path class="st7" d="M597.07,1013.45c0-6.07-4.92-10.99-10.99-10.99c-6.07,0-10.99,4.92-10.99,10.99
						c0,6.07,4.92,10.99,10.99,10.99C592.15,1024.44,597.07,1019.52,597.07,1013.45z"/>
					<path class="st7" d="M532.22,1013.45c0-6.07-4.92-10.99-10.99-10.99c-6.07,0-10.99,4.92-10.99,10.99
						c0,6.07,4.92,10.99,10.99,10.99C527.3,1024.44,532.22,1019.52,532.22,1013.45z"/>
				</g>
				<g>
					<g>
						<g>
							<path class="st5" d="M617.38,910.82c-0.34-7.34,0.79-15.13-2.91-21.57c-3.61-6.28-10.48-10.18-17.36-12.98
								c-10.69-4.35-22.24-6.81-33.86-6.9c-3.62-0.03-7.47,0.24-10.43,2.23c-0.63,0.42-1.18,0.96-1.66,1.56
								c-1.82-1.83-4.98-2.54-7.77-2.78c-13.45-1.18-27.41,1.07-39.07,7.6c-11.66,6.53-20.79,17.55-23.49,30.22
								c-1.36,6.39-1.11,12.99-0.67,19.5c0.81,12.24-0.71,23.59,1.33,35.7l4.19,1.11l-0.2-1.11c4.91-14.28,8.08-30.33,16.07-43.27
								c7.99-12.94,19.35-24.48,33.87-30.17c5.66-2.22,12.24-4.03,15.54-8.76c0.57,0.57,1.22,1.07,1.89,1.53
								c14.43,9.86,30.08,18.3,42.79,30.14c12.71,11.84,21.01,35.61,19.39,52.53l2.64-1.1C620.32,943.58,618,924.35,617.38,910.82z"
								/>
							<g>
								<path class="st5" d="M617.75,910.82c-0.25-6.05,0.49-12.36-1.4-18.21c-1.71-5.28-5.71-9.3-10.3-12.24
									c-5.09-3.27-10.92-5.48-16.68-7.26c-6.38-1.97-12.97-3.27-19.63-3.82c-3.53-0.29-7.18-0.52-10.71-0.12
									c-3.06,0.35-6.1,1.3-8.15,3.71c0.18,0,0.35,0,0.53,0c-3.08-2.93-7.96-2.99-11.95-3.14c-4.76-0.18-9.53,0.08-14.24,0.8
									c-9.26,1.42-18.33,4.72-25.97,10.19c-6.73,4.82-12.4,11.25-15.9,18.79c-4.15,8.93-4.19,18.52-3.58,28.17
									c0.76,11.93-0.61,23.95,1.34,35.8c0.02,0.12,0.15,0.23,0.26,0.26c1.4,0.37,2.79,0.74,4.19,1.11
									c0.3,0.08,0.51-0.19,0.46-0.46c-0.07-0.4-0.19-0.8-0.13-1.18c0.15-0.89,0.64-1.86,0.93-2.73c0.59-1.83,1.16-3.66,1.71-5.5
									c1.15-3.79,2.26-7.59,3.44-11.37c2.36-7.52,5.04-15.02,9.01-21.86c7.21-12.42,17.72-23.54,30.77-29.82
									c6.48-3.12,15.05-4.38,19.51-10.57c-0.2,0.03-0.39,0.05-0.59,0.08c1.36,1.3,2.99,2.29,4.55,3.33
									c1.67,1.11,3.35,2.21,5.03,3.29c3.43,2.22,6.89,4.4,10.33,6.62c6.99,4.51,13.91,9.16,20.31,14.49
									c5.33,4.45,9.84,9.33,13.4,15.31c3.54,5.94,6.2,12.41,8.02,19.07c1.93,7.06,3,14.5,2.32,21.82
									c-0.02,0.22,0.26,0.45,0.47,0.36c0.88-0.37,1.76-0.73,2.64-1.1c0.17-0.07,0.25-0.18,0.28-0.36
									c1.23-9.76,1.44-19.61,1.09-29.43C618.84,926.84,618.13,918.84,617.75,910.82c-0.02-0.48-0.77-0.48-0.75,0
									c0.37,8.02,1.08,16.01,1.37,24.04c0.35,9.82,0.15,19.67-1.09,29.43c0.09-0.12,0.18-0.24,0.28-0.36
									c-0.88,0.37-1.76,0.73-2.64,1.1c0.16,0.12,0.32,0.24,0.47,0.36c1.21-13.16-2.73-27.04-8.92-38.57
									c-3.11-5.79-7-11.01-11.88-15.41c-6.11-5.51-12.85-10.28-19.71-14.8c-3.91-2.58-7.87-5.08-11.81-7.6
									c-2-1.28-4-2.57-5.98-3.88c-1.99-1.31-4.15-2.55-5.88-4.2c-0.19-0.18-0.45-0.12-0.59,0.08c-4.2,5.83-12.37,7.1-18.52,9.96
									c-6.54,3.03-12.46,7.31-17.64,12.31c-5.11,4.95-9.53,10.61-13.25,16.66c-4.1,6.66-6.9,14.02-9.29,21.43
									c-1.37,4.25-2.62,8.54-3.91,12.82c-0.64,2.11-1.28,4.22-1.97,6.31c-0.28,0.88-0.89,1.98-0.95,2.9
									c-0.02,0.39,0.15,0.84,0.21,1.21c0.15-0.15,0.31-0.31,0.46-0.46c-1.01-0.27-2.02-0.54-3.03-0.81
									c-0.24-0.06-0.53-0.1-0.75-0.2c-0.37-0.16-0.21-0.02-0.3-0.22c-0.15-0.32-0.14-1.57-0.19-1.99
									c-0.1-0.78-0.19-1.56-0.27-2.35c-0.54-5.41-0.51-10.86-0.46-16.29c0.05-5.44-0.01-10.84-0.34-16.27
									c-0.33-5.51-0.46-11.1,0.54-16.56c3.39-18.56,19.49-31.87,37.03-36.62c5.43-1.47,11.05-2.24,16.68-2.38
									c2.84-0.07,5.68,0.01,8.5,0.26c2.7,0.23,5.68,0.76,7.72,2.69c0.14,0.13,0.4,0.16,0.53,0c3.92-4.63,11.51-3.85,16.93-3.48
									c6.37,0.43,12.68,1.55,18.82,3.3c5.65,1.61,11.31,3.65,16.44,6.54c4.86,2.73,9.47,6.55,11.58,11.85
									c2.42,6.06,1.53,12.83,1.8,19.19C617.02,911.31,617.77,911.31,617.75,910.82z"/>
							</g>
						</g>
					</g>
				</g>
				<g>
					<path class="st4" d="M410.1,1189.33c0,0-28.5,84.43-44.64,113.91c-5.9,10.77-12.65,21.37-22.31,28.96
						c-24.03,18.88-60.34,15.21-85.73-1.82c-9.94-6.67-19.28-16.41-19.73-28.36c-0.13-3.39,0.48-6.77,0.51-10.17
						c0.18-16.44-15.17-31.4-31.6-30.78c-1.61,0.06-3.33,0.29-4.55,1.35c-3.51,3.05,0.38,8.86,4.69,10.61
						c4.31,1.75,9.77,2.64,11.65,6.9c0.73,1.65,0.73,3.53,0.39,5.3c-1.78,9.39-14.18,14.86-22.31,9.85
						c-8.13-5.01-8.82-18.55-1.23-24.36c2.32-1.78,5.61-4.34,4.02-6.8c-1.07-1.66-3.52-1.45-5.45-1.03
						c-8.18,1.8-16.8,4.26-22.33,10.56c-5.53,6.3-6.04,17.62,1.06,22.08c2.14,1.35,4.71,1.94,6.82,3.33
						c2.11,1.4,3.75,4.16,2.63,6.43c-12.97-1-25.94-2-38.9-3c-4.48-0.35-11,1.59-9.73,5.9c0.58,1.98,2.69,3.01,4.59,3.81
						c10.85,4.58,21.7,9.17,32.56,13.75c-9.54,0.27-24.4-3.87-28.61,0.8c-4.17,4.65,8.27,9.1,14.43,10.14
						c6.16,1.04,12.92,1.24,17.74,5.22c-9.09,0.82-24.77-3.27-23.78,0.86c-2.65,5.28,1.85,9.38,6.63,11.28
						c13.22,5.24,26.75,8.96,39.57,15.11c7.38,3.54,22.49,10.12,27.84,13.42c54,33.28,94.55,44.82,140.73,28.98
						c34.33-11.78,41.07-27.14,59.03-57.48c18.49-31.24,22.38-58.26,33.24-92.9c0,0-0.2-8.22-1.71-10.6
						C454.1,1248.2,410.1,1189.33,410.1,1189.33z"/>
					<path class="st4" d="M705.61,1185.25c-16.25,12.53-48.23,67.75-48.23,67.75c-0.48,1.2,1.02,8.65,1.49,9.85
						c13.18,33.83,25.31,66,45.87,95.92c19.97,29.06,27.72,43.93,62.77,53.37c47.14,12.7,86.82-1.56,138.45-38.4
						c5.12-3.66,19.75-11.24,26.87-15.27c12.38-7,25.63-11.62,38.46-17.74c4.64-2.21,8.85-6.61,5.85-11.7
						c0.71-4.18-14.66,0.95-23.79,0.75c4.54-4.29,11.27-4.94,17.35-6.4c6.07-1.46,18.19-6.74,13.71-11.09
						c-4.51-4.38-19.06,0.75-28.59,1.13c10.52-5.3,21.04-10.61,31.55-15.91c1.84-0.93,3.88-2.1,4.32-4.11
						c0.97-4.39-5.66-5.88-10.11-5.23c-12.87,1.87-25.74,3.74-38.61,5.62c-1.27-2.2,0.18-5.06,2.19-6.6
						c2.02-1.54,4.53-2.29,6.58-3.79c6.77-4.93,5.51-16.19-0.44-22.1c-5.94-5.91-14.71-7.78-23-9.03c-1.95-0.29-4.41-0.33-5.37,1.39
						c-1.42,2.56,2.03,4.9,4.47,6.51c7.96,5.28,8.19,18.83,0.42,24.38c-7.78,5.55-20.52,0.92-22.92-8.32
						c-0.45-1.74-0.58-3.62,0.04-5.31c1.59-4.37,6.98-5.63,11.16-7.67c4.18-2.04,7.67-8.1,3.96-10.9c-1.29-0.97-3.02-1.09-4.63-1.04
						c-16.44,0.5-30.74,16.45-29.45,32.85c0.27,3.39,1.1,6.72,1.2,10.11c0.35,11.96-8.31,22.31-17.77,29.63
						c-24.17,18.7-60.15,24.81-85.41,7.6c-10.15-6.92-17.6-17.04-24.21-27.39C741.71,1275.76,705.61,1185.25,705.61,1185.25z"/>
				</g>
				<g>
					<g>
						<path class="st8" d="M505.76,1113.86c-24.13,11.47-26.05,13.47-50.18,24.93c-9.34,4.44-26.36,10.84-33.88,17.94
							c-12.33,11.64-25.91,29.9-29.9,41.85l63.78,57.8L477.5,1366l179.8-11.73c2.68-30.77,3.66-61.68,2.93-92.55
							c-0.08-3.38-0.16-6.87,1.11-10c0.84-2.06,2.22-3.84,3.58-5.59c18.29-23.5,37.1-47.49,62.29-63.38
							c-2.35-15.33-12.01-28.83-24.08-38.57c-12.07-9.74-26.46-16.14-40.92-21.75c-16.33-6.33-22.62-10.44-39.8-13.88
							c-1.11-0.22-9.54,20.28-11.37,24.25c-11.96,25.91-29.9,31.89-45.84,31.89c-23.17,0-28.71-0.4-43.85-17.94
							C515.65,1140.16,505.76,1113.86,505.76,1113.86z"/>
					</g>
					<g>
						<g>
							<path class="st5" d="M400.08,1183.58c10.71,7.31,20.85,15.47,30.31,24.37c4.74,4.44,9.36,9.02,13.65,13.9
								c4.26,4.9,8.36,9.95,12.04,15.3l-0.1,0.07c-4.23-4.92-8.44-9.83-12.84-14.57c-4.38-4.75-8.79-9.49-13.42-14.01
								c-9.27-9.02-19.21-17.38-29.71-24.97L400.08,1183.58z"/>
						</g>
						<g>
							<path class="st5" d="M711.35,1157.59c-7.77,12.1-15.82,24.04-24.13,35.79c-4.14,5.88-8.29,11.76-12.67,17.48
								c-4.4,5.69-8.84,11.36-13.54,16.81l-0.1-0.07c4.15-5.88,8.45-11.64,12.67-17.46l12.85-17.32
								c8.48-11.61,16.75-23.38,24.81-35.29L711.35,1157.59z"/>
						</g>
						<g>
							<path class="st5" d="M472.21,1271.81c5.35,4.89,11,9.51,17.27,13.12c3.13,1.81,6.4,3.37,9.8,4.53
								c3.4,1.17,6.96,1.89,10.54,1.99c3.57,0.09,7.15-0.38,10.55-1.47c0.86-0.24,1.68-0.6,2.52-0.9c0.82-0.36,1.64-0.7,2.44-1.1
								c1.6-0.79,3.18-1.63,4.69-2.62c6.12-3.78,11.4-8.82,16.81-13.65l0.08,0.09c-4.92,5.33-10.1,10.52-16.24,14.58
								c-3.08,1.99-6.39,3.7-9.95,4.73c-3.54,1.05-7.27,1.46-10.94,1.29c-3.68-0.16-7.31-0.97-10.75-2.21
								c-3.45-1.24-6.73-2.87-9.86-4.75c-6.24-3.78-11.81-8.54-17.05-13.55L472.21,1271.81z"/>
						</g>
						<g>
							<path class="st5" d="M588.12,1268.72c3.91,4.01,8.79,7,14.05,8.8c5.25,1.82,10.91,2.44,16.39,1.7
								c5.49-0.75,10.69-2.92,15.3-5.93c4.64-2.99,8.59-7.03,11.62-11.73l0.11,0.06c-2.45,5.08-6.4,9.41-11.06,12.67
								c-4.68,3.25-10.21,5.25-15.85,5.88c-11.32,1.3-23.03-3.09-30.65-11.37L588.12,1268.72z"/>
						</g>
						<g>
							<path class="st5" d="M489.55,1131.57c2.17,6.24,5.12,12.18,8.72,17.66c1.81,2.74,3.85,5.31,5.88,7.89
								c2.01,2.6,4.19,5.04,6.37,7.55l-0.08,0.09c-2.66-2-5.01-4.37-7.22-6.86c-2.19-2.52-4.04-5.3-5.76-8.14
								c-3.47-5.67-6.18-11.79-8.02-18.14L489.55,1131.57z"/>
						</g>
						<g>
							<path class="st5" d="M542.14,1182.21c9.2,2.55,18.92,3.02,28.31,1.56c9.39-1.44,18.49-4.81,26.44-9.97
								c7.95-5.17,14.65-12.13,19.87-20.01c5.26-7.88,8.88-16.83,10.68-26.2l0.12,0.02c-1.12,9.51-4.63,18.72-9.79,26.84
								c-5.19,8.12-12.23,15.04-20.36,20.16c-16.28,10.29-36.96,13.14-55.31,7.71L542.14,1182.21z"/>
						</g>
						<g>
							<path class="st5" d="M477.05,1303.41c0.98,2,1.73,4.07,2.42,6.16c0.67,2.1,1.28,4.21,1.65,6.41c-0.98-2-1.73-4.07-2.42-6.16
								C478.03,1307.72,477.43,1305.61,477.05,1303.41z"/>
						</g>
						<g>
							<path class="st5" d="M686.01,1146.24c2.38,0.59,4.64,1.61,6.76,2.85c2.1,1.26,4.08,2.76,5.74,4.57
								c-2.07-1.32-4.07-2.65-6.15-3.88C690.29,1148.54,688.16,1147.42,686.01,1146.24z"/>
						</g>
						<g>
							<path class="st5" d="M481.87,1134.36c-1.83,1.47-3.8,2.73-5.79,3.94c-2,1.19-4.04,2.33-6.2,3.25
								c1.83-1.47,3.79-2.73,5.79-3.94C477.67,1136.42,479.71,1135.29,481.87,1134.36z"/>
						</g>
					</g>
				</g>
				<g>
					<g>
						<g>
							<path class="st4" d="M521.42,1524.01c7.85-2.91,16.66-9.6,24.69-11.91c6.21-1.79,12.85-3.4,18.77-1.87
								c3.36,0.87,6.23,2.71,8.98,4.56c22.49,15.17,41.94,33.87,57.39,55.17c1.73,2.39,3,6.33,0.02,7.92
								c-1.06,0.56-2.3,0.54-3.45,0.44c-9.49-0.91-17.7-6.8-27.39-5.65c-4.15,0.49-8.12,2.26-11.99,4
								c-11.17,5.02-29.35,5.13-40.53,10.15"/>
						</g>
					</g>
					<g>
						<g>
							<path class="st9" d="M663.82,1522.92c-7.85-2.91-16.65-9.6-24.69-11.91c-6.21-1.79,7.51,2.9-1.97-0.39
								c-10.5-3.65-69.21-16.07-78.69-0.41c-0.62,1.02,1.05,2.72,2.2,2.61c9.49-0.91,43.23,29.63,50.13,36.53
								c9.06,9.06,31.31,36.67,42.16,38.18"/>
						</g>
					</g>
					<g>
						<path class="st5" d="M641.51,1580.05c-2.97-2.49-5.71-5.25-8.36-8.09c-2.63-2.86-5.13-5.82-7.65-8.76
							c-4.99-5.92-10.08-11.72-15.74-16.98c-5.55-5.36-11.53-10.27-17.76-14.82c-6.24-4.55-12.8-8.66-19.58-12.42
							c3.5,1.65,6.92,3.49,10.29,5.41c3.35,1.96,6.61,4.06,9.82,6.25c6.38,4.42,12.41,9.37,18.06,14.71
							c5.62,5.37,10.78,11.22,15.62,17.26c2.43,3.01,4.85,6.03,7.38,8.96C636.08,1574.53,638.72,1577.35,641.51,1580.05z"/>
					</g>
					<g>
						<path class="st10" d="M987.54,1536.59c-4.26-22.32-25.24-39.15-46.3-52.44c-33.34-21.04-70.12-37.97-108.88-50.1
							c-37.18-11.64-76.32-18.96-111.69-34.28c-35.37-15.33-55.3-10.16-63.79-43.72l-179.37,8.67c7.16,18.45-7.97,19.06-21.92,24.26
							c-20.58,7.67-45.73,15.97-67.54,20.36c-43.99,8.86-88.97,15.74-130.18,31.78c-41.22,16.04-79.2,42.88-94.72,79.76
							c-15.52,36.87-2.51,84.1,36.76,103.49l56.53,9.85c92.27,5.02,299.86-48.87,299.86-48.87s-28.34-69.87-28.56-70.31
							c0,0-66.58,23.59-105.47,17.58c-16.39-2.53-28.76-6.42-29.66-20.87c-1.01-16.12,17.06-21.6,34.36-27.47
							c32.19-10.92,67.19-13.7,101.7-15.2c54.61-2.37,110.54-1.62,162.21,13.94c16.38,4.93,32.81,13.36,38.78,27.4
							c2.43,5.71-5.59,11.82-20.64,13.4c-20.87,2.2-52.46-8.24-52.46-8.24s-12.17,62.57-11.12,74.16c0,0,85.56,27.47,166.86,31.86
							c27.74,1.5,84.38,0.79,110.12-8.39c18.27-6.51,35.72-15.66,48.36-28.85C983.4,1571.15,990.78,1553.52,987.54,1536.59z"/>
					</g>
					<g>
						<g>
							<g>
								<path class="st5" d="M499.84,1378.27c0.11,1.86,0.14,3.6,0.33,5.35c0.16,1.75,0.47,3.46,0.73,5.31
									c-1.15-1.49-1.73-3.34-1.93-5.19C498.81,1381.88,499.02,1379.96,499.84,1378.27z"/>
							</g>
							<g>
								<path class="st5" d="M647.24,1367.57c1.06,2.56,1.75,5.21,2.36,7.87c0.57,2.67,1.06,5.36,1.18,8.13
									c-1.06-2.56-1.75-5.21-2.36-7.87C647.85,1373.03,647.36,1370.34,647.24,1367.57z"/>
							</g>
							<g>
								<path class="st5" d="M532.71,1374.3c0.69,1.48,1.02,3.01,1.27,4.55c0.21,1.55,0.32,3.11,0.08,4.72
									c-0.7-1.48-1.03-3.01-1.27-4.55C532.58,1377.48,532.47,1375.92,532.71,1374.3z"/>
							</g>
							<g>
								<path class="st5" d="M604.68,1367.6c0.88,1.67,1.4,3.41,1.83,5.18c0.4,1.78,0.71,3.58,0.66,5.46
									c-0.88-1.66-1.4-3.41-1.83-5.18C604.95,1371.28,604.63,1369.48,604.68,1367.6z"/>
							</g>
							<g>
								<path class="st5" d="M575.4,1368.95c0.92,1.88,1.48,3.84,1.96,5.82c0.44,1.99,0.79,4,0.78,6.09
									c-0.92-1.88-1.48-3.84-1.96-5.82C575.75,1373.05,575.39,1371.04,575.4,1368.95z"/>
							</g>
						</g>
						<g>
							<g>
								<path class="st5" d="M504.97,1522.95c5.27,11.23,10.47,22.5,15.18,33.99c2.36,5.74,4.66,11.52,6.64,17.4
									c1.96,5.89,3.82,11.82,5.37,17.83l-0.11,0.04c-2.21-5.8-4.24-11.66-6.4-17.47c-2.13-5.82-4.17-11.66-6.4-17.44
									c-2.24-5.78-4.6-11.51-7.03-17.21c-2.41-5.71-4.88-11.4-7.36-17.09L504.97,1522.95z"/>
							</g>
							<g>
								<path class="st5" d="M680.42,1522.15c1.05,2.96,1.11,6.17,1,9.28c-0.14,3.13-0.59,6.23-1.02,9.32
									c-0.43,3.09-0.92,6.15-1.12,9.24c-0.22,3.11-0.48,6.22-0.76,9.33c-0.59,6.21-1.38,12.4-2.26,18.58
									c-0.47,3.08-0.97,6.16-1.49,9.23c-0.56,3.07-1.11,6.14-1.76,9.19l1.15-9.28c0.41-3.09,0.78-6.18,1.14-9.27
									c0.77-6.18,1.44-12.37,2.05-18.56c0.32-3.1,0.62-6.19,0.87-9.3c0.21-3.14,0.81-6.23,1.34-9.29
									c0.54-3.07,1.05-6.13,1.34-9.22C681.18,1528.31,681.25,1525.17,680.42,1522.15z"/>
							</g>
							<g>
								<path class="st5" d="M176.4,1537.89c-0.62,4.46-0.93,8.89-0.71,13.31c0.19,4.43,0.92,8.8,1.93,13.19
									c-1.92-4.08-2.91-8.61-3.14-13.14C174.29,1546.73,174.85,1542.13,176.4,1537.89z"/>
							</g>
							<g>
								<path class="st5" d="M201.6,1596.58l3.93,3.04c1.36,0.94,2.7,1.9,4.08,2.81c1.41,0.86,2.78,1.78,4.2,2.61
									c1.45,0.79,2.87,1.63,4.34,2.37c5.86,3.01,11.99,5.48,18.32,7.29c6.3,1.9,12.8,3.13,19.35,3.82
									c1.64,0.13,3.28,0.3,4.93,0.41l4.95,0.17l4.96-0.03c1.65-0.1,3.3-0.18,4.96-0.26c-1.64,0.2-3.29,0.4-4.94,0.58l-4.97,0.3
									l-4.98,0c-1.66-0.06-3.32-0.17-4.98-0.25c-6.63-0.51-13.21-1.76-19.61-3.59c-6.37-1.92-12.59-4.41-18.42-7.63
									c-1.46-0.8-2.86-1.69-4.3-2.53c-1.41-0.89-2.77-1.85-4.14-2.77c-1.34-0.99-2.63-2.03-3.94-3.04
									C204.06,1598.8,202.83,1597.69,201.6,1596.58z"/>
							</g>
							<g>
								<path class="st5" d="M530.56,1581.89c2.39-0.75,4.72-1.35,7.03-2.08c2.33-0.69,4.6-1.49,7-2.2
									c-1.97,1.56-4.27,2.61-6.65,3.35C535.56,1581.68,533.06,1582.09,530.56,1581.89z"/>
							</g>
							<g>
								<path class="st5" d="M524.79,1570.59c-0.02,0.18,0.16,0.2,0.28,0.19c0.14,0,0.28-0.03,0.42-0.06
									c0.28-0.06,0.57-0.14,0.85-0.23l1.7-0.53c1.13-0.36,2.28-0.7,3.42-1.03c1.15-0.31,2.31-0.61,3.49-0.85
									c1.18-0.23,2.38-0.47,3.61-0.42c-1.13,0.45-2.22,0.93-3.36,1.33c-1.13,0.42-2.27,0.77-3.43,1.1
									c-1.16,0.31-2.33,0.6-3.53,0.78c-0.6,0.1-1.21,0.17-1.82,0.2c-0.31,0-0.62,0.02-0.93-0.02c-0.16-0.02-0.31-0.04-0.47-0.1
									c-0.08-0.02-0.16-0.08-0.22-0.13C524.75,1570.75,524.76,1570.67,524.79,1570.59z"/>
							</g>
							<g>
								<path class="st5" d="M669.88,1538.09c1.59,0.49,3.05,0.86,4.57,1.03c1.52,0.18,3.01,0.17,4.68,0.04
									c-1.34,1.04-3.14,1.34-4.82,1.15C672.64,1540.11,670.96,1539.4,669.88,1538.09z"/>
							</g>
							<g>
								<path class="st5" d="M665.81,1557.06c1.67-0.82,3.56-1.06,5.39-0.99c1.84,0.11,3.68,0.54,5.27,1.52
									c-1.85-0.06-3.58-0.24-5.33-0.31C669.39,1557.17,667.66,1557.17,665.81,1557.06z"/>
							</g>
							<g>
								<path class="st5" d="M758.28,1506.9c1.56-0.98,3.22-1.8,4.93-2.52c1.7-0.72,3.47-1.3,5.26-1.77
									c1.79-0.46,3.61-0.82,5.45-1.02c1.84-0.21,3.69-0.3,5.53-0.21c-1.83,0.24-3.64,0.49-5.44,0.82
									c-1.79,0.34-3.58,0.72-5.34,1.18c-1.77,0.45-3.51,0.99-5.24,1.57C761.69,1505.55,759.99,1506.22,758.28,1506.9z"/>
							</g>
							<g>
								<path class="st5" d="M369.78,1508.59c-3.52-0.43-7.04-0.81-10.57-1.06c-3.53-0.26-7.06-0.45-10.6-0.47
									c-3.53-0.08-7.07,0-10.6,0.15c-3.53,0.15-7.07,0.43-10.6,0.75c3.49-0.65,7.02-1.08,10.56-1.37
									c3.54-0.28,7.1-0.36,10.65-0.34c3.55,0.09,7.11,0.27,10.64,0.66C362.8,1507.3,366.31,1507.83,369.78,1508.59z"/>
							</g>
							<g>
								<path class="st5" d="M957.61,1535.7c1.28,2.04,2.09,4.38,2.47,6.78c0.39,2.41,0.31,4.88-0.11,7.28
									c-0.48,2.39-1.3,4.72-2.54,6.83c-1.23,2.1-2.83,3.99-4.76,5.43c1.71-1.69,3.14-3.62,4.22-5.73c1.09-2.1,1.88-4.35,2.29-6.68
									c0.47-2.31,0.54-4.7,0.29-7.05C959.22,1540.22,958.59,1537.9,957.61,1535.7z"/>
							</g>
						</g>
					</g>
				</g>
			</g>
		</g>
	</g>
	<g>
		<g>
			<g>
				<path class="st5" d="M188.45,1219.24c2.66,0,2.66-4.13,0-4.13C185.8,1215.11,185.79,1219.24,188.45,1219.24L188.45,1219.24z"/>
			</g>
		</g>
		<g>
			<g>
				<path class="st5" d="M131.78,1151.23c2.66,0,2.66-4.13,0-4.13C129.12,1147.1,129.12,1151.23,131.78,1151.23L131.78,1151.23z"/>
			</g>
		</g>
		<g>
			<g>
				<path class="st5" d="M242.86,1096.82c2.66,0,2.66-4.13,0-4.13C240.21,1092.7,240.2,1096.82,242.86,1096.82L242.86,1096.82z"/>
			</g>
		</g>
		<g>
			<g>
				<path class="st5" d="M174.85,978.94c2.66,0,2.66-4.13,0-4.13C172.2,974.81,172.19,978.94,174.85,978.94L174.85,978.94z"/>
			</g>
		</g>
		<g>
			<g>
				<path class="st5" d="M950.15,1212.44c2.66,0,2.66-4.13,0-4.13C947.49,1208.31,947.49,1212.44,950.15,1212.44L950.15,1212.44z"/>
			</g>
		</g>
		<g>
			<g>
				<path class="st5" d="M993.22,1135.36c2.66,0,2.66-4.13,0-4.13C990.56,1131.23,990.56,1135.36,993.22,1135.36L993.22,1135.36z"/>
			</g>
		</g>
		<g>
			<g>
				<path class="st5" d="M898.01,1105.89c2.66,0,2.66-4.13,0-4.13C895.35,1101.76,895.35,1105.89,898.01,1105.89L898.01,1105.89z"/>
			</g>
		</g>
		<g>
			<g>
				<path class="st5" d="M990.95,963.07c2.66,0,2.66-4.13,0-4.13C988.3,958.95,988.29,963.07,990.95,963.07L990.95,963.07z"/>
			</g>
		</g>
		<g>
			<g>
				<path class="st5" d="M877.61,847.46c2.66,0,2.66-4.13,0-4.13C874.95,843.33,874.95,847.46,877.61,847.46L877.61,847.46z"/>
			</g>
		</g>
		<g>
			<g>
				<path class="st5" d="M622.2,670.64c2.66,0,2.66-4.13,0-4.13C619.54,666.51,619.54,670.64,622.2,670.64L622.2,670.64z"/>
			</g>
		</g>
		<g>
			<g>
				<path class="st5" d="M308.6,827.06c2.66,0,2.66-4.13,0-4.13C305.95,822.93,305.94,827.06,308.6,827.06L308.6,827.06z"/>
			</g>
		</g>
	</g>
</g>
</svg>
