<svg xmlns="http://www.w3.org/2000/svg" xmlns:xlink="http://www.w3.org/1999/xlink" width="1080" zoomAndPan="magnify" viewBox="0 0 810 809.999993" height="1080" preserveAspectRatio="xMidYMid meet" version="1.0"><defs><clipPath id="8ea431a076"><path d="M 521.652344 50.65625 L 729 50.65625 L 729 561.179688 L 521.652344 561.179688 Z M 521.652344 50.65625 " clip-rule="nonzero"/></clipPath><clipPath id="da06d31b3d"><path d="M 590.808594 56.355469 C 601.402344 52.914062 613.523438 50.65625 625.382812 50.65625 C 637.246094 50.65625 648.65625 52.59375 659.175781 56.035156 C 659.398438 56.140625 659.625 56.140625 659.847656 56.25 C 699.347656 70.019531 728.441406 106.378906 729 154.808594 L 729 561.179688 L 521.652344 561.179688 L 521.652344 155.109375 C 522.214844 106.164062 550.859375 69.804688 590.808594 56.355469 Z M 590.808594 56.355469 " clip-rule="nonzero"/></clipPath></defs><g clip-path="url(#8ea431a076)"><g clip-path="url(#da06d31b3d)"><path fill="#e7e7e7" d="M 521.652344 50.65625 L 729 50.65625 L 729 561.179688 L 521.652344 561.179688 Z M 521.652344 50.65625 " fill-opacity="1" fill-rule="nonzero"/></g></g></svg>