<svg width="9" height="32" viewBox="0 0 9 32" fill="none" xmlns="http://www.w3.org/2000/svg">
<path id="Relax" d="M29.8739 17.1158C28.9333 16.6407 27.8881 16.3937 26.862 16.3937C24.6291 16.3937 22.7478 17.5528 21.9497 19.4151C21.3131 20.8973 21.3986 23.1492 22.1492 24.5269C22.6338 25.42 23.7265 26.3702 25.3607 26.3702C25.6838 26.3702 26.0163 26.3322 26.3489 26.2657C27.2515 26.0756 28.5247 24.7264 28.8288 23.6528C29.0568 22.8451 28.1827 21.4674 27.28 20.8213C27.2135 20.7738 27.1375 20.7738 27.0805 20.7738C26.9665 20.7738 26.3964 20.7928 26.1208 21.1444C26.0258 21.2584 25.9213 21.4674 25.9878 21.7715L26.0068 21.8475L26.0638 21.895C26.6434 22.4556 26.9475 23.1302 26.8239 23.5768C26.7384 23.8808 26.4724 24.0898 26.0258 24.2039C25.5983 24.1278 24.9902 23.7668 24.7811 23.5103C24.3916 23.0257 24.04 21.838 24.2015 21.1919C24.4866 20.0517 25.6458 19.2536 27.033 19.2536C27.9926 19.2536 28.8478 19.6622 29.3798 20.3748C30.254 21.5529 30.8811 23.7953 30.368 24.907C29.7314 26.3037 27.9546 27.7574 26.2349 28.2895C25.7978 28.4225 25.3512 28.489 24.9237 28.489C23.2514 28.489 21.6171 27.4534 20.3344 25.5816C18.7857 23.3297 18.7002 20.9639 20.0779 18.7215C20.6575 17.7904 21.4556 16.9542 22.2347 16.1466C22.6053 15.7666 22.9854 15.377 23.3369 14.9779C25.7408 12.251 26.3204 9.10602 25.0757 5.61899C24.0115 2.62602 21.6646 0.792241 18.2916 0.298165C17.9781 0.250657 17.6645 0.231659 17.351 0.231659C14.377 0.231659 11.5361 2.15096 10.4434 4.88738C9.33175 7.67131 10.1964 10.7118 12.5907 12.46C13.5029 13.1251 14.6811 13.4862 15.8973 13.4862C17.484 13.4862 18.9377 12.8591 19.8119 11.8044C21.5031 9.75213 21.4936 7.42427 19.7739 5.88503C19.1943 5.36245 18.1871 5.17242 17.4365 5.17242C17.0564 5.17242 16.7239 5.21993 16.4673 5.29594C15.8783 5.48597 14.5956 6.68316 14.5861 7.45277C14.5861 7.74732 14.7476 7.97535 15.0516 8.07987L15.0991 8.09887H15.1466C15.2702 8.09887 15.3462 8.02286 15.4887 7.88984C15.7832 7.60479 16.4008 7.02521 17.2465 7.02521C17.56 7.02521 17.8926 7.11072 18.2156 7.27224C18.4912 7.41477 18.5482 7.75682 18.5577 7.95635C18.5862 8.64046 18.1491 9.62861 17.3795 10.0942C16.9519 10.3507 16.2963 10.5122 15.6692 10.5122C15.3082 10.5122 14.9756 10.4647 14.7191 10.3602C13.8069 10.0182 13.1798 9.28656 12.9328 8.2889C12.6288 7.04421 13.0088 5.64749 13.9115 4.64034C14.8141 3.64268 16.0683 3.0916 17.446 3.0916C19.1278 3.0916 20.743 3.92772 21.7597 5.33394C23.0804 7.14872 23.2799 9.48608 22.2917 11.5764C21.2941 13.7047 19.3083 15.0539 16.9899 15.1965C16.8284 15.206 16.6574 15.206 16.4864 15.206C15.2512 15.206 13.9685 14.9494 12.7333 14.7024C11.9161 14.5409 11.0705 14.3698 10.2439 14.2748C9.90183 14.2368 9.55028 14.2178 9.20823 14.2178C4.81855 14.2178 1.03696 17.4293 0.400366 21.6765C-0.21723 25.8191 2.5572 29.7052 6.71884 30.5318C7.14641 30.6173 7.59298 30.6649 8.02054 30.6649C10.833 30.6649 13.2749 28.9166 14.2345 26.2087C15.2322 23.4057 14.073 20.4888 11.5931 19.5671C11.042 19.3676 10.3864 19.2631 9.6833 19.2631C8.73315 19.2631 7.79251 19.4531 7.02289 19.7857C6.05374 20.2132 5.19861 21.857 5.31263 23.0922C5.45515 24.7454 6.25327 25.154 7.01339 25.5436L7.0989 25.5911C7.36494 25.7241 7.85902 25.8856 8.3816 25.8856C9.18922 25.8856 9.72131 25.5151 9.87333 24.8405L9.88283 24.8119C9.99685 23.7288 9.09421 23.2727 8.49562 22.9592C8.30559 22.8641 7.98254 22.7026 7.96353 22.6171C7.96353 22.4936 8.22007 22.4081 8.58113 22.4081C9.42676 22.4081 10.5669 22.8356 10.871 23.4437C11.251 24.2229 11.3461 25.5246 10.7665 26.3987C10.1109 27.3773 9.23673 27.8714 8.14406 27.8714C7.32694 27.8714 6.40529 27.5769 5.48365 27.0353C3.31732 25.7431 2.5667 22.7786 3.80189 20.4223C5.03708 18.0659 7.1179 16.8972 9.77831 17.0588C12.6858 17.2298 14.8331 18.8355 16.0018 21.705C16.2678 22.3701 16.4673 23.0827 16.6574 23.7668C16.9044 24.6789 17.1705 25.6196 17.598 26.4747C19.1658 29.5817 21.9307 31.292 25.3892 31.292C25.5127 31.292 25.6458 31.292 25.7693 31.2825C29.3608 31.1589 31.9547 29.3347 33.2564 26.0091C34.5676 22.6456 33.0854 18.7405 29.8739 17.1158Z" fill="#94BBC4"/>
</svg>
